<svg width="40" height="40" viewBox="0 0 40 40" fill="none" xmlns="http://www.w3.org/2000/svg">
<rect width="40" height="40" fill="white"/>
<g clip-path="url(#clip0_5856_4742)">
<path fill-rule="evenodd" clip-rule="evenodd" d="M17.7312 13.9769C16.7767 13.3256 15.6355 13 14.3076 13C12.9797 13 11.8385 13.3256 10.8841 13.9769C9.92963 14.6146 9.21034 15.4966 8.72621 16.6228C8.24207 17.749 8 19.038 8 20.4898C8 21.9416 8.24207 23.2306 8.72621 24.3568C9.21034 25.483 9.92963 26.3717 10.8841 27.023C11.8385 27.6607 12.9797 27.9796 14.3076 27.9796C15.6355 27.9796 16.7767 27.6607 17.7312 27.023C18.6856 26.3717 19.4049 25.483 19.889 24.3568C20.3732 23.2306 20.6152 21.9416 20.6152 20.4898C20.6152 19.038 20.3732 17.749 19.889 16.6228C19.4049 15.4966 18.6856 14.6146 17.7312 13.9769ZM16.1049 16.4852C15.6412 16.007 15.0421 15.768 14.3076 15.768C13.3255 15.768 12.5786 16.1954 12.0668 17.0502C11.5688 17.905 11.3198 19.0515 11.3198 20.4898C11.3198 21.3927 11.4179 22.1806 11.6142 22.8536L16.1049 16.4852ZM12.4971 24.4928C12.9687 24.972 13.5723 25.2116 14.3076 25.2116C15.2897 25.2116 16.0298 24.7842 16.5277 23.9294C17.0395 23.0746 17.2954 21.928 17.2954 20.4898C17.2954 19.5841 17.194 18.7942 16.9911 18.1199L12.4971 24.4928Z" fill="#26272B"/>
<path d="M24.5549 22.0366L20.6541 27.6539H24.3889L26.2148 24.4789C26.3531 24.2618 26.4361 23.9769 26.4638 23.6241C26.4776 23.4884 26.5053 23.3867 26.5468 23.3188C26.5883 23.2374 26.6713 23.1967 26.7957 23.1967C26.9894 23.1967 27.1001 23.3188 27.1277 23.563V23.6241C27.1554 23.9769 27.2384 24.2618 27.3767 24.4789L29.2026 27.6539H32.9374L29.0366 22.0366L32.6054 16.9077H28.8706L27.3767 19.5739C27.2107 19.8589 27.1277 20.1438 27.1277 20.4287C27.1277 20.5508 27.1001 20.6526 27.0447 20.734C27.0032 20.8154 26.9202 20.8561 26.7957 20.8561C26.6713 20.8561 26.5813 20.8154 26.526 20.734C26.4845 20.6526 26.4638 20.5508 26.4638 20.4287C26.4638 20.1438 26.3808 19.8589 26.2148 19.5739L24.7209 16.9077H20.9861L24.5549 22.0366Z" fill="#26272B"/>
</g>
<defs>
<clipPath id="clip0_5856_4742">
<rect width="25" height="15" fill="white" transform="translate(8 13)"/>
</clipPath>
</defs>
</svg>
