<svg width="40" height="40" viewBox="0 0 40 40" fill="none" xmlns="http://www.w3.org/2000/svg">
<rect width="40" height="40" fill="#9391F7"/>
<g clip-path="url(#clip0_6549_17)">
<path d="M16.5342 26.953C17.9924 26.953 19.1746 25.7348 19.1746 24.2321C19.1746 22.7294 17.9924 21.5112 16.5342 21.5112C15.0758 21.5112 13.8936 22.7294 13.8936 24.2321C13.8936 25.7348 15.0758 26.953 16.5342 26.953Z" fill="white"/>
<path d="M23.4356 26.953C24.8939 26.953 26.0762 25.7348 26.0762 24.2321C26.0762 22.7294 24.8939 21.5112 23.4356 21.5112C21.9774 21.5112 20.7951 22.7294 20.7951 24.2321C20.7951 25.7348 21.9774 26.953 23.4356 26.953Z" fill="white"/>
<path d="M19.9805 13C12.8109 13 6.99812 19.1038 7 26.6309H10.3161C10.3161 20.9899 14.6087 16.4164 19.9805 16.4164C25.3522 16.4164 29.6448 20.9899 29.6448 26.6309H32.9609C32.9622 19.1038 27.1494 13 19.9805 13Z" fill="white"/>
</g>
<defs>
<clipPath id="clip0_6549_17">
<rect width="26" height="14" fill="white" transform="translate(7 13)"/>
</clipPath>
</defs>
</svg>
