<svg width="40" height="40" viewBox="0 0 40 40" fill="none" xmlns="http://www.w3.org/2000/svg">
<rect width="40" height="40" fill="#2D2E33"/>
<circle cx="20" cy="20" r="13" fill="#6CF9D8"/>
<path fill-rule="evenodd" clip-rule="evenodd" d="M25.59 13L27 14.41L22.288 19.122C22.0396 18.4752 21.5248 17.9604 20.878 17.712L25.59 13ZM19.122 17.712L14.41 13L13 14.41L17.712 19.122C17.9604 18.4752 18.4752 17.9604 19.122 17.712ZM17.712 20.878L13 25.59L14.41 27L19.122 22.288C18.4752 22.0396 17.9604 21.5249 17.712 20.878ZM20.878 22.288L25.59 27L27 25.59L22.288 20.878C22.0396 21.5249 21.5248 22.0396 20.878 22.288Z" fill="#2D2E33"/>
</svg>
