<svg width="40" height="40" viewBox="0 0 40 40" fill="none" xmlns="http://www.w3.org/2000/svg">
<rect width="40" height="40" fill="white"/>
<path d="M29.2938 22.2751L20.4334 7.24598C20.3905 7.17177 20.3284 7.10995 20.2533 7.06677C20.1782 7.02358 20.0928 7.00055 20.0057 7.00001C19.9186 6.99946 19.8329 7.02142 19.7573 7.06366C19.6817 7.10591 19.6188 7.16694 19.5749 7.24061L16.9213 11.744C16.8344 11.8914 16.7887 12.0586 16.7887 12.2288C16.7887 12.399 16.8344 12.5663 16.9213 12.7137L22.6988 22.5182C22.7858 22.6657 22.911 22.7883 23.0617 22.8734C23.2124 22.9585 23.3834 23.0032 23.5573 23.003H28.8645C28.9514 23.0028 29.0367 22.9802 29.1119 22.9376C29.1871 22.8949 29.2495 22.8337 29.293 22.76C29.3364 22.6863 29.3593 22.6027 29.3595 22.5177C29.3596 22.4326 29.337 22.3489 29.2938 22.2751Z" fill="#363FF9"/>
<path d="M6.06832 30.1301L14.9287 15.101C14.9722 15.0274 15.0347 14.9663 15.1099 14.9238C15.1851 14.8813 15.2704 14.8589 15.3573 14.8589C15.4441 14.8589 15.5295 14.8813 15.6046 14.9238C15.6799 14.9663 15.7424 15.0274 15.7858 15.101L18.4408 19.6003C18.5277 19.748 18.5734 19.9155 18.5734 20.0859C18.5734 20.2563 18.5277 20.4237 18.4408 20.5714L12.6632 30.3759C12.5766 30.5234 12.4517 30.646 12.3012 30.7311C12.1507 30.8163 11.9799 30.861 11.8061 30.8607H6.49756C6.41011 30.8612 6.32411 30.8389 6.2483 30.7962C6.17249 30.7535 6.10958 30.6919 6.06596 30.6177C6.02235 30.5435 5.99959 30.4593 6.00001 30.3736C6.00042 30.288 6.02399 30.204 6.06832 30.1301Z" fill="#363FF9"/>
<path d="M15.7846 30.8574H33.5054C33.5923 30.8573 33.6777 30.8348 33.7529 30.7922C33.8282 30.7496 33.8906 30.6882 33.9339 30.6145C33.9773 30.5407 34.0001 30.457 34 30.3719C33.9999 30.2867 33.9768 30.2031 33.9333 30.1295L31.2824 25.6275C31.1954 25.4799 31.0703 25.3574 30.9196 25.2723C30.7688 25.1872 30.5979 25.1424 30.4239 25.1426H18.8688C18.6948 25.1424 18.5239 25.1872 18.3732 25.2723C18.2224 25.3574 18.0973 25.4799 18.0103 25.6275L15.3567 30.1295C15.3131 30.2031 15.2901 30.2867 15.29 30.3719C15.2899 30.457 15.3126 30.5407 15.356 30.6145C15.3993 30.6882 15.4618 30.7496 15.537 30.7922C15.6123 30.8348 15.6976 30.8573 15.7846 30.8574Z" fill="#363FF9"/>
</svg>
