<svg width="40" height="40" viewBox="0 0 40 40" fill="none" xmlns="http://www.w3.org/2000/svg">
<rect width="40" height="40" fill="white"/>
<path d="M29.6 8H10.4C9.07452 8 8 9.07452 8 10.4V29.6C8 30.9255 9.07452 32 10.4 32H29.6C30.9255 32 32 30.9255 32 29.6V10.4C32 9.07452 30.9255 8 29.6 8Z" fill="url(#paint0_linear_5896_55)"/>
<path d="M19.8001 12.4442V14.6665C19.8001 14.8015 19.6906 14.9109 19.5556 14.9109H17.3334C16.9775 14.9109 16.689 15.1994 16.689 15.5554V17.8665C16.689 18.2224 16.9775 18.5109 17.3334 18.5109H19.6446C20.0004 18.5109 20.289 18.2224 20.289 17.8665V15.6442C20.289 15.5092 20.3984 15.3998 20.5334 15.3998H22.7556C22.8906 15.3998 23.0001 15.5092 23.0001 15.6442V21.1554C23.0001 21.2904 22.8906 21.3998 22.7556 21.3998H17.2446C17.1096 21.3998 17.0001 21.2904 17.0001 21.1554V18.8443C17.0001 18.4883 16.7115 18.1998 16.3557 18.1998H14.0445C13.6886 18.1998 13.4001 18.4883 13.4001 18.8443V27.5554C13.4001 27.9112 13.6886 28.1998 14.0445 28.1998H16.3557C16.7115 28.1998 17.0001 27.9112 17.0001 27.5554V25.2442C17.0001 25.1092 17.1096 24.9998 17.2446 24.9998H22.7556C22.8906 24.9998 23.0001 25.1092 23.0001 25.2442V27.5554C23.0001 27.9112 23.2886 28.1998 23.6445 28.1998H25.9557C26.3115 28.1998 26.6001 27.9112 26.6001 27.5554V12.4442C26.6001 12.0883 26.3115 11.7998 25.9557 11.7998H20.4445C20.0886 11.7998 19.8001 12.0883 19.8001 12.4442Z" fill="url(#paint1_linear_5896_55)" stroke="url(#paint2_linear_5896_55)" stroke-width="0.533333"/>
<path opacity="0.2" d="M10.7001 8V32" stroke="white" stroke-width="0.266667"/>
<path opacity="0.2" d="M29.4999 8V32" stroke="white" stroke-width="0.266667"/>
<path opacity="0.2" d="M8 29.3003H32" stroke="white" stroke-width="0.266667"/>
<path opacity="0.2" d="M8 10.5H32" stroke="white" stroke-width="0.266667"/>
<defs>
<linearGradient id="paint0_linear_5896_55" x1="32" y1="8" x2="19.9" y2="25" gradientUnits="userSpaceOnUse">
<stop stop-color="#9988FF"/>
<stop offset="1" stop-color="#684FF8"/>
</linearGradient>
<linearGradient id="paint1_linear_5896_55" x1="20.0001" y1="11.9998" x2="20.0001" y2="27.9998" gradientUnits="userSpaceOnUse">
<stop stop-color="white"/>
<stop offset="1" stop-color="white" stop-opacity="0.8"/>
</linearGradient>
<linearGradient id="paint2_linear_5896_55" x1="20.0001" y1="11.9998" x2="20.0001" y2="27.9998" gradientUnits="userSpaceOnUse">
<stop stop-color="#7C6BE3"/>
<stop offset="1" stop-color="#5B46D3"/>
</linearGradient>
</defs>
</svg>
