<svg width="40" height="40" viewBox="0 0 40 40" fill="none" xmlns="http://www.w3.org/2000/svg">
<g clip-path="url(#clip0_5943_2)">
<path d="M40 0H0V40H40V0Z" fill="#1F1F1F"/>
<path d="M25.2102 13.4418L20.7973 9.02892C20.7361 8.9677 20.6286 9.01324 20.6443 9.10581L21.2572 16.7678C21.2572 16.8447 21.349 16.8753 21.4102 16.829L25.2102 13.5807C25.2409 13.5344 25.2565 13.4732 25.2102 13.4426V13.4418Z" fill="#EEFF00"/>
<path d="M30.9715 19.1878L26.5585 14.7749C26.5279 14.7443 26.451 14.7443 26.4204 14.7749L23.1721 18.5906C23.1266 18.6518 23.1565 18.7287 23.2334 18.7436L30.8953 19.3566C30.9871 19.3566 31.0334 19.2491 30.9722 19.1878H30.9715Z" fill="#EEFF00"/>
<path d="M14.7748 26.5584L19.1877 30.9713C19.2489 31.0325 19.3565 30.987 19.3408 30.8944L18.7278 23.2324C18.7278 23.1556 18.636 23.1249 18.5748 23.1712L14.7748 26.4195C14.7442 26.4501 14.7442 26.5113 14.7748 26.5576V26.5584Z" fill="#EEFF00"/>
<path d="M20.7973 30.9711L25.2102 26.5581C25.2409 26.5275 25.2409 26.4506 25.2102 26.42L21.4102 23.1717C21.349 23.1262 21.2721 23.1568 21.2572 23.2329L20.6443 30.8949C20.6443 30.9867 20.7361 31.033 20.7973 30.9718V30.9711Z" fill="#EEFF00"/>
<path d="M19.1885 9.02845L14.7756 13.4414C14.7449 13.472 14.7449 13.5489 14.7756 13.5795L18.5912 16.8128C18.6525 16.8591 18.7293 16.8278 18.7443 16.7516L19.3572 9.08967C19.3572 9.01277 19.2497 8.96723 19.1885 9.02845Z" fill="#EEFF00"/>
<path d="M23.1721 21.4101L26.4204 25.2101C26.451 25.2564 26.5123 25.2564 26.5585 25.2101L30.9715 20.7972C31.0327 20.7359 30.9871 20.6284 30.8946 20.6441L23.2326 21.257C23.1714 21.257 23.1251 21.3489 23.1714 21.4101H23.1721Z" fill="#EEFF00"/>
<path d="M9.02852 20.7971L13.4414 25.21C13.4721 25.2406 13.5489 25.2406 13.5796 25.21L16.8129 21.41C16.8592 21.3488 16.8286 21.2719 16.7517 21.257L9.08973 20.644C9.01284 20.644 8.9673 20.7359 9.02852 20.7971Z" fill="#EEFF00"/>
<path d="M13.4422 14.7744L9.02926 19.1873C8.96804 19.2486 9.01358 19.3561 9.10616 19.3404L16.7681 18.7275C16.845 18.7275 16.8756 18.6356 16.8293 18.5744L13.5811 14.7894C13.5348 14.7438 13.4735 14.7438 13.4429 14.7737L13.4422 14.7744Z" fill="#EEFF00"/>
</g>
<defs>
<clipPath id="clip0_5943_2">
<rect width="40" height="40" fill="white"/>
</clipPath>
</defs>
</svg>
