<svg width="40" height="40" viewBox="0 0 40 40" fill="none" xmlns="http://www.w3.org/2000/svg">
<rect width="40" height="40" fill="#1F262F"/>
<path fill-rule="evenodd" clip-rule="evenodd" d="M10.9273 27.5161C10.1844 25.9156 9.76946 24.1299 9.76946 22.2466C9.76946 15.362 15.3151 9.78085 22.1558 9.78085C25.9651 9.78085 29.3724 11.5114 31.6445 14.2337L33 13.089C30.4033 9.97776 26.5091 8 22.1558 8C14.3378 8 8 14.3785 8 22.2466C8 24.3988 8.47422 26.4398 9.32326 28.269L10.9273 27.5161Z" fill="white"/>
<path fill-rule="evenodd" clip-rule="evenodd" d="M22.1562 30.7052C17.5142 30.7052 13.7512 26.9179 13.7512 22.246C13.7512 17.5744 17.5142 13.7872 22.1562 13.7872C24.7409 13.7872 27.0529 14.9618 28.5946 16.809L29.9504 15.664C28.0841 13.4278 25.2851 12.0063 22.1562 12.0063C16.537 12.0063 11.9817 16.5909 11.9817 22.246C11.9817 27.9015 16.537 32.486 22.1562 32.486V30.7052Z" fill="white"/>
<path fill-rule="evenodd" clip-rule="evenodd" d="M25.2059 24.8216C24.4754 25.6967 23.3805 26.253 22.1562 26.253C19.9573 26.253 18.1747 24.4591 18.1747 22.2462C18.1747 20.0333 19.9573 18.2393 22.1562 18.2393C23.3805 18.2393 24.4754 18.7957 25.2059 19.6707L26.7308 18.383C25.6352 17.0705 23.9927 16.2358 22.1562 16.2358C18.8579 16.2358 16.1841 18.9268 16.1841 22.2462C16.1841 25.5655 18.8579 28.2564 22.1562 28.2564C23.8391 28.2564 25.3591 27.5551 26.4447 26.4279L25.2059 24.8216Z" fill="white"/>
</svg>
