<svg width="40" height="40" viewBox="0 0 40 40" fill="none" xmlns="http://www.w3.org/2000/svg">
<rect width="40" height="40" fill="#FF5300"/>
<g clip-path="url(#clip0_5923_2)">
<path d="M20.501 9.05316C18.0498 8.95474 15.6171 9.64579 13.6259 11.0626C10.6282 13.1963 8.87075 16.839 9.0533 20.5263C10.1196 19.5463 11.572 18.9647 13.0102 18.8426C13.3215 15.6995 16.0159 13.0279 19.1298 12.579C19.1276 11.6105 19.5207 10.6974 19.9649 9.86001L20.5015 9.05369L20.501 9.05316ZM25.4608 14.1842V16.6842L23.8264 15.6568C22.3787 14.9063 20.855 14.5979 19.2332 14.9195C17.2014 15.3226 15.7637 16.7874 15.3828 18.8153C18.3009 19.2426 20.673 21.3332 21.4886 24.1468C21.5677 24.419 21.5957 24.7147 21.6638 24.9716C21.6775 25.0237 21.6738 25.0742 21.7387 25.0937C22.6783 24.9137 23.5383 24.4784 24.3165 23.9379L25.4081 23.1058V25.6058C23.8828 27.2058 21.2823 27.6132 19.1714 27.2484C16.4253 26.7737 13.8776 24.7674 13.2228 22.0042C13.7109 21.7732 15.3865 21.7116 15.7252 22.1074C15.8471 22.25 16.0001 22.6568 16.132 22.8595C16.8543 23.9679 17.9991 24.7416 19.287 25.0537C18.5631 21.0216 14.3777 20.15 11.0212 21.6763C10.7242 21.8111 9.45058 22.5263 9.42103 22.8179C9.40362 22.9868 9.71912 23.8526 9.80301 24.0679C10.9975 27.1263 13.8291 29.7011 17.0189 30.5537C17.1877 30.599 17.5639 30.7311 17.7047 30.6605C17.8577 30.5837 18.6565 29.2447 18.7873 29.0026C18.896 28.8016 19.0875 28.2537 19.1762 28.1395C19.2474 28.0484 20.1338 28.2058 20.3137 28.2142C20.7468 28.2337 21.1789 28.2 21.6084 28.16C21.3456 29.1611 20.9594 30.1479 20.2894 30.9484C24.5333 30.8963 28.4043 28.2895 30.0746 24.4211C30.6961 22.9816 30.9852 21.4105 30.999 19.8437C29.2199 21.0868 26.8014 21.5416 24.6779 21.0711C22.118 20.5037 20.0087 18.3863 19.3355 15.8758C20.1469 15.5237 21.0834 15.5853 21.9123 15.8558C22.4151 17.2232 23.4544 18.4005 24.8916 18.8047C26.7672 19.3326 29.2906 18.8537 30.7156 17.5032C29.8699 13.7263 26.86 10.63 23.1658 9.52685C22.204 10.2195 21.7128 11.4253 21.5551 12.58C22.9733 12.75 24.364 13.2647 25.4593 14.1858L25.4608 14.1842Z" fill="white"/>
<path d="M25.4608 14.1843C24.365 13.2633 22.9748 12.7485 21.5566 12.5785C21.7144 11.4238 22.2056 10.2185 23.1674 9.52539C26.861 10.6285 29.8709 13.7249 30.7172 17.5017C29.2927 18.8517 26.7692 19.3312 24.8931 18.8033C23.456 18.3991 22.4166 17.2217 21.9138 15.8543C21.085 15.5833 20.1485 15.5222 19.3371 15.8743C20.0103 18.3849 22.1196 20.5022 24.6795 21.0696C26.803 21.5407 29.2215 21.0859 31.0005 19.8422C30.9863 21.4091 30.6972 22.9801 30.0762 24.4196C28.4058 28.2885 24.5354 30.8949 20.291 30.947C20.9605 30.1464 21.3472 29.1596 21.6099 28.1585C21.1805 28.1991 20.7484 28.2328 20.3152 28.2128C20.1348 28.2043 19.2484 28.047 19.1777 28.138C19.0886 28.2522 18.8971 28.8001 18.7889 29.0012C18.6581 29.2438 17.8598 30.5828 17.7063 30.6591C17.5654 30.7296 17.1893 30.5975 17.0204 30.5522C13.8311 29.6991 10.999 27.1243 9.80457 24.0664C9.72068 23.8512 9.40571 22.9854 9.42259 22.8164C9.45213 22.5249 10.7257 21.8101 11.0228 21.6749C14.3788 20.1485 18.5647 21.0201 19.2885 25.0522C18.0002 24.7401 16.8558 23.9664 16.1335 22.858C16.0016 22.6559 15.8486 22.2485 15.7268 22.1059C15.3881 21.7107 13.7119 21.7717 13.2244 22.0028C13.8791 24.7659 16.4269 26.7722 19.173 27.247C21.2834 27.6122 23.8844 27.2043 25.4096 25.6043V23.1043L24.3181 23.9364C23.5399 24.477 22.6799 24.9122 21.7402 25.0922C21.6759 25.0728 21.679 25.0222 21.6653 24.9701C21.5967 24.7128 21.5688 24.417 21.4902 24.1454C20.674 21.3322 18.3025 19.2417 15.3844 18.8138C15.7653 16.7859 17.203 15.3212 19.2347 14.918C20.856 14.5964 22.3797 14.9054 23.8279 15.6554L25.4624 16.6828V14.1828L25.4608 14.1843Z" fill="white"/>
<path d="M20.501 9.05326L19.9644 9.85957C19.5196 10.6975 19.1271 11.6106 19.1292 12.5785C16.0154 13.0275 13.321 15.6996 13.0097 18.8422C11.5715 18.9643 10.119 19.5459 9.05277 20.5259C8.87075 16.839 10.6282 13.1964 13.6265 11.0627C15.6171 9.64536 18.0498 8.95431 20.501 9.05326Z" fill="white"/>
</g>
<defs>
<clipPath id="clip0_5923_2">
<rect width="22" height="22" fill="white" transform="translate(9 9)"/>
</clipPath>
</defs>
</svg>
