<svg width="40" height="40" viewBox="0 0 40 40" fill="none" xmlns="http://www.w3.org/2000/svg">
<path fill-rule="evenodd" clip-rule="evenodd" d="M20.2021 29.3262C14.9986 29.3262 10.7781 25.1495 10.7781 20C10.7781 15.1723 14.4876 11.1996 19.2388 10.7218C19.5555 10.69 19.8769 10.6737 20.2021 10.6737C23.7687 10.6737 26.8926 12.6888 28.4699 15.6265C28.6952 16.0462 28.889 16.4847 29.048 16.9389H32.835C31.4474 11.3031 26.3017 7.09766 20.2021 7.09766C13.004 7.09766 7.16455 12.9051 7.16455 20C7.16455 26.6514 12.2969 32.1713 18.8695 32.8353C19.3076 32.8796 19.7522 32.9022 20.2021 32.9022C25.5393 32.9022 30.1461 29.6825 32.144 25.102C32.4294 24.4476 32.6615 23.7655 32.835 23.061H29.0769C27.8049 26.6943 24.3071 29.3262 20.2021 29.3262ZM18.2668 17.4195H21.8861C22.3133 17.4195 22.6598 17.7673 22.66 18.1964L22.6615 21.8035C22.6617 22.2326 22.3154 22.5804 21.8882 22.5804H18.2689C17.8417 22.5804 17.4952 22.2326 17.495 21.8035L17.4935 18.1964C17.4933 17.7673 17.8395 17.4195 18.2668 17.4195Z" fill="#4C63ED"/>
</svg>
