<svg width="40" height="40" viewBox="0 0 40 40" fill="none" xmlns="http://www.w3.org/2000/svg">
<path d="M17.5454 31.9897C17.5878 31.988 17.6301 31.9861 17.6725 31.9839C17.8177 31.9765 17.9122 31.8239 17.8566 31.6854L15.1681 24.9922C15.0804 24.7737 15.3478 24.5897 15.5097 24.7567L21.5181 30.9527C21.5793 31.0158 21.6719 31.0333 21.7513 30.9973C22.2095 30.7907 22.6522 30.5543 23.0774 30.2908C23.1937 30.2188 23.2126 30.0525 23.1167 29.9536L16.7937 23.4332C16.6317 23.2661 16.8102 22.9903 17.022 23.0808L26.3102 27.0482C26.4003 27.0866 26.5043 27.0559 26.5611 26.974C26.8403 26.5715 27.0959 26.1508 27.326 25.7136C27.3851 25.601 27.3363 25.4604 27.2218 25.4114L17.7167 21.3514C17.5049 21.2609 17.5678 20.936 17.7968 20.936H28.4969C28.6076 20.936 28.6994 20.8472 28.7061 20.7332C28.7203 20.4908 28.7275 20.2463 28.7275 20C28.7275 19.7538 28.7203 19.5095 28.7061 19.2668C28.6994 19.1528 28.6076 19.064 28.4969 19.064H17.7968C17.5675 19.064 17.5049 18.7388 17.7167 18.6486L27.2218 14.5886C27.3365 14.5396 27.3854 14.399 27.326 14.2864C27.0959 13.8492 26.8403 13.4282 26.5611 13.026C26.5043 12.9441 26.4003 12.9132 26.3102 12.9518L17.022 16.9192C16.8102 17.0097 16.6317 16.7339 16.7937 16.5669L23.1167 10.0462C23.2126 9.94732 23.1937 9.78101 23.0774 9.70901C22.6522 9.44549 22.2095 9.20933 21.7513 9.00246C21.6719 8.9667 21.5795 8.98398 21.5181 9.0471L15.51 15.2431C15.348 15.4101 15.0806 15.226 15.1683 15.0076L17.8568 8.31439C17.9124 8.17592 17.8177 8.02328 17.6727 8.01584C17.6304 8.01368 17.588 8.01176 17.5456 8.01008V8H16.1581C16.0734 8 15.9971 8.05256 15.9647 8.13344L13.4913 14.2912C13.4036 14.5096 13.0885 14.4448 13.0885 14.2087V8.21624C13.0885 8.09696 12.9947 8.00024 12.879 8.00024H11.4824C11.3667 8.00024 11.2729 8.09696 11.2729 8.21624V31.7838C11.2729 31.9031 11.3667 31.9998 11.4824 31.9998H12.8788C12.9944 31.9998 13.0882 31.9031 13.0882 31.7838V25.7913C13.0882 25.5549 13.4036 25.4904 13.4911 25.7088L15.9645 31.8666C15.9968 31.9472 16.0732 32 16.1579 32H17.5454V31.9897Z" fill="#FF5900"/>
</svg>
