<svg width="40" height="40" viewBox="0 0 40 40" fill="none" xmlns="http://www.w3.org/2000/svg">
<g clip-path="url(#clip0_5896_161)">
<path d="M40 0H0V40H40V0Z" fill="#FE815F"/>
<path opacity="0.8" fill-rule="evenodd" clip-rule="evenodd" d="M30.7419 24.9019C30.7419 28.9701 27.3945 32.268 23.2653 32.268H9.14285V27.3573H23.2653C24.6417 27.3573 25.7575 26.258 25.7575 24.9019C25.7575 23.5458 24.6417 22.4465 23.2653 22.4465H18.2809V17.5358H23.2653C24.6417 17.5358 25.7575 16.4365 25.7575 15.0804C25.7575 13.7244 24.6417 12.6251 23.2653 12.6251H9.14285V7.71436H23.2653C27.3945 7.71436 30.7419 11.0123 30.7419 15.0804C30.7419 16.967 30.022 18.688 28.8381 19.9912C30.022 21.2944 30.7419 23.0153 30.7419 24.9019Z" fill="white"/>
<path opacity="0.12" d="M9.14285 27.3573H21.2726C18.6961 30.3392 14.5939 32.268 9.97358 32.268C9.69471 32.268 9.41773 32.261 9.14285 32.2471V27.3573ZM23.8135 22.4465H19.1116V17.5358H23.8135C23.9988 18.3292 24.096 19.1503 24.096 19.9912C24.096 20.8321 23.9988 21.6532 23.8135 22.4465ZM21.2726 12.6251H9.14285V7.73524C9.41773 7.72138 9.69471 7.71436 9.97358 7.71436C14.5939 7.71436 18.6961 9.64318 21.2726 12.6251Z" fill="black"/>
<path d="M9.14285 7.71436C16.0249 7.71436 21.6038 13.2109 21.6038 19.9912C21.6038 26.7715 16.0249 32.268 9.14285 32.268V27.3573C13.2721 27.3573 16.6194 24.0594 16.6194 19.9912C16.6194 15.923 13.2721 12.6251 9.14285 12.6251V7.71436Z" fill="white"/>
</g>
<defs>
<clipPath id="clip0_5896_161">
<rect width="40" height="40" fill="white"/>
</clipPath>
</defs>
</svg>
