<svg width="40" height="40" viewBox="0 0 40 40" fill="none" xmlns="http://www.w3.org/2000/svg">
<rect width="40" height="40" fill="#111212"/>
<path fill-rule="evenodd" clip-rule="evenodd" d="M7.0523 9H16.8843C24.535 8.99974 28.5269 9.42992 31.4232 14.1992C32.3685 15.7556 33.3343 18.3685 32.8876 21.1661C32.0988 26.1065 29.7389 29.1534 25.3566 30.4726C23.2622 31.1031 20.445 30.9925 17.7211 30.9925H7V27.925H9.30112V12.0155H7.0523V9ZM12.9097 12.0155V27.925H15.1062V12.0155H12.9097ZM18.7148 12.0155V27.925C22.9473 27.9749 25.8524 27.62 27.6055 25.2734C28.1988 24.4792 28.6412 23.457 28.9129 22.3619C30.1296 17.4581 27.6361 13.5001 24.2061 12.4315C22.7059 11.9641 20.6733 12.0019 18.7148 12.0155Z" fill="#5AF0C4"/>
</svg>
