<svg width="40" height="40" viewBox="0 0 40 40" fill="none" xmlns="http://www.w3.org/2000/svg">
<g clip-path="url(#clip0_6622_16)">
<path d="M40 0H0V40H40V0Z" fill="#101010"/>
<path d="M7.46326 27.2406L11.6403 24.8271L15.8175 27.2406L11.6403 29.654L7.46326 27.2406Z" fill="#49FF87"/>
<path d="M11.6406 10.3701L15.8177 12.7604V27.2409L11.6406 24.8274V10.3701Z" fill="#33B05D"/>
<path d="M11.6403 10.3701L7.46326 12.7604V27.2407L11.6403 24.8273V10.3701Z" fill="#41E278"/>
<path d="M19.9945 5.5249L19.996 10.3491L15.8173 12.7598L15.8159 7.93562L19.9945 5.5249Z" fill="#49FF87"/>
<path d="M32.5168 17.5773L32.5353 12.7647L19.9948 5.52441L19.996 10.3484L32.5168 17.5773Z" fill="#41E278"/>
<path d="M32.5158 17.5776L28.3573 20L15.8168 12.7597L15.8174 12.7587L19.9956 10.3491L32.5158 17.5776Z" fill="#33B05D"/>
<path d="M28.3581 20.0005L28.3566 24.8247L32.5352 27.2354L32.5368 22.4113L28.3581 20.0005Z" fill="#49FF87"/>
<path d="M15.8359 32.0534L19.9945 34.4757L32.535 27.2354L28.3566 24.8247L15.8359 32.0534Z" fill="#33B05D"/>
<path d="M15.8366 32.0531L15.8181 27.2405L28.3581 20.0005L28.3566 24.8243L15.8366 32.0531Z" fill="#41E278"/>
</g>
<defs>
<clipPath id="clip0_6622_16">
<rect width="40" height="40" fill="white"/>
</clipPath>
</defs>
</svg>
