<svg width="40" height="40" viewBox="0 0 40 40" fill="none" xmlns="http://www.w3.org/2000/svg">
<rect width="40" height="40" fill="#F24C9E"/>
<path d="M28.9974 21.3369C27.9956 21.6996 27.2508 22.509 26.7118 23.3813C25.806 24.8461 25.4778 26.4882 25.4778 26.4882V21.3369L21.7545 25.0304C23.1611 25.0304 24.3022 26.1616 24.3022 27.5571C24.3022 28.3699 23.8965 29.1478 23.2287 29.6184C21.892 30.5607 19.9074 29.9746 18.6935 29.0953C16.669 27.6293 15.9794 24.8088 17.1263 22.586C17.5919 21.6826 18.3279 20.9258 19.2202 20.4301V24.5808C19.9009 22.5731 21.6304 20.9759 23.8589 20.2161C24.3187 20.0599 24.8001 19.9391 25.2974 19.8575C25.6296 19.8033 25.9658 19.7759 26.3021 19.7759H30.226L32.4315 17.588H29.6646L32.5603 14.7156C30.5446 11.1726 26.7141 8.78059 22.3206 8.78059C22.0525 8.78059 21.7867 8.78934 21.5235 8.80742C21.5235 8.80742 14.0542 5.2364 7 13.1143C7.04644 13.1003 9.27498 12.4228 11.9897 13.1143C11.9897 13.1143 13.4117 11.1387 16.5155 10.2996C12.9643 12.305 10.5694 16.0935 10.5694 20.4365C10.5694 23.5003 11.8104 26.4835 13.9884 28.6562C17.3773 32.0359 23.7931 33.6594 27.3332 29.6078C28.6917 28.0527 30.3911 24.8974 32.9959 25.3155C32.9971 25.3127 32.9988 25.3097 33 25.3061L28.998 21.3363L28.9974 21.3369ZM28.1949 12.7528C29.0379 12.6694 29.741 13.3662 29.6575 14.2024C29.5958 14.8211 29.0919 15.3209 28.4683 15.3827C27.6254 15.4661 26.9222 14.7698 27.0057 13.9342C27.0668 13.3155 27.5713 12.8146 28.1949 12.7534V12.7528ZM15.5944 14.3785H22.8643L22.3123 14.4841C19.098 15.0981 16.5026 17.4487 15.5944 20.569V14.3785Z" fill="white"/>
</svg>
