<svg width="40" height="40" viewBox="0 0 40 40" fill="none" xmlns="http://www.w3.org/2000/svg">
<rect width="40" height="40" fill="white"/>
<g clip-path="url(#clip0_5856_4709)">
<path d="M11 11.0732L13.0925 9H29.0007V13.3133L26.8417 15.4864H19.3694V16.7568H27.0743V21.0701L24.9153 23.2432H19.3694V24.5136H29.0007V28.8269L27.0118 30.9041L26.8404 30.9987L11.0007 31V11.0732H11ZM28.3362 9.6687H13.3576C12.9643 10.1496 12.3283 10.5916 11.9622 11.0725C11.911 11.1396 11.8339 11.157 11.8632 11.2737H26.7414V14.6172L28.3355 13.0457V9.6687H28.3362ZM18.7049 15.4194H17.1108V19.0305H24.8156V22.374L26.4098 20.8025V17.4255H18.7049V15.4194ZM18.7049 23.1762H17.1108V26.7873H26.742V30.1308L28.3362 28.5593V25.1823H18.7049V23.1762Z" fill="black"/>
</g>
<defs>
<clipPath id="clip0_5856_4709">
<rect width="18" height="22" fill="white" transform="translate(11 9)"/>
</clipPath>
</defs>
</svg>
