<svg width="40" height="40" viewBox="0 0 40 40" fill="none" xmlns="http://www.w3.org/2000/svg">
<rect width="40" height="40" fill="#222225"/>
<path d="M32.9871 21.6205L32.0038 17.7834C31.9756 17.6705 31.8848 17.5827 31.772 17.5545L27.9733 16.6172C27.9452 16.611 27.9139 16.6078 27.8857 16.6078C27.7948 16.5984 27.7009 16.6266 27.632 16.6956L21.2215 23.1126L20.3729 19.796C20.3447 19.6831 20.2539 19.5953 20.1412 19.5671L16.878 18.7614L23.2853 12.3475C23.3229 12.3099 23.3448 12.2629 23.3605 12.2159C23.3886 12.1532 23.398 12.0811 23.3793 12.0121L22.3959 8.17501C22.3677 8.06216 22.2769 7.97438 22.1641 7.94616L18.3655 7.00884C18.2903 6.99003 18.2152 7.00257 18.1494 7.03392H18.1463C18.1275 7.04332 18.1119 7.05586 18.093 7.0684C18.0774 7.08094 18.0554 7.08721 18.0429 7.10288L7.10728 18.0436C7.10728 18.0436 7.08849 18.0749 7.07596 18.0906C7.00707 18.1721 6.98201 18.2787 7.01333 18.3822L8.07496 22.0907C8.10627 22.1972 8.1877 22.2788 8.29104 22.307L11.8486 23.3289L12.8695 26.887C12.9008 26.9936 12.9822 27.0751 13.0856 27.1033L16.6556 28.1285L17.6797 31.7022C17.711 31.8088 17.7924 31.8903 17.8958 31.9185L21.6161 32.9875C21.6443 32.9969 21.6756 33 21.7038 33C21.7101 33 21.7164 32.9969 21.7258 32.9969C21.7258 32.9969 21.7289 32.9969 21.732 32.9969C21.8134 32.9969 21.8948 32.9655 21.9575 32.9028L32.8963 21.9527C32.9338 21.9151 32.9558 21.8681 32.9714 21.8211C32.9996 21.7584 33.0091 21.6863 32.9902 21.6173L32.9871 21.6205ZM28.083 25.8745L27.2844 22.7553L29.0538 20.9872L32.0945 21.8618L28.0861 25.8776L28.083 25.8745ZM21.8792 32.0846L21.0806 28.9654L24.2812 25.7616L27.3219 26.6362L21.8792 32.0846ZM24.3469 24.7992L23.5828 22.1346L26.3292 22.8117L24.3469 24.7961V24.7992ZM26.7645 23.2757L27.466 26.0124L24.7947 25.2444L26.7645 23.2725V23.2757ZM26.8553 22.2882L23.7425 21.5201L27.7416 17.5169L28.6059 20.5358L26.8553 22.2882ZM22.969 22.2913L23.8333 25.3102L20.6485 28.4983L17.5356 27.7303L22.969 22.2913ZM31.437 18.1188L32.2355 21.238L29.2166 20.3696L28.3523 17.357L31.437 18.1188ZM17.0659 27.2664L16.2673 24.1472L17.4197 22.9935L20.4606 23.8682L17.0659 27.2664ZM17.4855 22.0311L16.7214 19.3665L19.4679 20.0436L17.4855 22.028V22.0311ZM20.6046 23.2474L17.9334 22.4794L19.9031 20.5076L20.6046 23.2443V23.2474ZM16.975 22.5452L15.8382 23.6832L12.7254 22.9152L16.1107 19.5264L16.975 22.5452ZM13.3925 12.6485L14.2568 15.6673L11.0437 18.8837L7.9309 18.1157L13.3925 12.6485ZM18.1369 7.89914L19.0012 10.918L17.2788 12.6422L14.166 11.8742L18.1369 7.89914ZM18.5064 16.2285L17.7079 13.1124L19.449 11.3694L22.4899 12.2409L18.5064 16.2285ZM14.7704 15.1563L14.0063 12.4917L16.7527 13.1689L14.7704 15.1532V15.1563ZM17.188 13.6328L17.8895 16.3696L15.2214 15.6015L17.1911 13.6297L17.188 13.6328ZM14.7077 16.1156L17.7486 16.9871L12.2776 22.4638L11.479 19.3477L14.7077 16.1156ZM21.8322 8.5073L22.6308 11.6265L19.6119 10.7581L18.7475 7.74553L21.8322 8.5073ZM7.77432 18.7332L10.5208 19.4104L8.53843 21.3948L7.77432 18.7301V18.7332ZM8.98626 21.8462L10.9561 19.8743L11.6575 22.6111L8.98939 21.843L8.98626 21.8462ZM13.43 26.5454L12.5657 23.5327L15.6504 24.2945L16.4489 27.4137L13.43 26.5454ZM17.379 28.3479L20.1254 29.025L18.1432 31.0093L17.379 28.3448V28.3479ZM18.591 31.4608L20.5607 29.489L21.2622 32.2257L18.591 31.4576V31.4608Z" fill="#655EA8"/>
</svg>
