<svg width="40" height="40" viewBox="0 0 40 40" fill="none" xmlns="http://www.w3.org/2000/svg">
<path d="M20.2993 8.21582C26.8075 8.21582 32.0835 13.4918 32.0835 20L32.0796 20.3047C31.9181 26.6721 26.7057 31.7842 20.2993 31.7842L19.9946 31.7803C13.6272 31.6188 8.51514 26.4064 8.51514 20L8.51904 19.6953C8.67796 13.429 13.7284 8.37865 19.9946 8.21973L20.2993 8.21582Z" fill="#111111" stroke="#111111" stroke-width="0.431401"/>
<path d="M20.2995 8H20.2991C13.6718 8 8.29932 13.3725 8.29932 19.9998V20.0002C8.29932 26.6275 13.6718 32 20.2991 32H20.2995C26.9268 32 32.2993 26.6275 32.2993 20.0002V19.9998C32.2993 13.3725 26.9268 8 20.2995 8Z" fill="url(#paint0_radial_10724_31695)" fill-opacity="0.7"/>
<path d="M20.2993 8.21875C26.806 8.21875 32.0806 13.4933 32.0806 20L32.0767 20.3047C31.9152 26.6706 26.7042 31.7812 20.2993 31.7812L19.9946 31.7773C13.6287 31.6159 8.51807 26.4049 8.51807 20L8.52197 19.6953C8.6809 13.4306 13.7299 8.38158 19.9946 8.22266L20.2993 8.21875Z" stroke="url(#paint1_linear_10724_31695)" stroke-width="0.436862"/>
<path d="M25.9287 18.1689H24.8291V15.5225H18.3799L21.9209 19.6172L22.2324 19.9775L21.9209 20.3369L18.3408 24.4766H24.8291V21.8311H25.9287V25.5771H17.4189L17.2549 25.3838L12.9746 20.3564L12.6709 20L12.9746 19.6436L17.2549 14.6162L17.4189 14.4229H25.9287V18.1689ZM14.1152 19.999L17.4102 23.8691L20.7773 19.9766L17.4297 16.1064L14.1152 19.999Z" fill="white"/>
<defs>
<radialGradient id="paint0_radial_10724_31695" cx="0" cy="0" r="1" gradientUnits="userSpaceOnUse" gradientTransform="translate(20.3251 11.5043) rotate(90) scale(25.3012 17.8095)">
<stop offset="0.03125" stop-color="#3A3A3A"/>
<stop offset="1" stop-color="#1C1C1C"/>
</radialGradient>
<linearGradient id="paint1_linear_10724_31695" x1="20.2993" y1="7.77358" x2="20.2993" y2="32.2264" gradientUnits="userSpaceOnUse">
<stop stop-color="white"/>
<stop offset="1" stop-color="#111111"/>
</linearGradient>
</defs>
</svg>
