<svg width="40" height="40" viewBox="0 0 40 40" fill="none" xmlns="http://www.w3.org/2000/svg">
<rect width="40" height="40" fill="url(#paint0_linear_5065_20)"/>
<path d="M20.3199 28.4762C21.8583 28.034 23.4549 27.5777 24.9806 27.0781C25.6254 26.8669 26.2242 26.6968 26.6997 26.1753C27.6755 25.1053 27.1135 23.3394 25.7763 22.9142C25.0082 22.6704 24.2315 23.007 23.5109 23.2692C22.1078 23.7801 20.6615 24.4491 19.2577 25.0039C18.6185 25.2569 17.2601 26.1073 16.7059 25.3944C16.1518 24.6815 17.3224 23.2465 17.6271 22.5578C18.1898 22.4904 18.7638 22.5273 19.3285 22.523C20.315 22.5159 22.3317 22.9071 22.0872 21.358C21.9512 20.4964 20.9506 20.6253 20.3206 20.6097C18.0799 20.5552 15.8258 20.6239 13.5844 20.6409C12.907 20.7833 12.5597 21.5954 12.9878 22.1666C13.0359 22.2311 13.4477 22.5223 13.4824 22.5223L15.5728 22.5223C15.1363 23.6434 14.4773 24.7127 14.0011 25.8047C13.6177 26.6841 13.2847 27.5415 13.6687 28.501C13.9614 29.2316 14.6261 29.6185 15.3964 29.678C16.3651 29.7524 19.2173 28.7923 20.3206 28.4748L20.3199 28.4762Z" fill="#FEFEFE"/>
<path d="M20.3908 19.4769C20.9995 19.4592 21.9562 19.5563 22.0865 18.7286C22.3268 17.2072 20.4361 17.5721 19.4696 17.5636C18.8573 17.5586 18.2366 17.5969 17.6264 17.5289C17.3217 16.8408 16.1397 15.4193 16.7052 14.6922C17.2707 13.9652 18.7439 14.8935 19.3987 15.1536C20.9315 15.7623 22.6534 16.5623 24.1997 17.0491C25.1485 17.3482 25.9585 17.3971 26.6629 16.5715C27.5345 15.5504 27.3219 14.1998 26.1952 13.4947C23.9446 12.6408 21.5799 11.9895 19.257 11.327C18.289 11.0513 16.375 10.3448 15.463 10.4036C13.8643 10.5064 13.1968 11.9697 13.6787 13.3976L15.5721 17.5629L13.5525 17.5629C13.4824 17.5629 13.1656 17.7401 13.0912 17.8102C12.5158 18.3601 12.8517 19.2664 13.5837 19.4443C15.8471 19.4528 18.1281 19.5421 20.3908 19.4755L20.3908 19.4769Z" fill="#FEFEFE"/>
<defs>
<linearGradient id="paint0_linear_5065_20" x1="40" y1="20" x2="0" y2="20" gradientUnits="userSpaceOnUse">
<stop stop-color="#B696FE"/>
<stop offset="1" stop-color="#784DF6"/>
</linearGradient>
</defs>
</svg>
