<svg width="40" height="40" viewBox="0 0 40 40" fill="none" xmlns="http://www.w3.org/2000/svg">
<rect width="40" height="40" fill="white"/>
<g clip-path="url(#clip0_5856_4720)">
<path d="M33 19.9156C32.715 13.1632 27.515 7.68833 20.9012 7.00673C20.1337 6.92721 19.5064 7.56335 19.5064 8.33842V12.0804C19.5064 12.8555 20.1379 13.4692 20.8946 13.6222C23.4915 14.1483 25.5669 16.1205 26.2514 18.6665C26.5283 18.5714 26.8434 18.5134 27.2077 18.512C28.4649 18.5179 29.143 19.2156 29.6715 19.7797C30.1657 20.3002 30.5601 20.709 31.3867 20.7211C32.1565 20.7223 32.5507 20.3733 33 19.9156Z" fill="#366FFF"/>
<path d="M13.5328 8.33043C14.3848 7.90804 15.3147 8.58067 15.3147 9.53489V18.5489C14.0567 18.5578 13.3857 19.2418 12.8554 19.7981L12.8443 19.8095C12.3491 20.3182 11.9558 20.7223 11.1275 20.7211C10.3008 20.7089 9.90648 20.3002 9.41224 19.7796C8.88384 19.2155 8.20561 18.5179 6.94855 18.5119C6.6426 18.5131 6.37127 18.5542 6.12817 18.6237C6.75206 14.0947 9.60203 10.2803 13.5328 8.33043Z" fill="#366FFF"/>
<path d="M20.9011 33.9933C20.1337 34.0723 19.5064 33.4366 19.5064 32.6616V28.9195C19.5064 28.1449 20.1379 27.5307 20.8946 27.3778C24.0876 26.7309 26.4922 23.8977 26.4922 20.5C26.4922 20.4691 26.4919 20.4382 26.4916 20.4075C26.6944 20.3253 26.9266 20.2784 27.2095 20.2788C28.0362 20.291 28.4305 20.6998 28.9248 21.2203C29.4532 21.7844 30.1314 22.482 31.3884 22.488C32.035 22.4854 32.527 22.3048 32.9245 22.0543C32.2089 28.3549 27.1951 33.3445 20.9011 33.9933Z" fill="#004FA5"/>
<path d="M6 20.5232C6.00891 25.8513 9.07619 30.4588 13.5327 32.6695C14.3847 33.0918 15.3147 32.4192 15.3147 31.465V20.3158C14.4949 20.3186 14.103 20.7212 13.6104 21.2274L13.5993 21.2388C13.0675 21.7966 12.3942 22.483 11.1292 22.488C9.87218 22.482 9.19395 21.7844 8.66553 21.2203C8.1713 20.6998 7.77698 20.291 6.95029 20.2788C6.55331 20.2782 6.25624 20.3707 6 20.5232Z" fill="#004FA5"/>
</g>
<defs>
<clipPath id="clip0_5856_4720">
<rect width="27" height="27" fill="white" transform="translate(6 7)"/>
</clipPath>
</defs>
</svg>
