<svg width="40" height="40" viewBox="0 0 40 40" fill="none" xmlns="http://www.w3.org/2000/svg">
<rect width="40" height="40" fill="black"/>
<g clip-path="url(#clip0_6522_43)">
<path fill-rule="evenodd" clip-rule="evenodd" d="M14.1489 13.5982C14.0893 13.5089 14.025 13.4239 14.0159 13.4105C14.0067 13.4016 13.8736 13.4776 13.7221 13.5804C13.5707 13.6832 13.2862 13.8888 13.0934 14.0363C12.9007 14.1882 12.5198 14.5234 12.2536 14.7827C11.9875 15.0419 11.6571 15.386 11.5194 15.5514C11.3817 15.7168 11.1614 15.9983 11.0284 16.1771C10.8953 16.3559 10.7897 16.5079 10.7897 16.5168C10.7897 16.5257 10.8723 16.5838 10.9687 16.6464C11.0697 16.709 11.2257 16.8431 11.3221 16.9459C11.4184 17.0487 11.5515 17.2274 11.6112 17.3437C11.6708 17.4599 11.7534 17.661 11.7856 17.7861C11.8223 17.9292 11.8452 18.1035 11.8452 18.2554C11.8452 18.4074 11.8223 18.5862 11.7856 18.7247C11.7534 18.8499 11.6754 19.0465 11.6204 19.1672C11.5378 19.3281 11.446 19.4443 11.2578 19.6231C11.0605 19.8197 10.9595 19.8912 10.7576 19.9851C10.6199 20.0521 10.4226 20.1237 10.3171 20.1549C10.2069 20.1818 10.0096 20.1996 9.84897 20.1996C9.69753 20.1996 9.49562 20.1862 9.40842 20.1639C9.32123 20.146 9.24322 20.1326 9.24322 20.1371C9.23863 20.1415 9.2065 20.2846 9.17438 20.4589C9.14226 20.6287 9.08719 20.9863 9.05507 21.2544C9.01376 21.5852 8.99541 21.9293 8.99541 22.3405C8.99541 22.7517 9.01376 23.0869 9.05507 23.4221C9.08719 23.6858 9.1239 23.9763 9.14226 24.0702C9.15602 24.1372 9.16979 24.2266 9.18356 24.3026C9.18815 24.3339 9.19733 24.3652 9.19733 24.3875C9.21568 24.4888 9.25698 24.5335 9.32123 24.5216C9.37171 24.5127 9.50938 24.4948 9.61952 24.4769C9.74801 24.459 9.91322 24.4635 10.0692 24.4769C10.2023 24.4903 10.3905 24.535 10.496 24.5708C10.597 24.6065 10.7576 24.678 10.854 24.7317C10.9504 24.7853 11.1293 24.9283 11.2532 25.0445C11.423 25.2099 11.5056 25.3172 11.6066 25.5138C11.68 25.6568 11.7626 25.8669 11.7902 25.9965C11.8269 26.1664 11.836 26.296 11.8269 26.506C11.8131 26.7161 11.7902 26.8547 11.7259 27.0334C11.68 27.1675 11.5836 27.3642 11.5056 27.4759C11.4322 27.5877 11.2991 27.7396 11.2119 27.8201C11.1247 27.9005 10.9962 27.9988 10.9228 28.0435C10.8953 28.0614 10.8677 28.0793 10.8448 28.0927C10.8081 28.1151 10.7806 28.1329 10.776 28.1374C10.7668 28.1374 10.7989 28.2 10.8448 28.267C10.8907 28.3296 10.9825 28.4592 11.0605 28.5665L11.0788 28.5888C11.1614 28.7006 11.3312 28.9151 11.4597 29.0715C11.5882 29.2279 11.8865 29.5453 12.1206 29.7777C12.3546 30.0101 12.7034 30.3274 12.9007 30.4883C13.0934 30.6448 13.4055 30.8816 13.5891 31.0068C13.7726 31.1319 13.9378 31.2437 13.9562 31.2481C13.9745 31.2481 14.0434 31.1811 14.1076 31.0872C14.1719 30.9934 14.3096 30.8414 14.4105 30.7476C14.5252 30.6448 14.6996 30.5286 14.8465 30.457C14.9796 30.39 15.1769 30.314 15.2824 30.2872C15.4017 30.2604 15.5853 30.238 15.7643 30.238C15.9433 30.238 16.1314 30.2559 16.2461 30.2872C16.3517 30.314 16.549 30.39 16.6867 30.457C16.884 30.5464 16.985 30.6269 17.1731 30.8057C17.3659 30.9934 17.4347 31.0872 17.5494 31.3062C17.6229 31.4537 17.7055 31.6638 17.7284 31.7755C17.7514 31.8873 17.7743 32.0705 17.7743 32.1867C17.7743 32.3029 17.7559 32.4817 17.7376 32.58C17.7146 32.6962 17.7101 32.7633 17.733 32.7722C17.7514 32.7767 17.8661 32.799 17.9992 32.8214C18.1277 32.8437 18.3388 32.875 18.4672 32.8929C18.5957 32.9108 18.9032 32.9421 19.1418 32.9689C19.3851 32.9912 19.766 33.0136 19.9908 33.0136C20.2157 33.0136 20.6516 32.9868 20.9591 32.9555C21.262 32.9242 21.6704 32.875 21.854 32.8437C22.0375 32.8125 22.2028 32.7812 22.2211 32.7767C22.2395 32.7678 22.2349 32.6962 22.2119 32.5711C22.1844 32.4504 22.1752 32.2672 22.1844 32.0929C22.1936 31.8783 22.2211 31.7487 22.2854 31.5655C22.3312 31.4314 22.4276 31.2347 22.5056 31.123C22.5791 31.0113 22.7259 30.8459 22.8269 30.752C22.9324 30.6582 23.1068 30.5375 23.2215 30.4749C23.3317 30.4168 23.5106 30.3453 23.6162 30.314C23.7217 30.2827 23.9145 30.247 24.043 30.238C24.2036 30.2246 24.355 30.2336 24.5111 30.2604C24.6395 30.2827 24.8231 30.3319 24.9241 30.3677C25.0204 30.4034 25.1902 30.4928 25.305 30.5688C25.4197 30.6403 25.5803 30.7744 25.6675 30.8682C25.7547 30.9621 25.8556 31.0917 25.8924 31.1543C25.9383 31.2347 25.9796 31.2705 26.0025 31.2571C26.0163 31.2481 26.1493 31.1632 26.3054 31.056C26.3283 31.0425 26.3513 31.0247 26.3742 31.0113C26.5578 30.8816 26.8698 30.6492 27.0626 30.4928C27.2599 30.3319 27.6087 30.0146 27.8473 29.7822C28.0813 29.5497 28.4026 29.2011 28.5678 29.0045C28.7284 28.8078 28.9395 28.5396 29.0359 28.4011C29.1322 28.2625 29.2057 28.1463 29.1965 28.1419C29.1873 28.1419 29.1047 28.0838 29.0083 28.0212C28.9166 27.9586 28.7605 27.829 28.6688 27.7351C28.5678 27.6279 28.4531 27.467 28.3705 27.3105C28.2924 27.1631 28.2098 26.9575 28.1823 26.8278C28.1456 26.658 28.1318 26.5284 28.1456 26.3183C28.1594 26.1038 28.1823 25.9742 28.2466 25.7909C28.2924 25.6568 28.3934 25.4602 28.4714 25.3485C28.5448 25.2367 28.6963 25.0713 28.8064 24.9686C28.9303 24.8568 29.0955 24.7451 29.2424 24.678C29.3709 24.6199 29.5636 24.5484 29.6692 24.5171C29.7793 24.4903 29.9766 24.468 30.1373 24.468C30.2887 24.468 30.4906 24.4814 30.5778 24.5037C30.665 24.5216 30.743 24.535 30.743 24.5305C30.7476 24.5261 30.7797 24.3786 30.8118 24.2087C30.844 24.0389 30.899 23.6813 30.9312 23.4132C30.9725 23.0824 30.9908 22.7383 30.9908 22.3226C30.9908 21.907 30.9725 21.5762 30.9312 21.241C30.899 20.9818 30.844 20.6242 30.8118 20.4544C30.7797 20.2801 30.7522 20.1371 30.743 20.1326C30.743 20.1281 30.665 20.1371 30.5778 20.1594C30.4906 20.1773 30.2887 20.1952 30.1373 20.1952C29.9766 20.1952 29.7793 20.1773 29.6692 20.1505C29.5636 20.1237 29.3709 20.0521 29.2424 19.9896C29.0864 19.9136 28.9349 19.8153 28.7927 19.6812C28.6733 19.5739 28.5219 19.3996 28.4485 19.2879C28.3796 19.1761 28.2879 18.9884 28.242 18.8633C28.1685 18.6577 28.1594 18.5996 28.1594 18.251C28.1594 17.9023 28.1685 17.8442 28.242 17.6386C28.2879 17.5135 28.375 17.3347 28.4347 17.2409C28.4944 17.147 28.6091 16.9995 28.6963 16.9146C28.7789 16.8297 28.9303 16.709 29.0267 16.6464C29.1231 16.5838 29.2057 16.5257 29.2057 16.5079C29.2057 16.4945 29.1001 16.3425 28.967 16.1682C28.834 15.9939 28.6274 15.7257 28.5081 15.5782C28.3842 15.4307 28.1089 15.1357 27.9024 14.9301C27.6959 14.7201 27.3884 14.434 27.2278 14.3C27.0672 14.1614 26.801 13.9603 26.6404 13.8396C26.4798 13.7234 26.2641 13.5714 26.1631 13.5089L25.9796 13.3882C25.8281 13.6429 25.6813 13.8038 25.5665 13.9066C25.4335 14.0273 25.2637 14.1435 25.1306 14.2061C25.0113 14.2642 24.8277 14.3357 24.7221 14.3581C24.6166 14.3849 24.4652 14.4117 24.3826 14.4206L24.2357 14.4385C24.9883 15.1357 25.3371 15.4799 25.4977 15.6587C25.6583 15.833 25.9153 16.128 26.0622 16.3112C26.2136 16.4945 26.4476 16.7984 26.5807 16.995C26.7138 17.1917 26.9203 17.509 27.0305 17.7057C27.1452 17.9023 27.3242 18.2465 27.4251 18.4744C27.5261 18.7024 27.6592 19.0242 27.7234 19.1985C27.7831 19.3728 27.8657 19.6499 27.9161 19.8242C27.962 19.9985 28.0263 20.2846 28.0584 20.4633C28.0905 20.6421 28.1318 20.9639 28.1502 21.174C28.1685 21.4109 28.1777 21.7863 28.1685 22.1528C28.1594 22.4791 28.1318 22.8813 28.1043 23.0467C28.0768 23.2121 28.0263 23.4936 27.985 23.6724C27.9437 23.8512 27.8427 24.1909 27.7601 24.4277C27.6821 24.6602 27.5352 25.0222 27.4389 25.2233C27.3425 25.4244 27.1681 25.7507 27.0534 25.9429C26.9387 26.1351 26.7368 26.4301 26.6083 26.6044C26.4798 26.7742 26.2549 27.0424 26.108 27.2033C25.9612 27.3642 25.7042 27.6145 25.5344 27.762C25.3646 27.9095 25.0939 28.1285 24.9332 28.2491C24.7726 28.3653 24.5065 28.5441 24.3458 28.6424C24.1852 28.7408 23.8869 28.9017 23.685 29C23.4831 29.0983 23.1665 29.2369 22.9829 29.3084C22.7993 29.3799 22.4827 29.4827 22.2808 29.5408C22.0788 29.5944 21.7806 29.666 21.6199 29.6972C21.4593 29.7285 21.1519 29.7732 20.9453 29.8C20.7297 29.8224 20.3166 29.8447 19.9908 29.8447C19.665 29.8447 19.2566 29.8269 19.0363 29.8C18.8298 29.7732 18.4948 29.7241 18.302 29.6883C18.1093 29.6481 17.8248 29.581 17.6733 29.5363C17.5219 29.4916 17.3016 29.4246 17.1915 29.3844C17.0768 29.3442 16.8748 29.2637 16.7372 29.2101C16.5995 29.152 16.3333 29.0313 16.1498 28.933C15.9662 28.8391 15.6587 28.6648 15.4752 28.5486C15.2916 28.4279 15.0071 28.2313 14.8465 28.1061C14.6859 27.981 14.4013 27.7307 14.2132 27.5474C14.0296 27.3686 13.7635 27.0871 13.6304 26.9217C13.4973 26.7563 13.3 26.4971 13.1898 26.3407C13.0797 26.1842 12.9237 25.934 12.8365 25.7865C12.7493 25.639 12.607 25.3619 12.5198 25.1741C12.4326 24.9864 12.2995 24.6467 12.2215 24.4188C12.1435 24.1909 12.0471 23.8601 12.0058 23.6813C11.9645 23.5026 11.9095 23.2076 11.8819 23.0288C11.8406 22.7696 11.8269 22.5327 11.8269 21.907C11.8269 21.2812 11.8406 21.0399 11.8819 20.7851C11.9095 20.6064 11.9599 20.3293 11.9967 20.1728C12.0288 20.0164 12.0976 19.7393 12.1527 19.5605C12.2078 19.3817 12.3133 19.0823 12.3867 18.8946C12.4602 18.7068 12.607 18.385 12.708 18.1839C12.8089 17.9828 12.9925 17.6565 13.1118 17.4599C13.2311 17.2632 13.4422 16.9548 13.5753 16.7716C13.7084 16.5883 13.9654 16.2665 14.1443 16.0609C14.3187 15.8553 14.7547 15.4039 15.1035 15.0642L15.7413 14.4474C15.5257 14.4206 15.3834 14.3983 15.287 14.3715C15.1907 14.3491 15.0071 14.2821 14.8786 14.2195C14.7363 14.1525 14.5665 14.0407 14.4518 13.9379C14.3463 13.8485 14.2086 13.6966 14.1443 13.6027L14.1489 13.5982Z" fill="white"/>
<path d="M16.8748 11.3233C16.8748 11.3233 16.907 11.3457 16.907 11.3591C16.907 11.3725 16.8886 11.5021 16.8657 11.6407C16.8381 11.8105 16.8289 12.0295 16.8427 12.2932C16.8473 12.5122 16.8794 12.7938 16.907 12.9189C16.9345 13.0441 16.9896 13.2542 17.0309 13.3882C17.0676 13.5223 17.1502 13.7413 17.2053 13.8843C17.2603 14.0229 17.3888 14.2955 17.4806 14.4833C17.5724 14.671 17.7468 14.9838 17.8615 15.1805C17.9762 15.3771 18.3525 15.9716 18.6967 16.5035C19.0409 17.0353 19.408 17.6163 19.509 17.7951C19.6145 17.9739 19.7751 18.2599 19.8623 18.4343C19.9541 18.6041 20.0872 18.8991 20.1652 19.0868C20.2432 19.2745 20.3396 19.574 20.3901 19.7527C20.4405 19.9315 20.491 20.231 20.5094 20.4187C20.5369 20.6779 20.5369 20.8388 20.5094 21.0846C20.491 21.2634 20.4405 21.5316 20.3992 21.6836C20.3534 21.8534 20.2478 22.1037 20.1193 22.3495C19.9862 22.6087 19.8302 22.8546 19.6742 23.0601C19.5411 23.23 19.2703 23.525 19.0776 23.7172C18.8849 23.9049 18.4948 24.258 18.2103 24.5038C17.9303 24.7451 17.5724 25.0714 17.4164 25.2278C17.2649 25.3798 17.0676 25.6077 16.9804 25.7239C16.8932 25.8402 16.7739 26.0368 16.7096 26.1575C16.65 26.2782 16.5628 26.4838 16.5261 26.6134C16.4894 26.743 16.4389 26.9754 16.4251 27.1318C16.4068 27.324 16.4068 27.5207 16.4251 27.7307C16.4389 27.9006 16.4435 28.0525 16.4297 28.0615C16.4159 28.0749 16.292 28.0123 16.1452 27.9229C16.0029 27.8335 15.7551 27.6726 15.6037 27.5609C15.4522 27.4492 15.1769 27.2167 14.9887 27.0469C14.8052 26.8771 14.5482 26.6134 14.4243 26.4659C14.2958 26.3184 14.0847 26.0413 13.9562 25.8536C13.8277 25.6658 13.6258 25.3172 13.5065 25.0848C13.3871 24.8479 13.2403 24.5306 13.1852 24.3742C13.1256 24.2177 13.0338 23.9228 12.9787 23.7216C12.9237 23.5205 12.8548 23.2032 12.8273 23.0244C12.7814 22.7562 12.7722 22.5417 12.7768 21.8579C12.7768 21.1428 12.786 20.9595 12.841 20.6198C12.8778 20.4008 12.942 20.0701 12.9925 19.8824C13.043 19.6946 13.121 19.4265 13.1715 19.2835C13.2265 19.1449 13.3229 18.8991 13.3963 18.7427C13.4652 18.5862 13.5982 18.3315 13.6854 18.175C13.7772 18.0186 13.9837 17.6834 14.1443 17.4286C14.3095 17.1739 14.4564 16.9727 14.4748 16.9817C14.4931 16.9862 14.5023 16.9996 14.4977 17.0174C14.4931 17.0353 14.4289 17.2096 14.3554 17.4108C14.282 17.6119 14.1902 17.9203 14.1489 18.0946C14.0939 18.3181 14.0709 18.5236 14.0572 18.8052C14.048 19.0332 14.0572 19.27 14.0709 19.3594C14.0893 19.4444 14.1306 19.5918 14.1673 19.6857C14.204 19.7796 14.2866 19.9181 14.3463 19.9896C14.4243 20.088 14.5161 20.155 14.6537 20.2176C14.8281 20.298 14.8786 20.3114 15.0897 20.307C15.2503 20.307 15.3788 20.2801 15.4981 20.2399C15.5945 20.2042 15.7551 20.1282 15.8515 20.0701C15.9478 20.012 16.1176 19.8824 16.2232 19.7796C16.3333 19.6768 16.4939 19.4801 16.5903 19.3371C16.6821 19.1985 16.806 18.9751 16.8611 18.841C16.9161 18.7069 16.9942 18.4834 17.0263 18.3449C17.063 18.2063 17.1135 17.9337 17.1272 17.746C17.1456 17.5493 17.1548 17.2856 17.141 17.1202C17.1318 16.9638 17.1043 16.709 17.0813 16.5526C17.0584 16.3962 16.9942 16.1101 16.9391 15.9135C16.8886 15.7168 16.7647 15.3235 16.6729 15.033C16.5811 14.7425 16.4756 14.3581 16.4343 14.1793C16.3792 13.9246 16.3563 13.7413 16.3425 13.357C16.3287 12.977 16.3379 12.7983 16.37 12.6016C16.3976 12.4631 16.4572 12.2217 16.5077 12.0742C16.5582 11.9267 16.6546 11.6898 16.7188 11.5558C16.7876 11.4172 16.8519 11.3099 16.8703 11.3189L16.8748 11.3233Z" fill="#FF4C00"/>
<path d="M22.7489 7.94874C22.7489 7.94874 22.7305 7.99791 22.703 8.0426C22.6708 8.0873 22.5836 8.24373 22.5148 8.39122C22.4414 8.53871 22.3542 8.76218 22.3221 8.88733C22.2899 9.01247 22.2532 9.20466 22.2441 9.31193C22.2349 9.4192 22.2395 9.62032 22.2578 9.7544C22.2762 9.88849 22.3267 10.1164 22.3771 10.2639C22.4276 10.4114 22.5423 10.6796 22.6341 10.8628C22.7259 11.0416 22.9462 11.4215 23.116 11.7031C23.2858 11.9847 23.4923 12.3467 23.5749 12.5121C23.6529 12.6774 23.7493 12.8875 23.7768 12.9814C23.8089 13.0752 23.8548 13.2495 23.8824 13.3747C23.9099 13.4953 23.9282 13.7143 23.9282 13.8618C23.9282 14.0093 23.9191 14.13 23.9099 14.13C23.8961 14.13 23.451 13.7143 22.9141 13.2004C22.2991 12.6104 21.8632 12.1679 21.7301 11.9981C21.6108 11.8506 21.4639 11.645 21.4043 11.5422C21.3446 11.4394 21.2574 11.2606 21.2115 11.1444C21.1564 10.9969 21.1289 10.8494 21.1197 10.6617C21.106 10.4427 21.1197 10.3444 21.1656 10.1522C21.2023 10.0181 21.2803 9.80804 21.34 9.68289C21.4043 9.55775 21.519 9.36109 21.597 9.24042C21.675 9.12421 21.8448 8.90074 21.9733 8.74431C22.1018 8.58788 22.3267 8.34206 22.4689 8.19456C22.6112 8.05154 22.7351 7.9398 22.7397 7.94874H22.7489Z" fill="#FF4C00"/>
<path d="M20.3121 6C20.335 6 20.3534 6.01341 20.3534 6.02682C20.3534 6.04023 20.2983 6.1609 20.234 6.29051C20.1652 6.42013 20.0413 6.6883 19.9587 6.89389C19.8715 7.09949 19.766 7.40341 19.7155 7.57772C19.665 7.74756 19.6007 8.00232 19.5732 8.14534C19.5365 8.33753 19.5227 8.54312 19.5181 8.95431C19.5181 9.37891 19.5319 9.56663 19.5732 9.76328C19.6007 9.90184 19.6742 10.1566 19.7338 10.3309C19.7889 10.5052 19.9266 10.8091 20.0321 11.0147C20.1423 11.2203 20.3304 11.5332 20.4497 11.712C20.5736 11.8907 20.7893 12.1723 20.9224 12.3377C21.0601 12.5031 21.2941 12.7712 21.441 12.9366C21.5878 13.102 21.7989 13.321 21.9091 13.4327C22.0146 13.54 22.4597 13.9601 22.8911 14.3579C23.3271 14.7601 23.864 15.2786 24.0889 15.511C24.3137 15.7479 24.6074 16.0608 24.7313 16.2082C24.8598 16.3557 25.0801 16.6239 25.2224 16.8072C25.3646 16.9859 25.5711 17.2675 25.6859 17.4329C25.796 17.5982 25.9566 17.8485 26.0484 17.9871C26.1356 18.1256 26.2824 18.3938 26.3742 18.5771C26.4706 18.7603 26.5991 19.0285 26.6633 19.1715C26.723 19.3145 26.8239 19.5827 26.8836 19.7615C26.9433 19.9402 27.0259 20.2173 27.0672 20.3738C27.1039 20.5302 27.1589 20.7984 27.1865 20.9727C27.2232 21.2096 27.2416 21.4599 27.2416 21.9962C27.2416 22.5325 27.2278 22.7828 27.1865 23.0331C27.1589 23.2119 27.0901 23.5292 27.035 23.7303C26.98 23.9315 26.8882 24.2354 26.8285 24.3963C26.7689 24.5617 26.622 24.879 26.5073 25.1069C26.388 25.3349 26.1952 25.6656 26.0713 25.8444C25.9474 26.0232 25.7363 26.3003 25.6033 26.4567C25.4702 26.6131 25.2361 26.859 25.0847 26.9975C24.9332 27.1361 24.7084 27.3283 24.5891 27.4221C24.4698 27.516 24.2632 27.6679 24.1347 27.7529C24.0063 27.8422 23.7539 27.9897 23.5795 28.0925C23.4005 28.1909 23.1297 28.3249 22.9783 28.392C22.8269 28.459 22.5607 28.5574 22.3909 28.6155C22.2211 28.6736 21.9549 28.754 21.8035 28.7898C21.6521 28.8255 21.3675 28.8881 21.1748 28.9194C20.9178 28.9641 20.6516 28.9864 20.1927 28.9954C19.7109 29.0088 19.4723 28.9954 19.1648 28.9641C18.9491 28.9373 18.6233 28.8836 18.4443 28.8434C18.2653 28.8076 18.0405 28.7495 17.7697 28.6691L17.7146 28.4903C17.6688 28.3473 17.6596 28.2132 17.655 27.8691C17.655 27.4892 17.6596 27.3953 17.7192 27.2031C17.7559 27.078 17.834 26.8813 17.889 26.7606C17.9441 26.64 18.0772 26.4254 18.1781 26.2779C18.2791 26.1304 18.4489 25.907 18.559 25.7818C18.6646 25.6567 19.0133 25.2857 19.3346 24.9594C19.6558 24.6332 19.9954 24.2756 20.0964 24.1639C20.1973 24.0521 20.3763 23.8421 20.491 23.6946C20.6103 23.5471 20.7756 23.3013 20.8673 23.1538C20.9591 23.0063 21.0784 22.7739 21.1335 22.6443C21.1932 22.5102 21.2712 22.2912 21.3171 22.1482C21.3584 22.0051 21.418 21.7459 21.4501 21.5716C21.4869 21.3571 21.5052 21.1246 21.5052 20.8431C21.5052 20.6107 21.4869 20.2889 21.4593 20.1101C21.4318 19.9358 21.3675 19.6318 21.3079 19.4352C21.2528 19.2385 21.1473 18.9301 21.0784 18.7514C21.005 18.5726 20.8398 18.224 20.7159 17.9826C20.592 17.7413 20.3671 17.3435 20.2157 17.1021C20.0642 16.8608 19.7614 16.4004 19.5365 16.0786C19.3162 15.7568 18.972 15.2697 18.7747 14.997C18.5774 14.7244 18.3479 14.3668 18.2607 14.2015C18.1735 14.0361 18.068 13.7858 18.0175 13.6472C17.967 13.5087 17.8982 13.2673 17.8661 13.1198C17.834 12.9724 17.7927 12.7355 17.7743 12.5925C17.7605 12.4539 17.7468 12.1723 17.7468 11.9667C17.7468 11.7611 17.7651 11.4393 17.7927 11.2427C17.8156 11.046 17.8707 10.7287 17.912 10.532C17.9533 10.3354 18.0313 10.027 18.0864 9.8482C18.1368 9.66943 18.2424 9.37444 18.3112 9.19566C18.3801 9.01688 18.4856 8.77106 18.5361 8.65486C18.5912 8.53865 18.6967 8.31518 18.7747 8.15875C18.8573 8.00232 19.0409 7.68052 19.1877 7.4347C19.3392 7.19781 19.5686 6.85367 19.7017 6.67936C19.8348 6.50505 20.0184 6.28605 20.1055 6.18325C20.1973 6.08492 20.2891 6.00894 20.3075 6.00894L20.3121 6Z" fill="#F4129A"/>
</g>
<defs>
<clipPath id="clip0_6522_43">
<rect width="22" height="27" fill="white" transform="translate(9 6)"/>
</clipPath>
</defs>
</svg>
