<svg width="40" height="40" viewBox="0 0 40 40" fill="none" xmlns="http://www.w3.org/2000/svg">
<rect width="40" height="40" fill="#FF3B57"/>
<path d="M14.2999 19.313C13.1743 18.9391 12.7995 19.6057 13.0989 20.1158L20.0142 32.7685C20.1058 32.9728 20.3823 32.9733 20.4749 32.7694L27.4158 18.7951C27.6451 18.2075 27.5208 17.8382 26.9576 17.5688C25.9982 17.11 24.9017 17.2097 24.1014 17.3586C22.8508 17.5912 22.0525 17.8298 20.9459 18.2359C20.792 18.2923 19.8344 18.6947 19.6164 18.7921C19.3982 18.8897 17.8915 19.5943 16.7804 19.6188C15.6692 19.6432 15.1567 19.5976 14.2999 19.313Z" fill="white"/>
<path d="M27.1778 15.2579C27.2247 15.8307 27.2272 16.3481 26.5654 16.1763C25.9036 16.0046 24.8472 15.9466 23.6686 16.1654C22.436 16.3941 21.4375 16.7304 20.9504 16.948C19.9401 17.3993 19.7563 17.4638 18.9748 17.8211C18.1266 18.2091 17.4502 18.4173 16.4144 18.4474C15.8809 18.4628 14.7952 18.465 13.8843 17.5669C13.8843 17.5669 13.3482 17.0426 13.2589 16.0085C13.2224 15.586 13.2004 15.5728 13.2042 15.0578C13.2326 11.1433 16.3649 7.97251 20.176 8.00018C23.9872 8.02785 26.8329 11.0473 27.1778 15.2579Z" fill="white"/>
</svg>
