<svg width="40" height="40" viewBox="0 0 40 40" fill="none" xmlns="http://www.w3.org/2000/svg">
<path d="M20.0001 31.9955C26.6271 31.9955 31.9993 26.6246 31.9993 19.9994C31.9993 13.3742 26.6271 8.00342 20.0001 8.00342C13.3732 8.00342 8.00098 13.3742 8.00098 19.9994C8.00098 26.6246 13.3732 31.9955 20.0001 31.9955Z" fill="url(#paint0_radial_10713_15383)"/>
<path d="M13.0015 19.9997C13.0015 16.1372 16.1368 13.0027 20.0004 13.0027C23.8639 13.0027 26.9992 16.1372 26.9992 19.9997H13.0015Z" fill="white"/>
<path d="M13.0015 19.9993H26.9992C26.9992 23.8618 23.8639 26.9963 20.0004 26.9963C16.1368 26.9963 13.0015 23.8618 13.0015 19.9993Z" fill="url(#paint1_radial_10713_15383)" fill-opacity="0.66"/>
<path d="M8.00098 19.9994C8.00098 13.3738 13.3727 8.00342 20.0001 8.00342C26.6275 8.00342 31.9993 13.3738 31.9993 19.9994H8.00098Z" fill="black"/>
<defs>
<radialGradient id="paint0_radial_10713_15383" cx="0" cy="0" r="1" gradientUnits="userSpaceOnUse" gradientTransform="translate(19.2476 31.9435) rotate(-90) scale(24.0663 38.7569)">
<stop stop-color="#FE5117"/>
<stop offset="1" stop-color="#FFC61C"/>
</radialGradient>
<radialGradient id="paint1_radial_10713_15383" cx="0" cy="0" r="1" gradientUnits="userSpaceOnUse" gradientTransform="translate(19.9706 19.9918) rotate(90) scale(7.01934 14.0424)">
<stop stop-color="white"/>
<stop offset="1" stop-color="white" stop-opacity="0"/>
</radialGradient>
</defs>
</svg>
