<svg width="40" height="40" viewBox="0 0 40 40" fill="none" xmlns="http://www.w3.org/2000/svg">
<rect width="40" height="40" fill="black"/>
<path d="M19.8348 10.6138H23.6525C24.1734 10.6138 24.6394 10.9162 24.8212 11.3723L28.1722 19.7774C28.1981 19.8422 28.1984 19.9135 28.1731 19.9786L28.1543 20.0269L28.1541 20.0274L24.8172 28.6077C24.6381 29.0683 24.1696 29.375 23.6451 29.375H19.8279C19.6132 29.375 19.4628 29.177 19.5335 28.9876L22.9743 19.7774L19.5419 11.0051C19.4676 10.8151 19.6182 10.6138 19.8348 10.6138Z" fill="#D631B9"/>
<path d="M9.86894 10.6138H13.6867C14.2075 10.6138 14.6735 10.9162 14.8553 11.3723L18.2064 19.7774C18.2322 19.8422 18.2325 19.9135 18.2072 19.9786L18.1884 20.0269L18.1882 20.0274L14.8513 28.6077C14.6722 29.0683 14.2037 29.375 13.6792 29.375H9.86206C9.6474 29.375 9.49692 29.177 9.56767 28.9876L13.0085 19.7774L9.57611 11.0051C9.50174 10.8151 9.65234 10.6138 9.86894 10.6138Z" fill="#D631B9"/>
<path d="M22.4254 17.9858H17.036V22.0518H22.4254L23.306 19.9607L22.4254 17.9858Z" fill="#D631B9"/>
<path d="M22.0388 10.6138H25.8565C26.3774 10.6138 26.8434 10.9162 27.0252 11.3723L30.3762 19.7774C30.4021 19.8422 30.4024 19.9135 30.3771 19.9786L30.3583 20.0269L30.3581 20.0274L27.0212 28.6077C26.8421 29.0683 26.3736 29.375 25.8491 29.375H22.0319C21.8172 29.375 21.6668 29.177 21.7375 28.9876L25.1783 19.7774L21.7459 11.0051C21.6716 10.8151 21.8222 10.6138 22.0388 10.6138Z" fill="white"/>
<path d="M12.0729 10.6138H15.8907C16.4115 10.6138 16.8775 10.9162 17.0593 11.3723L20.4104 19.7774C20.4362 19.8422 20.4365 19.9135 20.4112 19.9786L20.3924 20.0269L20.3922 20.0274L17.0553 28.6077C16.8762 29.0683 16.4077 29.375 15.8832 29.375H12.0661C11.8514 29.375 11.7009 29.177 11.7717 28.9876L15.2125 19.7774L11.7801 11.0051C11.7057 10.8151 11.8563 10.6138 12.0729 10.6138Z" fill="white"/>
<path d="M24.6294 17.9858H19.24V22.0518H24.6294L25.51 19.9607L24.6294 17.9858Z" fill="white"/>
</svg>
