<svg width="40" height="40" viewBox="0 0 40 40" fill="none" xmlns="http://www.w3.org/2000/svg">
<rect width="40" height="40" fill="white"/>
<path d="M30.9593 31.1786L25.6672 29.5819L21.6764 31.9993L18.8918 31.9981L14.8986 29.5819L9.60892 31.1786L8 25.6745L9.6091 19.5658L8 14.4011L9.6091 8L17.8745 13.0039H22.6937L30.9593 8L32.5684 14.4011L30.9593 19.5658L32.5684 25.6745L30.9593 31.1786Z" fill="#FF5C16"/>
<path d="M9.61014 8L17.8757 13.0074L17.5471 16.4439L9.61014 8ZM14.9 25.6767L18.5367 28.4839L14.9 29.5817V25.6767ZM18.246 21.0357L17.5471 16.4463L13.073 19.5672L13.0706 19.566V19.5682L13.0844 22.7807L14.8988 21.0358L18.246 21.0357ZM30.9593 8L22.6937 13.0074L23.0212 16.4439L30.9593 8ZM25.6696 25.6767L22.0327 28.4839L25.6696 29.5817V25.6767ZM27.4978 19.5681V19.5658L27.4967 19.567L23.0225 16.4463L22.3235 21.0357H25.6694L27.485 22.7803L27.4978 19.5681Z" fill="#FF5C16"/>
<path d="M14.8987 29.582L9.6091 31.1786L8 25.677H14.8987V29.582ZM18.2448 21.0347L19.2552 27.6695L17.8548 23.9804L13.0822 22.7805L14.8975 21.0348L18.2448 21.0347ZM25.6694 29.582L30.9593 31.1786L32.5684 25.6768H25.6694C25.6694 25.677 25.6694 29.582 25.6694 29.582ZM22.3235 21.0347L21.3132 27.6695L22.7134 23.9804L27.4864 22.7805L25.6698 21.0348L22.3235 21.0347Z" fill="#E34807"/>
<path d="M8 25.6745L9.6091 19.5658H13.0694L13.082 22.7793L17.8551 23.9792L19.2554 27.6681L18.5355 28.4805L14.8987 25.6733H8V25.6745ZM32.5684 25.6745L30.9593 19.5658H27.4988L27.4862 22.7793L22.7134 23.9792L21.313 27.6681L22.0327 28.4805L25.6696 25.6733H32.5684V25.6745ZM22.6937 13.0039H17.8745L17.5473 16.4404L19.2555 27.6645H21.3132L23.0224 16.4404L22.6937 13.0039Z" fill="#FF8D5D"/>
<path d="M9.6091 8L8 14.4011L9.6091 19.5658H13.0694L17.5459 16.444L9.6091 8ZM17.2448 22.367H15.6773L14.8238 23.2148L17.8562 23.9765L17.2448 22.3658V22.367ZM30.9593 8L32.5684 14.4011L30.9593 19.5658H27.4988L23.0224 16.444L30.9593 8ZM23.3258 22.367H24.8956L25.749 23.2158L22.7132 23.9791L23.3258 22.3658V22.367ZM21.6752 29.8097L22.0328 28.4829L21.313 27.6705H19.2538L18.5341 28.4829L18.8916 29.8097" fill="#661800"/>
<path d="M21.6752 29.8096V32.0004H18.892V29.8096H21.6752Z" fill="#C0C4CD"/>
<path d="M14.9 29.5797L18.8942 31.9994V29.8086L18.5366 28.4819L14.9 29.5797ZM25.6696 29.5797L21.6752 31.9994V29.8086L22.0328 28.4819L25.6696 29.5797Z" fill="#E7EBF6"/>
</svg>
