<svg width="40" height="40" viewBox="0 0 40 40" fill="none" xmlns="http://www.w3.org/2000/svg">
<path d="M22.5956 28.6292H22.5242C21.6826 28.6292 20.9173 28.1417 20.5616 27.3796L15.868 17.3144C15.7378 17.0349 15.4568 16.8555 15.1487 16.8555H14.721C14.6508 16.8555 14.5881 16.8994 14.5641 16.9654L10.8315 27.2064C10.5203 28.0607 9.70731 28.6307 8.79749 28.6307H8.10449C8.03218 28.6307 7.98177 28.5589 8.00626 28.4909L10.3982 21.846C10.4181 21.7907 10.4705 21.7539 10.5292 21.7539H11.519C11.8524 21.7539 12.1509 21.5459 12.2653 21.2315L15.3393 12.7939C15.6505 11.9381 16.4634 11.3696 17.3733 11.3696C18.2148 11.3696 18.9801 11.8571 19.3358 12.6208L23.9881 22.6097C24.1182 22.8892 24.3994 23.0686 24.7073 23.0686H25.2716C25.3418 23.0686 25.4046 23.0247 25.4286 22.9588L29.1326 12.7939C29.4438 11.9397 30.2568 11.3696 31.1666 11.3696H31.8955C31.968 11.3696 32.0184 11.4417 31.9936 11.5098L29.5722 18.1556C29.5523 18.2102 29.5005 18.2467 29.4423 18.2472L28.461 18.2544C28.1291 18.2544 27.8322 18.4624 27.7178 18.7752L24.6279 27.2097C24.3151 28.0623 23.5037 28.6292 22.5956 28.6292Z" fill="black"/>
</svg>
