<svg width="40" height="40" viewBox="0 0 40 40" fill="none" xmlns="http://www.w3.org/2000/svg">
<g clip-path="url(#clip0_6669_13)">
<rect width="40" height="40" fill="white"/>
<g clip-path="url(#clip1_6669_13)">
<path d="M26.5402 20.744C26.5402 19.7408 26.3291 18.7988 25.9371 17.9487C25.946 17.9487 26.0437 18.0362 26.2179 18.1923C26.6336 18.5647 27.485 19.3274 28.6058 20.2232L29.1712 20.5143C29.1712 22.6662 28.0027 26.2504 25.432 28.1496C22.7783 30.1102 17.3881 30.1638 14.3273 27.2383C12.6537 25.6377 10.6785 23.9069 9.36679 22.9496C9.31943 22.9155 9.27232 22.8813 9.22539 22.8473C8.57779 22.3778 7.9555 21.9267 6.89408 21.6554C6.79758 21.6309 6.69972 21.6056 6.60055 21.5799C5.55308 21.309 4.35843 21 3.05682 21.1959C3.16991 20.8512 3.48654 20.5602 3.91625 20.4147C4.79075 20.1237 5.82357 19.9629 6.90162 19.9935C7.92689 19.9399 9.35926 20.3152 9.84929 20.5296C10.0377 20.5449 10.7916 20.8513 10.9424 20.988C13.0231 21.7615 14.0032 23.2176 14.0484 23.4857C15.0737 25.7832 17.3579 27.3838 20.0041 27.3838C23.6152 27.3838 26.5402 24.4124 26.5402 20.744Z" fill="url(#paint0_linear_6669_13)"/>
<path d="M19.7403 10.1068C17.0338 10.1068 14.1464 10.5127 12.0582 11.8759C14.154 9.96131 16.9207 8.16162 19.9589 8.16162C25.0099 8.16162 29.9779 12.458 30.9957 16.5705C28.8698 12.9327 24.7988 10.1068 19.7403 10.1068Z" fill="url(#paint1_linear_6669_13)"/>
<path d="M28.1913 29.934C26.1031 31.8486 23.3363 33.3726 20.2982 33.3726C15.2617 33.3726 10.1427 28.9868 9.26135 25.2715V25.2534C11.4501 29.3189 15.8334 31.5882 20.8862 31.5882C23.5927 31.5882 26.1031 31.2972 28.1913 29.934Z" fill="url(#paint2_linear_6669_13)"/>
<path fill-rule="evenodd" clip-rule="evenodd" d="M9.84928 20.5295C8.86923 20.1849 7.86657 20.0164 6.90161 19.9934C7.29363 13.032 12.9779 7.51025 19.9362 7.51025C24.5952 7.51025 28.6887 9.99154 30.9956 13.7212C30.9956 13.7212 32.6768 16.2101 34.3956 17.6422C34.5539 17.7724 34.7123 17.895 34.8781 18.0175C34.9273 18.0508 34.9726 18.0842 35.0138 18.1145C35.0294 18.126 35.0445 18.1371 35.059 18.1477C35.436 18.4157 35.8204 18.6608 36.2125 18.8829V18.8906C36.7779 19.2045 37.0041 19.6105 36.9965 19.9934C36.9965 19.9934 36.9938 19.9961 36.9911 19.9999C36.9535 20.0513 36.7135 20.3797 35.1194 20.3227C34.4409 20.3763 33.702 20.2844 32.9633 19.9704C32.1717 19.6334 31.3726 19.1739 30.6262 18.6531C29.7379 18.0334 28.8592 17.189 27.8201 16.1905C27.2542 15.6467 26.6407 15.0572 25.9522 14.4334C23.5247 12.2278 20.4111 11.8831 18.044 12.312C15.6768 12.7409 13.875 13.8284 12.2617 16.1259C10.9556 17.9744 11.021 20.8357 11.0254 21.0298C11.0254 21.0286 11.0256 21.0351 11.0254 21.0298C10.7088 20.8767 10.2111 20.6597 9.84928 20.5295ZM30.9956 16.5624C29.322 12.021 25.0098 8.7892 19.9513 8.7892C16.9131 8.7892 14.1464 9.9609 12.0581 11.8679C14.1464 10.5123 16.6568 9.71584 19.3633 9.71584C24.4142 9.71584 28.8094 12.4958 30.9956 16.5624Z" fill="url(#paint3_linear_6669_13)"/>
<path fill-rule="evenodd" clip-rule="evenodd" d="M14.644 26.9089C17.7048 29.8345 22.4241 29.7502 25.0853 27.7897C27.6425 25.9025 28.6014 22.3842 28.591 20.2231H28.6185C28.8138 20.3283 29.0961 20.4818 29.3748 20.5832C29.774 20.7284 30.0156 20.8512 30.1438 20.9125C30.3942 20.9508 30.6384 21.0907 30.8825 21.1193C31.561 21.2725 32.2018 21.349 32.9634 21.4486C32.609 28.4483 26.9097 34.0082 19.9288 34.0082C14.9908 34.0082 10.6862 31.2206 8.46978 27.1081C8.46978 27.1081 7.36157 25.1399 5.29594 23.5469C4.94916 23.2866 4.57976 23.0338 4.19528 22.8041C4.15004 22.7811 4.11235 22.7581 4.07466 22.7352C4.02565 22.7083 3.97665 22.6797 3.92765 22.6509C3.87865 22.6222 3.82964 22.5935 3.78064 22.5667C3.07953 22.1761 2.8986 21.64 3.04938 21.1882C4.48175 20.9737 5.77088 21.081 6.88663 21.3643C8.02499 21.6553 8.96734 22.1225 9.66843 22.6356C10.9878 23.5929 12.9704 25.3083 14.644 26.9089ZM20.8862 32.086C15.8352 32.086 11.4401 29.306 9.25381 25.2394C10.9274 29.7808 15.2472 33.0126 20.2982 33.0203C23.3288 33.0203 26.1031 31.8486 28.1913 29.934C26.1031 31.2895 23.5926 32.086 20.8862 32.086Z" fill="url(#paint4_linear_6669_13)"/>
<path d="M12.2164 16.0727C13.8297 13.7752 15.6768 12.6418 18.044 12.2129C18.6169 12.1133 19.2426 12.0521 19.891 12.0597C21.8888 12.0597 24.1202 12.6418 25.9597 14.3113C26.6439 14.9336 27.2553 15.5237 27.8203 16.0689C28.8613 17.0736 29.7444 17.9258 30.6338 18.5463C31.3801 19.0671 32.1792 19.5496 32.9708 19.8866C33.0989 19.9402 33.2196 19.9861 33.3477 20.032C33.5136 20.0933 34.6444 20.4456 36.2426 20.1929C36.7779 20.0933 36.989 20.0015 37.004 19.9938C36.989 20.4456 36.6346 20.8668 36.0918 21.0506C35.1797 21.3569 34.1092 21.5178 32.9783 21.4718C32.0511 21.4336 31.0936 21.2651 30.1588 20.9358C29.5783 20.729 29.0657 20.4839 28.6058 20.2235C26.8343 19.2126 25.9371 17.949 25.9371 17.949C24.8967 15.6821 22.6351 14.1045 20.004 14.1045C16.393 14.1045 13.4679 17.076 13.4679 20.7443C13.4679 21.7246 13.6715 22.6512 14.0484 23.486C14.0107 23.4324 12.9553 21.9696 10.867 20.9511C10.867 20.9051 10.8821 17.972 12.2164 16.0727Z" fill="url(#paint5_linear_6669_13)"/>
</g>
</g>
<defs>
<linearGradient id="paint0_linear_6669_13" x1="2.93713" y1="21.4622" x2="48.1735" y2="21.4622" gradientUnits="userSpaceOnUse">
<stop stop-color="#00A9AA"/>
<stop offset="1" stop-color="#00A19A"/>
</linearGradient>
<linearGradient id="paint1_linear_6669_13" x1="-13.2533" y1="20.7579" x2="47.7812" y2="20.7579" gradientUnits="userSpaceOnUse">
<stop stop-color="#DE3468"/>
<stop offset="1" stop-color="#E57171"/>
</linearGradient>
<linearGradient id="paint2_linear_6669_13" x1="-8.23571" y1="20.7333" x2="52.8231" y2="20.7333" gradientUnits="userSpaceOnUse">
<stop stop-color="#5BB7B8"/>
<stop offset="1" stop-color="#00A398"/>
</linearGradient>
<linearGradient id="paint3_linear_6669_13" x1="4.78486" y1="11.8898" x2="43.8546" y2="19.2302" gradientUnits="userSpaceOnUse">
<stop stop-color="#DE3468"/>
<stop offset="1" stop-color="#E57171"/>
</linearGradient>
<linearGradient id="paint4_linear_6669_13" x1="3.00756" y1="20.7663" x2="41.5809" y2="20.7663" gradientUnits="userSpaceOnUse">
<stop stop-color="#5BB7B8"/>
<stop offset="1" stop-color="#00A398"/>
</linearGradient>
<linearGradient id="paint5_linear_6669_13" x1="14.4022" y1="12.1752" x2="34.9309" y2="23.8457" gradientUnits="userSpaceOnUse">
<stop stop-color="#DB1F63"/>
<stop offset="0.54" stop-color="#DF4166"/>
<stop offset="1" stop-color="#E25B69"/>
</linearGradient>
<clipPath id="clip0_6669_13">
<rect width="40" height="40" fill="white"/>
</clipPath>
<clipPath id="clip1_6669_13">
<rect width="34" height="35" fill="white" transform="translate(3 3)"/>
</clipPath>
</defs>
</svg>
