<svg width="40" height="40" viewBox="0 0 40 40" fill="none" xmlns="http://www.w3.org/2000/svg">
<rect width="40" height="40" fill="#F2F2F2"/>
<path fill-rule="evenodd" clip-rule="evenodd" d="M14.0905 6C9.62221 6 6 9.62221 6 14.0905V25.9137C6 30.382 9.62221 34.0042 14.0905 34.0042H25.9137C30.382 34.0042 34.0042 30.382 34.0042 25.9137V14.0905C34.0042 9.62221 30.382 6 25.9137 6H14.0905ZM20.0021 29.6285C25.3186 29.6285 29.6285 25.3186 29.6285 20.0021C29.6285 14.6856 25.3186 10.3756 20.0021 10.3756C14.6856 10.3756 10.3756 14.6856 10.3756 20.0021C10.3756 25.3186 14.6856 29.6285 20.0021 29.6285Z" fill="black"/>
<path d="M20.0377 26.13C19.3509 26.13 18.7622 26.0174 18.2716 25.7924C17.7811 25.5562 17.3722 25.1962 17.0452 24.7124C16.729 24.2174 16.4947 23.5874 16.342 22.8223C16.1894 22.0461 16.1131 21.1179 16.1131 20.0379C16.1131 18.9578 16.1894 18.0353 16.342 17.2703C16.4947 16.494 16.729 15.864 17.0452 15.3802C17.3722 14.8852 17.7811 14.5252 18.2716 14.3002C18.7622 14.0639 19.3509 13.9458 20.0377 13.9458C20.7245 13.9458 21.3132 14.0639 21.8037 14.3002C22.2943 14.5252 22.6977 14.8852 23.0138 15.3802C23.3409 15.864 23.5807 16.494 23.7333 17.2703C23.886 18.0353 23.9623 18.9578 23.9623 20.0379C23.9623 21.1179 23.886 22.0461 23.7333 22.8223C23.5807 23.5874 23.3409 24.2174 23.0138 24.7124C22.6977 25.1962 22.2943 25.5562 21.8037 25.7924C21.3132 26.0174 20.7245 26.13 20.0377 26.13ZM20.0377 24.1049C20.3102 24.1049 20.5392 24.0655 20.7245 23.9868C20.9098 23.8967 21.057 23.7617 21.166 23.5817C21.275 23.3905 21.3513 23.143 21.395 22.8392C21.4494 22.5355 21.4767 22.1586 21.4767 21.7085V18.3672C21.4767 17.4784 21.3731 16.8597 21.166 16.5109C20.9589 16.1509 20.5828 15.9709 20.0377 15.9709C19.4926 15.9709 19.1165 16.1509 18.9094 16.5109C18.7022 16.8597 18.5987 17.4784 18.5987 18.3672V21.7085C18.5987 22.1586 18.6205 22.5355 18.6641 22.8392C18.7186 23.143 18.8004 23.3905 18.9094 23.5817C19.0184 23.7617 19.1656 23.8967 19.3509 23.9868C19.5362 24.0655 19.7652 24.1049 20.0377 24.1049Z" fill="black"/>
</svg>
