<svg width="40" height="40" viewBox="0 0 40 40" fill="none" xmlns="http://www.w3.org/2000/svg">
<rect width="40" height="40" fill="#131416"/>
<path d="M15.7148 31.9063C18.6089 31.9063 20.9551 29.5601 20.9551 26.666C20.9551 23.7719 18.6089 21.4258 15.7148 21.4258C12.8207 21.4258 10.4746 23.7719 10.4746 26.666C10.4746 29.5601 12.8207 31.9063 15.7148 31.9063Z" fill="white"/>
<mask id="mask0_5923_19" style="mask-type:alpha" maskUnits="userSpaceOnUse" x="15" y="8" width="2" height="15">
<path fill-rule="evenodd" clip-rule="evenodd" d="M15.1384 22.6777V8.63379H16.3066V22.6777H15.1384Z" fill="white"/>
</mask>
<g mask="url(#mask0_5923_19)">
<path d="M29.5254 17.6191C29.5254 22.8799 25.2608 27.1445 20.0001 27.1445C14.7393 27.1445 10.4747 22.8799 10.4747 17.6191C10.4747 12.3584 14.7393 8.09375 20.0001 8.09375C25.2608 8.09375 29.5254 12.3584 29.5254 17.6191Z" fill="white"/>
</g>
<path d="M20.0001 27.1445C25.2608 27.1445 29.5254 22.8799 29.5254 17.6191C29.5254 12.3584 25.2608 8.09375 20.0001 8.09375C14.7393 8.09375 10.4747 12.3584 10.4747 17.6191C10.4747 22.8799 14.7393 27.1445 20.0001 27.1445Z" fill="white" fill-opacity="0.5"/>
</svg>
