<svg width="643" height="150" viewBox="0 0 643 150" fill="none" xmlns="http://www.w3.org/2000/svg">
<path d="M149.042 75.4019C149.042 76.1624 149.031 76.9228 149.009 77.6832H148.923H112.763V76.0211H77.8777C77.8777 75.6735 77.8885 75.3259 77.8885 74.9891C77.8885 74.6524 77.8885 74.2939 77.8777 73.9571H112.763V72.3059H112.817H148.977C149.02 73.3379 149.042 74.3699 149.042 75.4019ZM77.2625 67.9171L111.403 63.6913L111.609 65.3426L147.66 60.8778C147.315 59.0962 146.904 57.3363 146.44 55.6091L110.95 60.0087L111.155 61.6599L76.8523 65.9074C77.0034 66.581 77.1437 67.2545 77.2625 67.9389V67.9171ZM75.4815 61.2688L108.111 53.0671L108.511 54.6748L143.137 45.9734C142.425 44.2895 141.659 42.6275 140.838 41.0088L107.226 49.4605L107.626 51.0682L74.7259 59.346C74.9958 59.987 75.244 60.6279 75.4815 61.2797V61.2688ZM72.5887 55.0442L103.092 43.4531L103.675 45.0065L135.949 32.7419C134.902 31.1993 133.801 29.7002 132.635 28.2445L101.786 39.966L102.369 41.5194L71.4985 53.2517C71.8763 53.8384 72.2433 54.4358 72.5887 55.0442ZM68.5842 49.2866L95.5257 35.1535L96.2812 36.6309L126.072 20.9987C124.701 19.6625 123.277 18.3915 121.809 17.164L93.8094 31.8511L94.565 33.3285L67.1702 47.7006C67.6451 48.222 68.12 48.7435 68.5734 49.2866H68.5842ZM62.0863 43.0729L86.4804 27.4623L87.3655 28.8637L114.285 11.6346C112.591 10.5482 110.864 9.53795 109.083 8.59284L84.5051 24.3229L85.3902 25.7242L60.2945 41.7801C60.9098 42.1929 61.5034 42.6275 62.0971 43.0729H62.0863ZM56.3224 39.4445L76.7659 22.5739L77.8129 23.8557L100.836 4.84502C98.8826 4.09545 96.8749 3.42193 94.8457 2.83531L74.4237 19.6951L75.4707 20.977L54.2823 38.4668C54.9731 38.771 55.6531 39.0969 56.3224 39.4445ZM48.6911 36.4571L64.8387 20.2817L65.9937 21.455L86.5128 0.934241C84.2893 0.56489 82.0333 0.293308 79.745 0.119496L62.2482 17.6419L63.4031 18.8152L46.3488 35.8922C47.1368 36.0552 47.9139 36.2399 48.6911 36.4571ZM39.7646 35.0992L52.6417 19.3909L53.9153 20.4447L70.6782 0C68.1309 0.119496 65.6159 0.369351 63.1441 0.738702L49.7921 17.0227L51.0658 18.0765L37.1201 35.0884C37.5087 35.0775 37.908 35.0666 38.2966 35.0666C38.7931 35.0666 39.2789 35.0666 39.7646 35.0884V35.0992ZM32.047 35.5663L41.9665 20.1188L43.3481 21.0204L55.3401 2.3356C52.5985 3.05258 49.9216 3.92164 47.3095 4.93192L38.8687 18.0873L40.2503 18.989L29.2622 36.1095C30.1796 35.8922 31.1079 35.7076 32.047 35.5555V35.5663ZM23.4766 37.9671L30.6114 24.5075L32.0578 25.2897L41.5024 7.48479C38.4693 8.97306 35.555 10.6569 32.7702 12.5253L27.3408 22.7585L28.798 23.5407L20.4004 39.3793C21.3934 38.8688 22.4188 38.4016 23.4659 37.978L23.4766 37.9671ZM17.3241 41.1283L20.3572 32.4594L21.9115 33.0135L27.805 16.1754C24.8151 18.5653 22.0087 21.1725 19.4074 23.9861L16.8708 31.2319L18.4251 31.7859L14.453 43.1272C15.3813 42.4211 16.3311 41.7584 17.3134 41.1392L17.3241 41.1283ZM9.75765 47.3313L11.0961 41.0306L12.7044 41.3782L15.4028 28.6899C12.5641 32.3182 10.0491 36.2181 7.90111 40.3353L9.09922 40.596L6.63822 51.0248C7.59888 49.732 8.64588 48.4936 9.75765 47.3313ZM4.19881 54.6965V46.3536C2.19115 51.6874 0.766364 58.3249 0 64.832C0.939066 61.2254 2.36386 57.8252 4.19881 54.6965ZM0.0539693 85.3636C0.841921 90.9147 2.22354 96.2703 4.14484 101.365V95.2057C2.37465 92.164 0.982241 88.8615 0.0539693 85.3636ZM6.89728 99.3229L9.04526 109.404L7.84714 109.665C9.99512 113.793 12.5101 117.682 15.3489 121.31L12.6504 108.622L11.0421 108.969L9.68209 102.593C8.69985 101.55 7.76079 100.464 6.89728 99.312V99.3229ZM14.3774 106.819L18.3712 118.225L16.8168 118.779L19.3534 126.025C21.9547 128.838 24.7611 131.446 27.751 133.835L21.8576 116.997L20.3033 117.551L17.2594 108.839C16.2771 108.209 15.3165 107.546 14.3882 106.84L14.3774 106.819ZM20.3356 110.588L28.7548 126.47L27.2977 127.252L32.727 137.486C35.5118 139.354 38.4261 141.038 41.4592 142.526L32.0146 124.721L30.5574 125.503L23.4011 112.011C22.3541 111.587 21.3287 111.109 20.3248 110.599L20.3356 110.588ZM29.1974 113.869L40.1963 131.011L38.8147 131.913L47.2555 145.068C49.8676 146.078 52.5445 146.947 55.2862 147.664L43.2942 128.98L41.9126 129.881L31.9822 114.412C31.0431 114.26 30.1041 114.075 29.1866 113.858L29.1974 113.869ZM37.0553 114.912L51.001 131.924L49.7273 132.977L63.0793 149.261C65.5511 149.631 68.0661 149.881 70.6134 150L53.8506 129.544L52.5769 130.598L39.6998 114.89C39.2357 114.912 38.7608 114.912 38.2858 114.912C37.8757 114.912 37.4547 114.912 37.0445 114.89L37.0553 114.912ZM46.3057 114.108L63.3492 131.174L62.1942 132.347L79.6911 149.87C81.9794 149.696 84.2353 149.424 86.4588 149.055L65.9505 128.523L64.7848 129.707L48.6479 113.543C47.8816 113.749 47.0936 113.945 46.3057 114.108ZM54.2499 111.555L75.4167 129.034L74.3697 130.316L94.7917 147.176C96.8209 146.589 98.8286 145.915 100.782 145.166L77.7482 126.155L76.7012 127.437L56.2792 110.577C55.61 110.925 54.93 111.251 54.2391 111.555H54.2499ZM60.2513 108.231L85.3147 124.276L84.4296 125.677L109.007 141.407C110.788 140.462 112.526 139.441 114.21 138.365L87.29 121.136L86.4049 122.538L62.0431 106.949C61.4494 107.394 60.8558 107.829 60.2405 108.242L60.2513 108.231ZM67.1594 102.321L94.5218 116.671L93.7663 118.149L121.766 132.836C123.234 131.608 124.658 130.337 126.029 129.001L96.2381 113.369L95.4825 114.846L68.5734 100.735C68.12 101.278 67.6559 101.811 67.1702 102.321H67.1594ZM71.4877 96.7591L102.315 108.481L101.732 110.034L132.581 121.756C133.736 120.3 134.837 118.801 135.895 117.258L103.621 104.993L103.038 106.547L72.5779 94.9667C72.2325 95.575 71.8655 96.1725 71.4877 96.7591ZM74.7151 90.6757L107.561 98.9318L107.161 100.54L140.774 108.991C141.605 107.373 142.371 105.71 143.083 104.027L108.457 95.3252L108.057 96.9329L75.4707 88.742C75.2332 89.3938 74.9742 90.0348 74.7151 90.6757ZM76.8523 84.1143L111.101 88.351L110.896 90.0022L146.386 94.4018C146.85 92.6637 147.261 90.9038 147.606 89.1331L111.555 84.6683L111.349 86.3195L77.2625 82.0937C77.1437 82.7781 77.0034 83.4516 76.8523 84.1251V84.1143Z" fill="black"/>
<path d="M195.939 125.064H183.921V24.9135H231.278C252.166 24.9135 263.326 38.2192 263.326 54.2432C263.326 74.5593 249.018 85.4328 231.278 85.4328H195.939V125.064ZM195.939 35.93V74.4163H231.85C244.297 74.4163 251.021 65.4027 251.021 54.2432C251.021 42.3682 242.437 35.93 231.85 35.93H195.939Z" fill="black"/>
<path d="M288.609 125.064H276.735V24.9133H288.609V125.064Z" fill="black"/>
<path d="M331.475 126.208C314.306 126.208 303.29 117.338 303.29 103.46C303.29 86.005 320.172 82.7144 335.338 81.1406C346.927 79.996 356.942 80.1391 357.085 73.987C356.942 64.4012 349.073 57.6769 337.627 57.6769C326.611 57.6769 318.026 63.829 316.739 72.8425H305.007C306.437 57.963 319.886 47.5188 337.913 47.5188C356.656 47.5188 368.674 58.6784 368.674 74.7024V111.615C368.674 114.047 368.674 115.335 368.674 115.335V125.064C360.518 125.064 363.839 125.064 357.657 125.064V112.044C353.222 120.771 344.638 126.208 331.475 126.208ZM333.192 116.05C347.356 116.05 357.085 107.037 357.085 94.4463V84.5743C353.794 89.0096 345.353 89.868 336.053 90.8695C325.609 92.014 315.165 93.4448 315.165 103.174C315.165 111.043 322.318 116.05 333.192 116.05Z" fill="black"/>
<path d="M412.728 126.637C394.701 126.637 381.395 117.195 380.394 101.171H391.983C392.841 111.043 401.855 116.479 413.3 116.479C424.031 116.479 429.181 112.33 429.181 104.747C429.181 97.5938 423.602 96.0201 415.733 93.3017L404.716 89.5818C393.557 85.862 382.397 82.4283 382.397 68.6934C382.397 55.817 392.412 47.5188 409.008 47.5188C425.748 47.5188 437.336 56.5323 439.196 73.4148H427.608C426.32 62.8275 418.88 57.6769 408.579 57.6769C399.279 57.6769 393.843 61.826 393.843 68.4072C393.843 76.2762 402.141 77.85 408.436 79.996L418.737 83.4298C432.615 88.0081 440.913 92.7294 440.913 105.32C440.913 118.625 431.184 126.637 412.728 126.637Z" fill="black"/>
<path d="M465.098 125.064H453.223V49.2357H462.666L463.811 60.9675C468.961 52.8125 478.833 47.5188 489.707 47.5188C501.152 47.5188 509.737 53.3847 513.6 62.5413C518.464 53.6709 528.908 47.5188 540.497 47.5188C556.521 47.5188 566.822 58.8215 566.822 74.2732V125.064H554.947V74.7024C554.947 64.5443 548.652 57.963 538.494 57.963C524.33 57.963 516.032 67.4058 515.889 78.9945V125.064H504.157V74.7024C504.157 64.5443 497.862 57.963 487.704 57.963C473.54 57.963 465.241 67.4058 465.098 78.9945V125.064Z" fill="black"/>
<path d="M605.184 126.208C588.015 126.208 576.999 117.338 576.999 103.46C576.999 86.005 593.881 82.7144 609.046 81.1406C620.635 79.996 630.65 80.1391 630.793 73.987C630.65 64.4012 622.781 57.6769 611.336 57.6769C600.319 57.6769 591.735 63.829 590.447 72.8425H578.715C580.146 57.963 593.595 47.5188 611.622 47.5188C630.364 47.5188 642.382 58.6784 642.382 74.7024V111.615C642.382 114.047 642.382 115.335 642.382 115.335V125.064C634.227 125.064 637.548 125.064 631.366 125.064V112.044C626.93 120.771 618.346 126.208 605.184 126.208ZM606.9 116.05C621.064 116.05 630.793 107.037 630.793 94.4463V84.5743C627.503 89.0096 619.061 89.868 609.762 90.8695C599.318 92.014 588.873 93.4448 588.873 103.174C588.873 111.043 596.027 116.05 606.9 116.05Z" fill="black"/>
</svg>
