<svg width="40" height="40" viewBox="0 0 40 40" fill="none" xmlns="http://www.w3.org/2000/svg">
<g clip-path="url(#clip0_6660_2)">
<rect width="40" height="40" fill="white"/>
<path d="M12.536 22.4249C12.3152 22.2385 12.0432 22.3881 11.9592 22.6393L10.2224 30.0225C9.72159 30.7985 8.64958 30.5097 8.64478 29.5713L10.1232 22.9641C9.98958 22.7889 9.84159 22.6417 9.62319 22.7801L5.80718 25.8465C4.91198 26.2337 4.21599 25.4265 4.73279 24.6121L8.70639 21.3033C8.75999 21.1145 8.73599 20.9353 8.54239 20.8593L2.45839 20.7833C1.59439 20.4281 1.70559 19.3121 2.68159 19.2001C4.68879 18.9705 7.11759 19.3793 9.16478 19.2033C9.41279 19.1817 9.69279 19.1617 9.67279 18.8401C9.64319 18.3529 7.34159 15.9129 7.02319 15.2577C6.72319 14.0993 7.75759 13.6353 8.55839 14.5225C9.35919 15.4097 10.052 16.6425 10.8752 17.5657C11.412 18.0137 11.5344 17.0457 11.6264 16.7049C12.2344 14.4537 12.5552 12.0857 13.2808 9.87928C14.0904 9.12168 14.836 9.66648 14.7008 10.7393C14.4536 12.6985 13.5824 14.8665 13.2856 16.8521C13.2352 17.2745 13.6104 17.4001 13.9176 17.1553L25.164 8.00248C26.0456 7.04328 27.272 8.00648 26.5248 9.04328L14.808 18.5257C14.4824 18.8017 14.772 19.2457 15.156 19.2033L37.244 19.1953C38.292 19.1553 38.428 20.6785 37.4024 20.8001L14.2768 20.7945L13.8392 20.9161C13.6904 21.0665 13.748 21.3041 13.868 21.4521L21.2664 31.0929C21.8176 32.0193 20.7488 32.8385 19.9576 32.0817L12.5368 22.4233L12.536 22.4249Z" fill="#4615C8"/>
</g>
<defs>
<clipPath id="clip0_6660_2">
<rect width="40" height="40" fill="white"/>
</clipPath>
</defs>
</svg>
