<svg width="40" height="40" viewBox="0 0 40 40" fill="none" xmlns="http://www.w3.org/2000/svg">
<rect width="40" height="40" fill="#4281A4"/>
<path d="M20.0005 30.9994C13.9353 30.9994 9.00131 26.0654 9.00131 20.0002C9.00131 13.9349 13.9353 9.00098 20.0005 9.00098C26.0657 9.00098 30.9997 13.9349 30.9997 20.0002C30.9997 26.0654 26.0657 30.9994 20.0005 30.9994ZM20.0005 10.344C14.676 10.344 10.3444 14.6756 10.3444 20.0002C10.3444 25.3247 14.676 29.6563 20.0005 29.6563C25.325 29.6563 29.6566 25.3247 29.6566 20.0002C29.6566 14.6756 25.325 10.344 20.0005 10.344Z" fill="#F6E8D7"/>
<path d="M27.3059 27.9731C27.1284 27.9731 26.957 27.9021 26.8309 27.776L19.5254 20.4755C19.3993 20.3493 19.3283 20.1779 19.3283 20.0004V9.67215C19.3283 9.30118 19.6295 9 20.0004 9C26.0657 9 30.9996 13.934 30.9996 19.9992C30.9996 22.9363 29.8561 25.6971 27.7797 27.7748C27.6536 27.9009 27.4834 27.9719 27.3047 27.9719L27.3059 27.9731ZM20.6713 19.7225L27.2887 26.335C28.8204 24.5781 29.6566 22.3535 29.6566 20.0004C29.6566 14.9024 25.6849 10.714 20.6726 10.3676V19.7225H20.6713Z" fill="#F6E8D7"/>
<path d="M20.0004 20.6723H9.67215C9.30118 20.6723 9 20.3711 9 20.0002C9 13.9349 13.934 9.00098 19.9992 9.00098C20.3702 9.00098 20.6713 9.30216 20.6713 9.67312V20.0014C20.6713 20.3724 20.3702 20.6735 19.9992 20.6735L20.0004 20.6723ZM10.3676 19.328H19.3295V10.3661C14.5388 10.6966 10.6993 14.5373 10.3676 19.328Z" fill="#F6E8D7"/>
<path d="M30.3287 31.0002H20.0004C19.8217 31.0002 19.6515 30.9292 19.5254 30.8031L9.19711 20.4748C9.00489 20.2826 8.94735 19.9937 9.05142 19.7427C9.15548 19.4917 9.40035 19.3276 9.67214 19.3276H20.0004C20.1792 19.3276 20.3494 19.3986 20.4755 19.5248L30.8037 29.853C30.996 30.0452 31.0535 30.3342 30.9494 30.5852C30.8454 30.8361 30.6005 31.0002 30.3287 31.0002ZM20.2783 29.6571H28.7065L19.7225 20.6732H11.2944L20.2783 29.6571Z" fill="#F6E8D7"/>
<path d="M20.0004 31H9.67214C9.40035 31 9.15548 30.8359 9.05142 30.585C8.94735 30.334 9.00489 30.045 9.19711 29.8528L14.3613 24.6887C14.6233 24.4267 15.0493 24.4267 15.3113 24.6887L20.4755 29.8528C20.6677 30.045 20.7252 30.334 20.6212 30.585C20.5171 30.8359 20.2722 31 20.0004 31ZM11.2944 29.6569H18.3794L14.8375 26.115L11.2956 29.6569H11.2944Z" fill="#F6E8D7"/>
</svg>
