<svg width="40" height="40" viewBox="0 0 40 40" fill="none" xmlns="http://www.w3.org/2000/svg">
<rect width="40" height="40" fill="#10FF7F"/>
<path d="M31.0727 19.7793H28.3007C27.4702 19.7793 26.8024 20.4528 26.8024 21.2778V25.3017C26.8024 26.1323 26.1291 26.8001 25.3042 26.8001H14.2667C13.4362 26.8001 12.7685 27.4736 12.7685 28.2986V31.0766C12.7685 31.9072 13.4418 32.5751 14.2667 32.5751H25.9383C26.7688 32.5751 27.4253 31.9016 27.4253 31.0766V28.8542C27.4253 28.0236 28.0987 27.4399 28.9235 27.4399H31.0727C31.9031 27.4399 32.5709 26.7665 32.5709 25.9415V21.2665C32.5709 20.4303 31.8975 19.7793 31.0727 19.7793Z" fill="black"/>
<path d="M12.7685 14.2678C12.7685 13.4372 13.4418 12.7693 14.2667 12.7693H25.293C26.1235 12.7693 26.7912 12.0959 26.7912 11.2709V8.49846C26.7912 7.66785 26.1179 7 25.293 7H13.627C12.7965 7 12.1288 7.67346 12.1288 8.49846V10.6367C12.1288 11.4673 11.4554 12.1352 10.6305 12.1352H8.49823C7.66775 12.1352 7 12.8086 7 13.6336V18.3142C7 19.1448 7.67336 19.779 8.50384 19.779H11.2758C12.1063 19.779 12.7741 19.1055 12.7741 18.2805L12.7685 14.2678Z" fill="black"/>
<path d="M18.4752 16.8662H21.1406C22.0103 16.8662 22.7117 17.5733 22.7117 18.4376V21.1034C22.7117 21.9733 22.0047 22.6748 21.1406 22.6748H18.4752C17.6054 22.6748 16.904 21.9677 16.904 21.1034V18.4376C16.904 17.5677 17.611 16.8662 18.4752 16.8662Z" fill="black"/>
</svg>
