<svg width="20" height="20" viewBox="0 0 20 20" fill="none" xmlns="http://www.w3.org/2000/svg">
<path d="M15.0252 13.8486L18.5941 17.4176L17.4156 18.5961L13.8467 15.0271C12.5634 16.0538 10.936 16.668 9.16602 16.668C5.02602 16.668 1.66602 13.308 1.66602 9.16797C1.66602 5.02797 5.02602 1.66797 9.16602 1.66797C13.306 1.66797 16.666 5.02797 16.666 9.16797C16.666 10.938 16.0518 12.5654 15.0252 13.8486ZM13.3533 13.2303C14.3723 12.1801 14.9993 10.7476 14.9993 9.16797C14.9993 5.94505 12.3889 3.33464 9.16602 3.33464C5.9431 3.33464 3.33268 5.94505 3.33268 9.16797C3.33268 12.3909 5.9431 15.0013 9.16602 15.0013C10.7457 15.0013 12.1782 14.3742 13.2283 13.3552L13.3533 13.2303Z" fill="black"/>
</svg>
