<svg width="40" height="40" viewBox="0 0 40 40" fill="none" xmlns="http://www.w3.org/2000/svg">
<rect width="40" height="40" fill="#FFBF00"/>
<g clip-path="url(#clip0_6557_74)">
<path d="M6.11345 21.8773H8.05649C8.14687 21.8773 8.19207 21.9105 8.19207 21.9888C8.19207 22.579 8.47414 23.0695 9.03953 23.4593C9.59308 23.8604 10.3271 24.0611 11.231 24.0611C11.9089 24.0611 12.474 23.9833 13.1067 23.7602C13.7285 23.5374 14.1234 23.036 14.1234 22.334C14.1013 21.6879 13.6718 21.3314 13.0391 21.131C12.7339 21.0418 12.6211 21.008 12.2823 20.9524C12.1127 20.9299 11.9881 20.9078 11.9089 20.8968C11.7961 20.8854 11.2877 20.8408 11.231 20.8297C10.813 20.7741 10.4742 20.7406 10.237 20.7071C9.99952 20.6736 9.67195 20.618 9.27641 20.5285C8.86998 20.4508 8.54178 20.3613 8.3049 20.2611C8.06802 20.1609 7.79654 20.0272 7.50294 19.8489C6.65547 19.3587 6.25994 18.6231 6.20322 17.3977C6.20322 16.4393 6.63272 15.637 7.50294 14.9799C8.37253 14.323 9.50271 14 10.9037 14C12.8468 14 14.3949 14.557 15.3097 15.7938C15.7728 16.4067 15.9991 17.153 15.9991 18.0222C15.9991 18.1 15.9655 18.1335 15.8978 18.1335H13.909C13.8301 18.1335 13.7961 18.1003 13.7961 18.0222C13.7961 16.7408 12.7455 15.9386 10.9037 15.9386C9.27674 15.9386 8.40713 16.6071 8.40713 17.3983C8.40713 17.7545 8.50843 18.033 8.7799 18.234C9.05138 18.4344 9.18634 18.5571 9.64949 18.6462C9.87579 18.7018 10.045 18.7353 10.1579 18.7464C10.2598 18.7688 10.4521 18.791 10.723 18.8248C10.9944 18.858 11.1637 18.8804 11.2313 18.8915C12.5079 19.0587 13.3782 19.2034 13.8413 19.3372C15.0952 19.6937 15.8747 20.3398 16.1687 21.2761C16.2706 21.5991 16.3158 21.9446 16.3158 22.3343C16.3158 24.0169 15.3212 25.1532 13.8413 25.6324C13.1067 25.8774 12.2371 26 11.2313 26C9.54822 26 8.26002 25.621 7.35582 24.8637C6.45225 24.1057 6 23.1473 6 21.9888C6 21.9105 6.03366 21.8773 6.11345 21.8773Z" fill="black"/>
<path d="M33.8608 14H31.8959C31.8392 14 31.794 14.0348 31.771 14.116L29.761 23.6483C29.7273 23.7525 29.5687 23.7525 29.5348 23.6483L27.2424 14.116C27.2194 14.0351 27.1857 14 27.1296 14H24.2833C24.2266 14 24.193 14.0348 24.1699 14.116L21.8773 23.6483C21.8436 23.7525 21.6511 23.7525 21.6404 23.6483L19.6298 14.116C19.6077 14.0351 19.5731 14 19.517 14H16.3952C16.3513 14 16.3158 14.0364 16.3158 14.0815V15.9312C16.3158 15.9759 16.3513 16.0124 16.3949 16.0124H17.7718C17.8223 16.0124 17.8662 16.0478 17.8778 16.0983L20.1601 25.884C20.1832 25.9655 20.2284 26 20.3072 26H23.2439C23.3006 26 23.3342 25.9655 23.3567 25.884L25.5705 16.421C25.582 16.3169 25.7736 16.3169 25.8079 16.421L28.0554 25.884C28.0775 25.9655 28.1121 26 28.1682 26H31.1048C31.1731 26 31.2176 25.9655 31.2404 25.884L33.9963 14.116C34.0194 14.0233 33.9287 14 33.8608 14Z" fill="black"/>
</g>
<defs>
<clipPath id="clip0_6557_74">
<rect width="28" height="12" fill="white" transform="translate(6 14)"/>
</clipPath>
</defs>
</svg>
