<svg width="40" height="40" viewBox="0 0 40 40" fill="none" xmlns="http://www.w3.org/2000/svg">
<path d="M10.7164 26.051L8 23.3346L11.3345 20.0001C12.4367 18.8979 13.8577 18.3054 15.3035 18.2202C14.9114 17.9044 14.4141 17.7142 13.8727 17.7142H9.15681V13.8726H13.8727C15.4314 13.8726 16.8551 14.4585 17.9377 15.4205C17.8838 14.92 17.6666 14.4337 17.2838 14.0508L13.9493 10.7163L16.6655 8L20 11.3345C21.1022 12.4367 21.6946 13.8578 21.7799 15.3035C22.0958 14.9114 22.2858 14.4141 22.2858 13.8726V9.15682H26.1274V13.8727C26.1274 15.4314 25.5414 16.8553 24.5794 17.9378C25.0799 17.8838 25.5661 17.6666 25.9491 17.2837L29.2836 13.9492L32 16.6655L28.6655 20.0001C27.5634 21.1022 26.1422 21.6946 24.6966 21.7798C25.0886 22.0957 25.586 22.2858 26.1274 22.2858H30.8432V26.1274H26.1274C24.5688 26.1274 23.1449 25.5414 22.0623 24.5794C22.1162 25.08 22.3334 25.5662 22.7162 25.9491L26.0509 29.2836L23.3345 32L19.9998 28.6655C18.8977 27.5633 18.3053 26.1422 18.2201 24.6965C17.9042 25.0886 17.7142 25.5858 17.7142 26.1274V30.8433H13.8725V26.1274C13.8725 24.5687 14.4584 23.145 15.4203 22.0625C14.9198 22.1164 14.4337 22.3335 14.0507 22.7165L10.7162 26.051H10.7164Z" fill="black"/>
</svg>
