<svg width="40" height="40" viewBox="0 0 40 40" fill="none" xmlns="http://www.w3.org/2000/svg">
<path d="M19.989 24.3334V31.3993L14.1352 28.1553V22.6818C14.1332 18.9481 12.9595 16.658 11.4762 14.9649C9.99351 13.2725 8.42529 11.9705 8.42529 11.9705L14.6312 15.5278C16.4023 16.5356 19.987 19.5498 19.989 24.3341V24.3334Z" fill="#6837EE"/>
<path d="M14.6312 15.5276L8.42529 11.9703L14.2061 8.60059L18.9784 11.3614C22.2342 13.2427 24.8236 13.3948 27.0476 12.9801C29.271 12.5653 31.3916 11.9163 31.3916 11.9163L25.1485 15.3992C23.3767 16.4057 18.8034 17.9395 14.6312 15.5282V15.5276Z" fill="#CFC0FF"/>
<path d="M25.1483 15.3977L31.3913 11.9148V18.558L26.5826 21.2563C23.3035 23.0981 21.87 25.2388 21.114 27.3512C20.3581 29.4629 19.9888 31.3989 19.9888 31.3989V24.3331C20.0007 22.3102 20.9463 17.7583 25.1483 15.3977Z" fill="#9273FF"/>
</svg>
