<svg width="40" height="40" viewBox="0 0 40 40" fill="none" xmlns="http://www.w3.org/2000/svg">
<rect width="40" height="40" fill="#0E0927"/>
<path d="M17.1702 10.6157C17.3264 10.6157 17.4529 10.7422 17.4529 10.8982V20.4349C17.4529 20.7782 17.1745 21.0564 16.8311 21.0564H14.9655C14.6221 21.0564 14.3437 20.7782 14.3437 20.4349V13.4406C14.3437 11.8805 15.6092 10.6157 17.1702 10.6157Z" fill="white"/>
<path d="M12.5686 13.7231C12.7247 13.7231 12.8512 13.8496 12.8512 14.0056V24.9096C12.8512 25.2528 12.5728 25.531 12.2294 25.531H10.3638C10.0204 25.531 9.74197 25.2528 9.74197 24.9096V16.548C9.74197 14.9879 11.0075 13.7231 12.5686 13.7231Z" fill="white"/>
<path d="M23.8297 10.6157C23.6736 10.6157 23.547 10.7422 23.547 10.8982V20.4349C23.547 20.7782 23.8255 21.0564 24.1689 21.0564H26.0344C26.3779 21.0564 26.6563 20.7782 26.6563 20.4349V13.4406C26.6563 11.8805 25.3908 10.6157 23.8297 10.6157Z" fill="white"/>
<path d="M28.4314 13.7231C28.2753 13.7231 28.1487 13.8496 28.1487 14.0056V24.9096C28.1487 25.2528 28.4271 25.531 28.7706 25.531H30.6361C30.9795 25.531 31.258 25.2528 31.258 24.9096V16.548C31.258 14.9879 29.9924 13.7231 28.4314 13.7231Z" fill="white"/>
<path d="M19.5672 9C19.2238 9 18.9454 9.27824 18.9454 9.62147V29.4463C18.9454 30.3044 19.6414 31 20.5 31C21.3586 31 22.0546 30.3044 22.0546 29.4463V9.62147C22.0546 9.27824 21.7762 9 21.4327 9H19.5672Z" fill="white"/>
</svg>
