<svg width="40" height="40" viewBox="0 0 40 40" fill="none" xmlns="http://www.w3.org/2000/svg">
<rect width="40" height="40" fill="white"/>
<g clip-path="url(#clip0_6637_198)">
<path d="M15.203 8.82499C14.8768 8.77467 14.863 8.76877 15.0166 8.74531C15.3108 8.70032 16.0055 8.76163 16.4843 8.87482C17.6019 9.13897 18.619 9.81565 19.7046 11.0174L19.993 11.3367L20.4055 11.2708C22.1437 10.993 23.9119 11.2137 25.3909 11.8931C25.7977 12.0799 26.4392 12.4519 26.5193 12.5475C26.5449 12.578 26.5918 12.7741 26.6235 12.9834C26.7334 13.7074 26.6784 14.2624 26.4557 14.6769C26.3345 14.9024 26.3277 14.9739 26.4092 15.1669C26.4742 15.321 26.6556 15.435 26.8351 15.4347C27.2027 15.4343 27.5983 14.8435 27.7816 14.0216L27.8544 13.6951L27.9986 13.8576C28.7897 14.7488 29.4111 15.9641 29.5179 16.8293L29.5457 17.0548L29.4127 16.8498C29.1838 16.4969 28.9539 16.2567 28.6594 16.063C28.1286 15.7138 27.5673 15.5949 26.0809 15.5171C24.7385 15.4467 23.9787 15.3327 23.2254 15.0884C21.9435 14.6729 21.2974 14.1195 19.7748 12.1333C19.0985 11.2511 18.6805 10.763 18.2646 10.3699C17.3198 9.47669 16.3914 9.00827 15.203 8.82499Z" fill="#F50DB4"/>
<path d="M26.823 10.7947C26.8568 10.2035 26.9375 9.81359 27.0996 9.45749C27.1637 9.31654 27.2238 9.20117 27.2331 9.20117C27.2424 9.20117 27.2145 9.30522 27.1711 9.43235C27.0533 9.77795 27.0339 10.2506 27.1151 10.8006C27.2182 11.4984 27.2768 11.5991 28.0185 12.3529C28.3665 12.7064 28.7712 13.1523 28.9179 13.3438L29.1846 13.6919L28.9179 13.4431C28.5916 13.1389 27.8414 12.5456 27.6757 12.4608C27.5646 12.4039 27.5481 12.4049 27.4795 12.4727C27.4164 12.5352 27.4031 12.6291 27.3943 13.0731C27.3806 13.7651 27.2858 14.2092 27.0568 14.6533C26.933 14.8935 26.9135 14.8423 27.0256 14.5711C27.1092 14.3687 27.1177 14.2797 27.1171 13.6098C27.1158 12.2639 26.9551 11.9403 26.0126 11.386C25.7739 11.2456 25.3805 11.0431 25.1384 10.936C24.8964 10.8289 24.7041 10.7356 24.7111 10.7286C24.7378 10.7022 25.6569 10.9689 26.0269 11.1104C26.5771 11.3209 26.668 11.3481 26.7348 11.3227C26.7796 11.3057 26.8013 11.176 26.823 10.7947Z" fill="#F50DB4"/>
<path d="M15.8372 13.0978C15.1749 12.1912 14.7651 10.8011 14.8538 9.76199L14.8812 9.44043L15.032 9.46778C15.3151 9.51913 15.8033 9.69978 16.0319 9.83782C16.6591 10.2166 16.9307 10.7153 17.207 11.9958C17.2879 12.3709 17.3941 12.7954 17.4429 12.9391C17.5216 13.1704 17.8188 13.7107 18.0604 14.0616C18.2344 14.3143 18.1188 14.434 17.7341 14.3995C17.1465 14.3467 16.3507 13.8006 15.8372 13.0978Z" fill="#F50DB4"/>
<path d="M26.0194 19.8455C22.9241 18.6064 21.834 17.5308 21.834 15.716C21.834 15.449 21.8432 15.2305 21.8545 15.2305C21.8658 15.2305 21.9855 15.3186 22.1206 15.4263C22.7483 15.9269 23.4511 16.1407 25.3969 16.4229C26.5419 16.589 27.1862 16.7231 27.7806 16.9191C29.6698 17.5421 30.8386 18.8063 31.1173 20.5282C31.1984 21.0285 31.1509 21.9668 31.0195 22.4613C30.9159 22.8519 30.5995 23.5559 30.5156 23.5829C30.4923 23.5904 30.4695 23.5018 30.4635 23.3811C30.4317 22.7346 30.1031 22.1051 29.5512 21.6336C28.9237 21.0975 28.0807 20.6706 26.0194 19.8455Z" fill="#F50DB4"/>
<path d="M23.8456 20.3597C23.8068 20.1303 23.7396 19.8372 23.6961 19.7085L23.6172 19.4746L23.7639 19.6383C23.9669 19.8648 24.1273 20.1547 24.2633 20.5409C24.367 20.8356 24.3787 20.9232 24.3779 21.4021C24.3771 21.8722 24.3642 21.9708 24.2683 22.236C24.1173 22.6543 23.9297 22.9509 23.6151 23.2693C23.0497 23.8414 22.3228 24.1582 21.2738 24.2896C21.0914 24.3124 20.56 24.3508 20.0927 24.375C18.9153 24.4359 18.1403 24.5617 17.4439 24.8048C17.3438 24.8398 17.2544 24.861 17.2453 24.852C17.2172 24.8241 17.6913 24.5431 18.0829 24.3556C18.6351 24.0911 19.1847 23.9468 20.4163 23.7429C21.0247 23.6421 21.6529 23.5199 21.8125 23.4712C23.3191 23.012 24.0935 21.8268 23.8456 20.3597Z" fill="#F50DB4"/>
<path d="M25.2648 22.8653C24.8536 21.9863 24.7591 21.1376 24.9844 20.3462C25.0086 20.2616 25.0473 20.1924 25.0706 20.1924C25.0939 20.1924 25.191 20.2445 25.2862 20.3083C25.4757 20.4351 25.8558 20.6487 26.8684 21.1977C28.132 21.8826 28.8524 22.413 29.3423 23.019C29.7714 23.5497 30.0369 24.1541 30.1647 24.8911C30.237 25.3086 30.1946 26.3132 30.0869 26.7336C29.7472 28.0591 28.9576 29.1004 27.8314 29.7079C27.6664 29.7969 27.5183 29.87 27.5023 29.8703C27.4862 29.8707 27.5464 29.7187 27.6359 29.5326C28.0147 28.7452 28.0578 27.9793 27.7714 27.1267C27.596 26.6047 27.2385 25.9678 26.5165 24.8913C25.6771 23.6397 25.4713 23.3066 25.2648 22.8653Z" fill="#F50DB4"/>
<path d="M13.6388 27.608C14.7874 26.6437 16.2166 25.9587 17.5185 25.7484C18.0795 25.6578 19.0142 25.6937 19.5337 25.826C20.3665 26.0379 21.1114 26.5125 21.4988 27.0779C21.8775 27.6306 22.0399 28.1122 22.209 29.1837C22.2758 29.6064 22.3483 30.0309 22.3703 30.127C22.4973 30.6823 22.7444 31.1262 23.0507 31.3491C23.5372 31.7031 24.3748 31.7251 25.1989 31.4055C25.3387 31.3513 25.4601 31.3138 25.4687 31.3223C25.4985 31.3518 25.0836 31.628 24.7909 31.7733C24.397 31.969 24.0838 32.0446 23.6676 32.0446C22.9129 32.0446 22.2864 31.6629 21.7635 30.8845C21.6606 30.7313 21.4294 30.2725 21.2496 29.8649C20.6976 28.6131 20.425 28.2317 19.7841 27.8144C19.2263 27.4512 18.5069 27.3862 17.9657 27.65C17.2549 27.9965 17.0566 28.8997 17.5657 29.4721C17.768 29.6996 18.1454 29.8959 18.454 29.934C19.0312 30.0054 19.5273 29.5688 19.5273 28.9893C19.5273 28.613 19.3819 28.3983 19.0157 28.234C18.5156 28.0097 17.978 28.2719 17.9806 28.739C17.9817 28.9382 18.069 29.0633 18.2698 29.1537C18.3986 29.2116 18.4016 29.2162 18.2966 29.1945C17.8377 29.0999 17.7302 28.5499 18.0991 28.1847C18.5421 27.7464 19.458 27.9398 19.7725 28.5382C19.9047 28.7895 19.92 29.29 19.8048 29.5922C19.547 30.2687 18.7952 30.6244 18.0325 30.4309C17.5133 30.299 17.3019 30.1563 16.6758 29.5152C15.588 28.401 15.1657 28.1851 13.5974 27.9417L13.2969 27.8951L13.6388 27.608Z" fill="#F50DB4"/>
<path fill-rule="evenodd" clip-rule="evenodd" d="M8.53502 7.66642C12.1679 12.0504 14.67 13.8591 14.9481 14.2413C15.1776 14.5568 15.0912 14.8405 14.6979 15.0628C14.4792 15.1864 14.0295 15.3117 13.8044 15.3117C13.5497 15.3117 13.4623 15.214 13.4623 15.214C13.3147 15.0748 13.2315 15.0991 12.4733 13.7609C11.4207 12.1369 10.5397 10.7897 10.5157 10.7671C10.4601 10.715 10.4611 10.7167 12.366 14.1056C12.6737 14.8119 12.4272 15.0712 12.4272 15.1718C12.4272 15.3764 12.371 15.484 12.1171 15.7656C11.6939 16.2351 11.5047 16.7626 11.3681 17.8544C11.215 19.0782 10.7844 19.9427 9.59119 21.4223C8.89272 22.2884 8.77843 22.4472 8.60219 22.7962C8.3802 23.2358 8.31916 23.4821 8.29442 24.0372C8.26827 24.6241 8.3192 25.0032 8.49954 25.5644C8.65742 26.0556 8.82223 26.38 9.24355 27.0289C9.60714 27.5888 9.81649 28.0049 9.81649 28.1677C9.81649 28.2972 9.84136 28.2973 10.4048 28.1709C11.7531 27.8681 12.8479 27.3357 13.4637 26.6832C13.8448 26.2793 13.9342 26.0563 13.9371 25.5029C13.939 25.1409 13.9262 25.0651 13.8278 24.8568C13.6676 24.5179 13.3759 24.236 12.7331 23.7991C11.8909 23.2266 11.5311 22.7658 11.4318 22.1319C11.3503 21.6119 11.4448 21.245 11.9108 20.274C12.393 19.2689 12.5126 18.8407 12.5934 17.8276C12.6456 17.1731 12.7179 16.915 12.9071 16.7078C13.1043 16.4917 13.2819 16.4186 13.77 16.3523C14.5659 16.2442 15.0727 16.0394 15.4892 15.6578C15.8506 15.3267 16.0018 15.0077 16.025 14.5275L16.0426 14.1634L15.8407 13.9293C15.1094 13.0816 8.04528 7 8.00028 7C7.99066 7 8.23131 7.29991 8.53502 7.66642ZM10.227 24.7013C10.3923 24.4101 10.3045 24.0358 10.0279 23.853C9.7666 23.6802 9.36066 23.7616 9.36066 23.9867C9.36066 24.0554 9.39886 24.1054 9.48498 24.1495C9.62997 24.2237 9.6405 24.3071 9.52642 24.4776C9.41088 24.6503 9.42021 24.8021 9.55273 24.9052C9.76631 25.0715 10.0687 24.9801 10.227 24.7013Z" fill="#F50DB4"/>
<path fill-rule="evenodd" clip-rule="evenodd" d="M16.5457 16.5435C16.1721 16.6576 15.8089 17.0513 15.6965 17.4642C15.6279 17.716 15.6668 18.1578 15.7696 18.2942C15.9355 18.5146 16.096 18.5726 16.5306 18.5696C17.3814 18.5637 18.1211 18.2009 18.2071 17.7473C18.2776 17.3755 17.9527 16.8602 17.5053 16.634C17.2744 16.5173 16.7833 16.471 16.5457 16.5435ZM17.5404 17.3168C17.6716 17.1315 17.6142 16.9311 17.391 16.7956C16.966 16.5376 16.3234 16.7511 16.3234 17.1503C16.3234 17.349 16.6585 17.5658 16.9657 17.5658C17.1702 17.5658 17.45 17.4445 17.5404 17.3168Z" fill="#F50DB4"/>
</g>
<defs>
<clipPath id="clip0_6637_198">
<rect width="24" height="26" fill="white" transform="translate(8 7)"/>
</clipPath>
</defs>
</svg>
