<svg width="40" height="40" viewBox="0 0 40 40" fill="none" xmlns="http://www.w3.org/2000/svg">
<rect width="40" height="40" fill="#050A10"/>
<path d="M23.5555 14.6141V10.9375L16.3958 14.4329L20.1219 16.2679L23.5555 14.6141Z" fill="url(#paint0_linear_6573_27)"/>
<path d="M24.1917 24.8415L28.4076 26.9647L28.3779 19.4561L24.2266 21.5274L24.1917 24.8415Z" fill="url(#paint1_linear_6573_27)"/>
<path d="M20.094 31.0813L24.1472 29.0617L24.2636 17.9912L20.0664 20.0255L20.094 31.0813Z" fill="#0D1C2B"/>
<path d="M16.4401 25.5663L12.7564 27.4304V19.9995L16.4549 21.8119L16.4401 25.5663Z" fill="url(#paint2_linear_6573_27)"/>
<path d="M20.1513 9.09912L9.11763 14.5163L20.0664 20.0255L24.2636 17.9912L31.0703 14.6659L27.3129 12.7499L23.5555 14.6141L20.1219 16.2679L16.3958 14.4329L23.5555 10.9374L20.1513 9.09912Z" fill="#5EA9FF"/>
<path d="M9.0881 25.6438L9.11763 14.5161L20.0664 20.0254L20.094 31.0812L16.4254 29.2649L16.4549 21.8118L12.7564 19.9995V27.4304L9.0881 25.6438Z" fill="#37679E"/>
<path d="M31.0703 14.666L24.2636 17.9913L24.2266 21.5274L28.3779 19.456L28.4076 26.9646L31.0703 25.67V14.666Z" fill="#0D1C2B"/>
<path d="M24.2266 21.5273L20.0754 23.6074L20.0664 20.0255L24.2636 17.9912L24.2266 21.5273Z" fill="#0D1C2B"/>
<path d="M9.17612 25.5888L12.6684 27.2897V19.8584L16.5431 21.7571L16.5428 21.8121L16.5135 29.2104L20.0057 30.9392L19.9786 20.0796L9.20506 14.6584L9.17612 25.5888ZM20.1634 23.6613L20.1816 30.9392L24.0599 29.0067L24.137 21.6702L20.1634 23.6613ZM12.8444 27.2872L16.3522 25.512L16.3667 21.8665L12.8444 20.1403V27.2872ZM24.3509 18.0461L24.3158 21.3842L28.4653 19.3139L28.4949 26.824L30.9824 25.6146V14.8064L24.3509 18.0461ZM24.3138 21.5818L24.2802 24.7873L28.319 26.8213L28.2905 19.5976L24.3138 21.5818ZM20.1544 20.0803L20.1629 23.4649L24.1391 21.4725L24.1743 18.132L20.1544 20.0803ZM9.31519 14.517L20.0671 19.9272L24.2253 17.9119L30.8734 14.6639L27.3123 12.8481L23.5946 14.6927L23.5937 14.6931L20.1215 16.3655L20.0831 16.3466L16.1961 14.4324L23.3631 10.9332L20.1493 9.19778L9.31519 14.517ZM16.5955 14.4329L20.1222 16.1699L23.4676 14.5585V11.078L16.5955 14.4329ZM23.6435 14.472L27.2738 12.6709L27.3134 12.6513L31.1582 14.6118V25.7247L31.1087 25.7487L28.4069 27.0624L24.278 24.983L24.2352 29.0625L24.2345 29.1162L20.0941 31.1793L20.055 31.1599L16.3372 29.3193L16.3515 25.7095L12.7572 27.5285L9 25.6987L9.02987 14.4612L20.1532 9L23.6435 10.8848V14.472Z" fill="url(#paint3_linear_6573_27)"/>
<defs>
<linearGradient id="paint0_linear_6573_27" x1="21.1783" y1="16.7929" x2="21.1783" y2="4.48292" gradientUnits="userSpaceOnUse">
<stop offset="0.045" stop-color="#050A10"/>
<stop offset="0.291325" stop-color="#254A76"/>
</linearGradient>
<linearGradient id="paint1_linear_6573_27" x1="24.4735" y1="21.8505" x2="27.773" y2="26.2454" gradientUnits="userSpaceOnUse">
<stop offset="0.045" stop-color="#050A10"/>
<stop offset="0.791119" stop-color="#254A76"/>
</linearGradient>
<linearGradient id="paint2_linear_6573_27" x1="16.7819" y1="21.1892" x2="12.8251" y2="27.7839" gradientUnits="userSpaceOnUse">
<stop offset="0.045" stop-color="#050A10"/>
<stop offset="0.67" stop-color="#254A76"/>
</linearGradient>
<linearGradient id="paint3_linear_6573_27" x1="24.7897" y1="10.2765" x2="10.2657" y2="24.0154" gradientUnits="userSpaceOnUse">
<stop stop-color="#5EA9FF"/>
<stop offset="0.431958" stop-color="#5EA9FF"/>
<stop offset="0.64259" stop-color="#5EA9FF"/>
<stop offset="1" stop-color="#37679E"/>
</linearGradient>
</defs>
</svg>
