<svg width="40" height="40" viewBox="0 0 40 40" fill="none" xmlns="http://www.w3.org/2000/svg">
<rect width="40" height="40" fill="white"/>
<path d="M15.2199 11L18.7618 14.5684L14.9642 18.3944C13.1679 20.2042 13.1679 23.1385 14.9642 24.9484C16.6464 26.6431 19.3073 26.7509 21.1139 25.2717L20.0168 26.377C17.3675 29.0461 13.0723 29.0461 10.423 26.377L9.98693 25.9377C7.33769 23.2686 7.33769 18.9412 9.98693 16.2721L15.2199 11Z" fill="#161616"/>
<path d="M24.7801 28.7074L21.2382 25.139L25.0357 21.313C26.8322 19.5031 26.8322 16.5688 25.0357 14.759C23.3536 13.0643 20.6927 12.9565 18.8861 14.4358L19.9832 13.3304C22.6325 10.6613 26.9278 10.6613 29.577 13.3304L30.0131 13.7698C32.6623 16.4388 32.6623 20.7662 30.0131 23.4353L24.7801 28.7074Z" fill="#161616"/>
</svg>
