<svg width="40" height="40" viewBox="0 0 40 40" fill="none" xmlns="http://www.w3.org/2000/svg">
<rect width="40" height="40" fill="black"/>
<path d="M24.5158 18.6085C25.466 18.5345 25.5 19.8172 25.3193 20.4676C25.1234 21.1716 24.2799 22.4234 23.4153 21.9553C22.3216 21.3632 23.2225 18.7096 24.5158 18.6085Z" fill="white"/>
<path d="M14.9635 29.587C15.8674 29.5746 16.5863 30.8757 16.6474 31.668C16.7156 32.5553 16.2152 33.2853 15.2939 32.7735C14.5065 32.3361 13.9281 30.9925 14.2458 30.1338C14.3618 29.8204 14.6172 29.592 14.9632 29.587H14.9635Z" fill="white"/>
<path d="M24.3906 29.6448C25.2536 29.5273 25.4353 30.4642 25.3144 31.1266C25.2121 31.6868 24.8348 32.3905 24.3586 32.7129C23.9572 32.9848 23.4615 33.0911 23.1276 32.6586C22.4667 31.8021 23.3263 29.7896 24.3903 29.6448H24.3906Z" fill="white"/>
<path d="M6.31694 15.1366C7.77394 14.887 8.74517 17.9383 7.54299 18.4089C6.62415 18.7685 5.82993 17.3732 5.71337 16.6242C5.6399 16.153 5.71926 15.2389 6.31694 15.1366Z" fill="white"/>
<path d="M32.6676 15.0442C33.5588 14.9174 33.6816 15.9717 33.5597 16.618C33.4233 17.3403 32.6198 18.7009 31.7332 18.3184C30.6132 17.8351 31.4747 15.214 32.6679 15.0442H32.6676Z" fill="white"/>
<path d="M32.5439 25.7706C32.8312 25.7644 33.0836 25.9638 33.1949 26.2186C33.5563 27.0457 33.0284 28.4453 32.25 28.8871C31.931 29.0681 31.5429 29.1152 31.2803 28.8152C30.5679 27.9999 31.4372 25.7951 32.5436 25.771L32.5439 25.7706Z" fill="white"/>
<path d="M17.9302 13.0409C17.5337 12.6351 18.11 12.3167 18.4528 12.2063C19.0982 11.998 19.9641 11.9865 20.616 12.1688C21.7494 12.486 21.5779 13.1366 20.5295 13.384C19.8801 13.5372 18.4305 13.553 17.9305 13.0412L17.9302 13.0409Z" fill="white"/>
<path d="M15.0605 10.4262C15.5472 10.4005 16.5023 10.4842 16.8811 10.8193C17.2478 11.1435 16.9409 11.421 16.6068 11.5695C15.9201 11.8745 14.6975 11.8733 14.0046 11.5875C13.5595 11.4039 13.2802 11.0757 13.7982 10.7449C14.1274 10.5347 14.6721 10.4467 15.0602 10.4259L15.0605 10.4262Z" fill="white"/>
<path d="M10.6275 8.87623C11.1074 8.83004 11.7308 8.85391 12.1905 8.99992C12.512 9.10191 13.0632 9.3744 12.7274 9.76717C12.2345 10.3441 9.9954 10.3456 9.50126 9.76717C9.00712 9.18871 10.271 8.91064 10.6275 8.87623Z" fill="white"/>
<path d="M27.7085 8.75207C28.1471 8.72913 28.7284 8.78369 29.1404 8.94489C29.7471 9.18266 29.8574 9.59372 29.2024 9.87365C28.5294 10.1613 27.3036 10.1613 26.6306 9.87365C26.1563 9.67091 25.9818 9.33394 26.5054 9.03665C26.8427 8.84507 27.3241 8.7716 27.7085 8.75176V8.75207Z" fill="white"/>
<path d="M25.2241 7.63762C25.6194 8.06294 24.8487 8.34876 24.5282 8.42378C23.9039 8.56979 23.0591 8.56359 22.4515 8.34876C22.1734 8.25049 21.7084 8.00528 21.9977 7.66025C22.4748 7.0914 24.7254 7.10101 25.2238 7.63762H25.2241Z" fill="white"/>
<path d="M19.0288 5.77634C19.5471 5.73263 20.5841 5.76549 20.9883 6.12323C21.5779 6.64496 20.3572 6.92644 20.0075 6.97201C19.5217 7.03525 18.101 7.01014 17.8245 6.52809C17.5321 6.01907 18.73 5.80145 19.0288 5.77603V5.77634Z" fill="white"/>
</svg>
