<svg width="40" height="40" viewBox="0 0 40 40" fill="none" xmlns="http://www.w3.org/2000/svg">
<rect width="40" height="40" fill="white"/>
<path d="M19.7175 17.3978C19.1278 16.779 18.3081 16.0387 17.2584 15.1768C16.1025 14.2265 15.3241 13.4807 14.9231 12.9392C14.5221 12.3867 14.3216 11.7845 14.3216 11.1326C14.3216 10.1602 14.8051 9.3978 15.7723 8.8453C16.7394 8.28177 18.0014 8 19.5583 8C21.1151 8 22.4715 8.24862 23.6273 8.74586C24.795 9.24309 25.3788 9.92817 25.3788 10.8011C25.3788 11.221 25.2372 11.5691 24.9542 11.8453C24.6711 12.1215 24.3409 12.2597 23.9635 12.2597C23.4209 12.2597 22.784 11.8784 22.0528 11.116C21.3097 10.3425 20.6787 9.8011 20.1598 9.49171C19.6526 9.17127 19.057 9.01105 18.3729 9.01105C17.5001 9.01105 16.7807 9.19337 16.2146 9.55801C15.6602 9.92265 15.3831 10.3867 15.3831 10.9503C15.3831 11.4807 15.6131 11.9779 16.073 12.442C16.533 12.9061 17.7183 13.7514 19.629 14.9779C21.6694 16.2928 23.1084 17.3204 23.9458 18.0608C24.795 18.8011 25.4849 19.7017 26.0157 20.7625C26.5464 21.8232 26.8117 22.9448 26.8117 24.127C26.8117 26.2045 26.0274 28.0387 24.4588 29.6299C22.9019 31.2099 21.0797 32 18.9921 32C17.0932 32 15.4892 31.3646 14.18 30.0939C12.8709 28.8232 12.2163 27.127 12.2163 25.0056C12.2163 22.9614 12.9357 21.2541 14.3746 19.884C15.8253 18.5138 17.6063 17.6851 19.7175 17.3978ZM20.4959 18.1602C17.1109 18.6796 15.4184 20.8563 15.4184 24.6906C15.4184 26.6685 15.8371 28.2044 16.6745 29.2983C17.5237 30.3922 18.5086 30.9392 19.629 30.9392C20.7967 30.9392 21.7579 30.4143 22.5127 29.3647C23.2676 28.3039 23.645 26.8729 23.645 25.0718C23.645 22.4641 22.5953 20.1602 20.4959 18.1602Z" fill="#080808"/>
<path d="M17.9763 22.8081H17.6854V26.8527H17.9763C17.9763 26.3782 18.0669 26.0377 18.2481 25.8311C18.4293 25.6246 18.747 25.5213 19.2012 25.5213H19.8367C20.3113 25.5213 20.638 25.6246 20.8166 25.8311C20.9952 26.0377 21.0846 26.3782 21.0846 26.8527H21.3755V22.8081H21.0846C21.0846 23.2939 20.9927 23.6386 20.809 23.8424C20.6252 24.0461 20.3062 24.148 19.852 24.148H19.2319C18.7521 24.148 18.4229 24.0447 18.2443 23.8382C18.0656 23.6315 17.9763 23.2882 17.9763 22.8081Z" fill="#080808"/>
</svg>
