<svg width="40" height="40" viewBox="0 0 40 40" fill="none" xmlns="http://www.w3.org/2000/svg">
<rect width="40" height="40" fill="black"/>
<path d="M23.0515 8.09485C23.0832 8.21395 23.107 8.33304 23.1467 8.45214C23.4802 9.47636 23.8137 10.4926 24.1471 11.5169C24.163 11.5566 24.171 11.6042 24.1868 11.6598C24.1233 11.6598 24.0677 11.6598 24.0201 11.6598C23.2023 11.6598 22.3845 11.6598 21.5747 11.6598C18.6687 11.6598 15.7628 11.6598 12.8569 11.6598C12.3329 11.6598 11.8088 11.6677 11.2928 11.6757C11.2372 11.6757 11.1816 11.6757 11.1101 11.6757C11.126 11.6121 11.1419 11.5566 11.1578 11.5089C11.5151 10.3894 11.8803 9.27787 12.2376 8.15837C12.2376 8.13455 12.2455 8.11073 12.2535 8.08691C15.8581 8.08691 19.4627 8.08691 23.0673 8.08691L23.0515 8.09485Z" fill="white"/>
<path d="M27.7122 8.09473C27.7122 8.09473 27.7122 8.16618 27.7281 8.19794C28.2283 9.73825 28.7364 11.2785 29.2366 12.8189C29.8242 14.6291 30.4117 16.4314 30.9992 18.2417C31.0151 18.2893 31.0231 18.3369 31.0389 18.3925C30.0385 19.123 29.0461 19.8455 28.0298 20.5839C27.9742 20.4171 27.9266 20.2742 27.8789 20.1313C27.5772 19.2103 27.2755 18.2893 26.9817 17.3683C26.6483 16.3361 26.3069 15.296 25.9734 14.2639C25.5605 13.0094 25.1556 11.747 24.7427 10.4925C24.5046 9.74619 24.2584 9.00779 24.0202 8.26146C24.0044 8.20588 23.9964 8.15824 23.9805 8.10267C25.2271 8.10267 26.4736 8.10267 27.7122 8.10267V8.09473Z" fill="white"/>
<path d="M23.0043 29.714C21.988 30.4523 20.9955 31.1828 19.9872 31.9133C17.0733 29.8013 14.1674 27.6973 11.2694 25.5932C11.2694 25.4821 12.3174 22.2268 12.4127 22.0283C15.9379 24.5849 19.4632 27.1415 23.0043 29.714Z" fill="white"/>
<path d="M23.7584 29.1666C22.75 28.4361 21.7576 27.7136 20.7413 26.9752C24.2745 24.4027 27.7997 21.8382 31.3408 19.2578C31.7298 20.4488 32.111 21.6238 32.5 22.8148C29.5941 24.9268 26.6802 27.0467 23.7663 29.1666H23.7584Z" fill="white"/>
<path d="M10.4907 25.0299C10.2445 24.8473 10.0222 24.6885 9.7999 24.5218C9.06945 23.9898 8.339 23.4658 7.61649 22.9338C7.48151 22.8386 7.48151 22.8386 7.52915 22.6798C7.68794 22.1796 7.84674 21.6873 8.01347 21.1871C8.55337 19.5356 9.08533 17.8762 9.62523 16.2248C10.0063 15.0497 10.3874 13.8826 10.7685 12.7075C10.8162 12.5566 10.8162 12.5566 10.975 12.5566C12.0945 12.5566 13.214 12.5566 14.3335 12.5566C14.3891 12.5566 14.4526 12.5566 14.5082 12.5566C14.5399 12.644 14.5002 12.6996 14.4764 12.7631C14.262 13.4379 14.0397 14.1049 13.8253 14.7798C13.2299 16.6218 12.6344 18.4558 12.0389 20.2979C11.5705 21.7508 11.0941 23.2038 10.6256 24.6567C10.5859 24.7758 10.5542 24.8949 10.5065 25.0299H10.4907Z" fill="white"/>
<path d="M15.6991 23.323C14.6828 22.5846 13.6824 21.862 12.682 21.1316C12.7456 20.9331 12.8091 20.7426 12.8647 20.552C13.2378 19.4087 13.603 18.2654 13.9762 17.122C14.008 17.0215 14.0768 16.9712 14.1826 16.9712C15.2942 16.9712 16.4137 16.9712 17.5253 16.9712C17.5888 16.9712 17.6523 16.9712 17.7079 16.9712C17.7238 16.9871 17.7238 16.995 17.7317 16.995C17.7317 16.995 17.7317 17.0029 17.7317 17.0109C17.7317 17.0347 17.7317 17.0585 17.7158 17.0823C17.0409 19.1546 16.374 21.2269 15.6912 23.315L15.6991 23.323Z" fill="white"/>
<path d="M26.124 17.5747C26.5131 18.7657 26.8942 19.9407 27.2832 21.1238C26.1082 21.9733 24.9331 22.8229 23.758 23.6883C22.7576 22.9658 21.7572 22.2353 20.733 21.4969C22.5353 20.1789 24.3217 18.8848 26.124 17.5747Z" fill="white"/>
<path d="M23.0035 24.2359C21.9872 24.9743 20.9948 25.6968 19.9785 26.4352C18.8034 25.5857 17.6283 24.7361 16.4453 23.8786C16.8264 22.6956 17.2075 21.5205 17.5966 20.3296C19.3989 21.6396 21.1932 22.9338 22.9956 24.2439L23.0035 24.2359Z" fill="white"/>
<path d="M20.9714 16.0976H14.3338C14.3497 16.05 14.3497 16.0103 14.3656 15.9785C14.7229 14.8749 15.0802 13.7713 15.4375 12.6756C15.4692 12.5645 15.4692 12.5645 15.6121 12.5645C16.4696 12.5645 17.3271 12.5645 18.1846 12.5645C18.6927 12.5645 19.2009 12.5645 19.709 12.5645C19.8361 12.5645 19.8361 12.5645 19.8758 12.6835C20.241 13.7951 20.5983 14.9067 20.9635 16.0182C20.9635 16.042 20.9714 16.0659 20.9794 16.1056L20.9714 16.0976Z" fill="white"/>
<path d="M20.7724 12.549H24.4882C24.9407 13.9305 25.3853 15.304 25.8379 16.6855C24.8375 17.416 23.845 18.1385 22.8446 18.861C22.7732 18.7657 20.8279 12.8268 20.7724 12.541V12.549Z" fill="white"/>
</svg>
