<svg width="40" height="40" viewBox="0 0 40 40" fill="none" xmlns="http://www.w3.org/2000/svg">
<rect width="40" height="40" fill="white"/>
<g clip-path="url(#clip0_6669_16)">
<path d="M29.5999 10.2463C29.5999 12.0125 25.3018 13.4442 19.9999 13.4442C14.698 13.4442 10.3999 12.0125 10.3999 10.2463C10.3999 8.48011 14.698 7.04834 19.9999 7.04834C25.3018 7.04834 29.5999 8.48011 29.5999 10.2463Z" fill="black"/>
<path d="M36 27.622C36 25.4452 32.083 23.5734 26.469 22.7456L26.3236 22.7751C24.4301 23.1476 22.2798 23.3581 20 23.3581C17.6615 23.3581 15.4593 23.1365 13.5309 22.7456C7.91693 23.5734 3.99995 25.4452 3.99995 27.622C3.99995 30.5656 11.1633 32.952 20 32.952C28.8366 32.952 36 30.5656 36 27.622Z" fill="black"/>
<path d="M32.8 18.0278C32.8 16.1442 29.1341 14.5461 24.0494 13.9814L23.9182 14.0026C22.7082 14.1923 21.3854 14.2967 20 14.2967C18.5642 14.2967 17.1959 14.1846 15.9505 13.9816C10.8658 14.5459 7.19997 16.1443 7.19997 18.0278C7.19997 20.3827 12.9307 22.2917 20 22.2917C27.0692 22.2917 32.8 20.3827 32.8 18.0278Z" fill="black"/>
</g>
<defs>
<clipPath id="clip0_6669_16">
<rect width="32" height="26" fill="white" transform="translate(4 7)"/>
</clipPath>
</defs>
</svg>
