<svg width="40" height="40" viewBox="0 0 40 40" fill="none" xmlns="http://www.w3.org/2000/svg">
<g clip-path="url(#clip0_6191_11)">
<path d="M40 0H0V40H40V0Z" fill="white"/>
<path d="M20.2119 32.0679C20.2119 32.0679 30.423 27.2247 30.423 21.6615C30.423 17.347 30.423 14.5443 30.423 10.2298C23.9406 7.25937 16.484 7.25629 10 10.2233C10.0059 14.54 10.0006 17.3448 10.0006 21.6615C10.0006 27.2247 20.2119 32.0679 20.2119 32.0679Z" fill="#1647DB"/>
<path fill-rule="evenodd" clip-rule="evenodd" d="M18.0972 11.9741H19.4148V13.2809H20.7324V11.9741H22.0499V13.39C23.5451 13.7171 24.4436 14.7593 24.4436 16.2456C24.4436 17.2902 23.8157 18.2273 22.7208 18.5498C23.9606 18.8724 24.6851 19.8863 24.6851 21.0077C24.6851 22.6126 23.724 23.6936 22.0499 24.0466V25.4792H20.7324V24.1721H19.4148V25.4792H18.0972V24.1721H16.7796V13.2809H18.0972V11.9741ZM22.3344 16.3531C22.3344 15.4929 21.6904 14.986 20.5794 14.986H18.8405V17.7203H20.6921C21.7226 17.7203 22.3344 17.2134 22.3344 16.3531ZM22.5759 20.9001C22.5759 19.8863 21.948 19.3794 20.7082 19.3794H18.8405V22.3902H20.5955C21.8192 22.3902 22.5759 21.8218 22.5759 20.9001Z" fill="white"/>
</g>
<defs>
<clipPath id="clip0_6191_11">
<rect width="40" height="40" fill="white"/>
</clipPath>
</defs>
</svg>
