<svg width="40" height="40" viewBox="0 0 40 40" fill="none" xmlns="http://www.w3.org/2000/svg">
<rect width="40" height="40" fill="black"/>
<path d="M25.1798 22.8428C24.2108 24.6306 22.329 25.8413 20.1676 25.8413C17.0372 25.8413 14.4659 23.2897 14.4659 20.1423C14.4659 17.0136 17.0186 14.4435 20.1676 14.4435C22.329 14.4435 24.2108 15.6541 25.1798 17.4419L28.012 15.9148C26.5027 13.1212 23.5587 11.2402 20.1676 11.2402C15.2485 11.2402 11.261 15.2257 11.261 20.1423C11.261 25.059 15.2485 29.0445 20.1676 29.0445C23.5587 29.0445 26.5027 27.1449 28.012 24.37L25.1798 22.8428Z" fill="#50ACD6"/>
<path d="M8 20.1426C8 13.4381 13.4407 8 20.1486 8V32.2853C13.4594 32.2853 8 26.8658 8 20.1426Z" fill="#50ACD6"/>
<path fill-rule="evenodd" clip-rule="evenodd" d="M20.1676 25.8413V29.0445C15.2485 29.0445 11.261 25.059 11.261 20.1423C11.261 15.2257 15.2485 11.2402 20.1676 11.2402V14.4435C17.0372 14.4435 14.4659 16.995 14.4659 20.1423C14.4659 23.2897 17.0186 25.8413 20.1676 25.8413Z" fill="white"/>
</svg>
