<svg width="40" height="40" viewBox="0 0 40 40" fill="none" xmlns="http://www.w3.org/2000/svg">
<rect width="40" height="40" fill="white"/>
<path d="M7.64303 16.4879C7.56165 16.5135 7.48027 16.539 7.31422 16.5593C7.1593 16.5995 7.08906 16.6451 7.01883 16.6906C7.00151 16.4578 6.98419 16.2249 7.02548 15.9257C7.09814 15.7775 7.1122 15.6959 7.12625 15.6142C7.18688 15.4431 7.2475 15.2719 7.36914 15.0496C7.46137 14.9049 7.49257 14.8114 7.52377 14.7179C8.06149 14.0887 8.59921 13.4596 9.22173 12.8124C9.62228 12.6205 9.93803 12.4465 10.2538 12.2725C10.3767 12.2524 10.4996 12.2322 10.7286 12.2356C11.0018 12.247 11.1691 12.2348 11.3364 12.2226C11.6332 12.3243 11.9301 12.426 12.2703 12.5966C12.4017 12.7094 12.4898 12.7534 12.5778 12.7974C12.5778 12.7974 12.5811 12.7945 12.5772 12.8398C12.5756 12.9717 12.5779 13.0584 12.5802 13.1451C12.1872 13.1436 11.7942 13.1421 11.3243 13.1169C11.1641 13.132 11.0808 13.171 10.9975 13.2099C10.5911 13.4361 10.1847 13.6624 9.70208 13.9197C9.57707 14.0405 9.52821 14.1301 9.47936 14.2198C9.41323 14.314 9.3471 14.4083 9.21565 14.5604C9.22324 14.7393 9.29311 14.962 9.36955 14.9643C9.7697 14.9762 10.1715 14.9322 10.5727 14.9077C10.6552 14.9213 10.7376 14.9349 10.8806 15.002C11.024 15.068 11.1069 15.0804 11.1897 15.0928C11.2576 15.1197 11.3255 15.1465 11.3957 15.2373C11.368 15.3798 11.3379 15.4583 11.3079 15.5367C9.84559 16.3708 9.03127 17.6051 8.88667 19.4491C10.1009 18.6693 11.2648 18.2582 12.6706 18.6373C12.0774 19.6441 11.5516 20.6181 11.6281 21.7299C12.4924 21.5867 13.3089 21.4407 14.1292 21.3203C14.5098 21.2644 14.7307 21.3701 14.8438 21.8338C14.9772 22.3809 15.3076 22.8799 15.4992 23.5392C15.0207 23.2628 14.5057 23.033 14.0747 22.696C13.7011 22.4038 13.3754 22.3448 12.9522 22.5227C12.007 22.9198 11.32 23.5633 11.0073 24.5503C10.7774 25.2757 11.1042 25.6663 11.8427 25.5361C12.2165 25.4702 12.5795 25.3102 12.9307 25.1551C13.903 24.7256 14.8871 24.4669 15.9293 24.8855C16.896 25.2738 17.3573 26.0559 17.4349 27.0406C17.5341 28.2996 16.5713 29.175 15.3011 29.0081C14.7274 28.9328 14.1655 28.7639 13.6 28.6297C13.1214 28.5161 12.9433 28.7286 13.0196 29.1766C13.182 30.129 13.796 30.7419 14.6102 31.1691C16.4188 32.1179 18.2106 32.0117 19.9803 31.0426C21.1487 30.4028 22.2794 29.6697 23.5031 29.1618C25.1486 28.4788 26.6701 28.9232 27.9967 30.0738C28.3867 30.4121 28.7466 30.7937 29.1697 31.0831C29.7776 31.4989 30.3219 31.2692 30.4798 30.5492C30.6768 29.6508 30.5601 28.7706 30.0569 28.0002C29.6591 27.3913 29.1776 26.8337 28.7015 26.2807C28.4421 25.9795 28.1166 25.7351 27.8209 25.465C27.856 25.4097 27.8911 25.3544 27.9261 25.299C28.1215 25.3436 28.3371 25.3496 28.5085 25.4397C29.0935 25.7472 29.4572 25.4795 29.8073 25.0298C30.6796 23.9095 31.2703 22.684 31.1862 21.232C31.1299 20.2584 30.5242 19.8724 29.8505 20.3339C29.6839 20.448 29.533 20.641 29.462 20.8304C28.193 24.2135 25.4772 25.3762 22.156 25.5701C21.1799 25.6271 20.1997 25.5311 19.1774 25.0535C20.345 24.9476 21.3889 24.8944 22.4199 24.7494C23.8631 24.5465 25.2385 24.1103 26.4267 23.2283C28.5632 21.6426 29.2521 19.028 28.2632 16.3348C28.189 16.1326 28.1019 15.935 28.0291 15.7323C27.652 14.6819 27.6644 14.658 28.7654 14.3427C29.0307 14.2667 29.2994 14.2026 29.6702 14.106C29.0579 13.2126 28.2048 12.7561 27.3209 12.3381C27.3104 12.2714 27.2998 12.2047 27.2893 12.138C28.1778 11.9589 29.0663 11.7798 29.9494 11.6018C29.6915 10.7941 29.03 10.4967 26.2525 10.0166C26.6152 9.71665 26.8744 9.45776 27.1761 9.26548C27.4759 9.07436 27.8184 8.95021 28.1518 8.79213C27.535 7.96359 26.5182 8.0102 25.0797 8.88368C24.9331 8.26238 25.2461 7.71991 25.9391 7.39438C27.4223 6.6976 29.5007 7.69119 29.9322 9.34258C29.7764 9.4417 29.6088 9.54836 29.3576 9.70816C30.4039 10.301 31.3254 10.9678 31.7335 12.1057C31.8301 12.3751 31.8623 12.6677 31.9441 13.0411C31.3881 12.9792 30.9494 12.9303 30.4435 12.874C30.7957 13.6689 31.1225 14.4065 31.5128 15.2874C30.6398 15.2874 29.9693 15.2874 29.2932 15.2874C29.508 16.6076 29.71 17.8488 29.9209 19.1448C29.8891 19.124 29.9233 19.1659 29.9585 19.1667C31.5538 19.2049 32.2723 19.9845 32.1949 21.6123C32.1192 23.204 31.4927 24.5694 30.4635 25.7655C30.3252 25.9261 30.1901 26.0894 30.1667 26.1172C30.64 27.172 31.1754 28.0904 31.4514 29.081C31.6235 29.6985 31.5364 30.4686 31.3316 31.0936C30.929 32.322 29.705 32.6783 28.6088 31.9723C28.2321 31.7296 27.8877 31.4253 27.566 31.1107C26.2151 29.7897 24.7401 29.5776 23.0958 30.5135C22.0484 31.1097 21.0577 31.8231 19.9679 32.3236C17.54 33.4389 15.1895 33.2791 13.0594 31.5576C12.24 30.8953 11.7296 30.0405 11.7585 28.9349C11.7873 27.831 12.6201 27.1294 13.7029 27.3383C14.1875 27.4319 14.6523 27.6396 15.1385 27.7098C15.4232 27.7508 15.914 27.7105 15.9904 27.5519C16.1243 27.2738 16.107 26.8351 15.979 26.5389C15.7739 26.0639 15.2849 25.8713 14.7874 25.9447C14.2849 26.0189 13.8012 26.2154 13.3065 26.3481C12.7501 26.4973 12.193 26.7438 11.6318 26.7568C10.2041 26.7898 9.26283 25.5487 9.87777 24.2688C10.5448 22.8807 10.2504 21.4446 10.4554 20.0145C9.44509 20.7138 8.83319 21.7107 8.25261 22.8084C8.09489 22.756 7.99607 22.674 7.89725 22.5919C7.87537 22.5025 7.8535 22.413 7.85536 22.2559C7.84574 22.1172 7.8124 22.0461 7.77906 21.975C7.76591 21.9304 7.75277 21.8857 7.75859 21.7622C7.74163 21.5657 7.7057 21.4479 7.66977 21.3302C7.65421 21.2043 7.63865 21.0785 7.64316 20.8449C7.64724 20.1429 7.63123 19.5487 7.61523 18.9545C7.62421 18.8691 7.6332 18.7837 7.68655 18.6228C7.78174 18.2538 7.83256 17.9604 7.88338 17.667C7.9159 17.5872 7.94842 17.5073 8.03625 17.3705C8.11186 17.2186 8.13217 17.1237 8.15247 17.0287C8.17053 16.9829 8.18859 16.9371 8.26881 16.8488C8.4503 16.6232 8.56963 16.4403 8.68896 16.2573C8.64705 16.1938 8.60515 16.1303 8.56325 16.0668C8.25651 16.2072 7.94977 16.3475 7.64303 16.4879Z" fill="#2D2D2D"/>
<path d="M17.2193 6.70245C18.7152 6.12432 20.2047 5.85321 21.7572 6.07976C23.0011 6.26128 23.9845 7.14049 24.152 8.28463C24.1899 8.54375 24.0537 8.9478 23.8552 9.10345C22.0475 10.5211 19.9802 11.355 17.6886 11.4801C16.4097 11.5499 15.1186 11.3931 13.8328 11.3464C13.3763 11.3298 13.1807 11.0805 13.1536 10.6534C13.109 9.95174 13.244 9.25241 13.8162 8.84602C14.8947 8.08012 16.0484 7.42024 17.2193 6.70245ZM19.801 8.80764C19.7612 8.3743 19.8829 8.10405 20.3931 8.10588C20.5364 8.1064 20.6805 7.92227 20.8242 7.82284C20.6634 7.71464 20.5118 7.5335 20.3402 7.51201C19.8382 7.44914 19.466 7.6836 19.2699 8.15622C19.0328 8.72785 19.2078 9.48052 19.6587 9.79858C20.1107 10.1174 20.5905 10.1264 21.0317 9.79583C21.1491 9.70787 21.1625 9.48116 21.2237 9.31815C21.0708 9.30819 20.8967 9.24578 20.769 9.29769C20.3108 9.48394 19.9713 9.44773 19.801 8.80764Z" fill="#5555FF"/>
<path d="M14.6975 13.7801C14.3793 13.3589 14.0931 12.9706 13.807 12.5823C13.8336 12.5335 13.8602 12.4847 13.8868 12.4359C17.7077 13.5499 21.3022 13.2891 24.5634 10.7915C26.2939 11.8832 26.3414 13.8749 24.5001 14.8008C23.4949 15.3063 22.3029 15.5515 21.1699 15.6671C19.1422 15.874 17.1822 15.5043 15.4228 14.3873C15.1714 14.2277 14.9596 14.006 14.6975 13.7801Z" fill="#5656FF"/>
<path d="M25.4689 22.7132C23.958 23.3203 22.9262 22.7599 22.6089 21.2184C22.4219 20.3101 22.4434 19.4157 22.7959 18.5535C23.1815 17.61 23.8348 17.4038 24.6941 17.9237C25.8159 18.6025 26.3446 19.6578 26.4989 20.9068C26.5974 21.7039 26.288 22.343 25.4689 22.7132Z" fill="#252525"/>
<path d="M19.426 20.1958C18.9948 19.8176 18.8736 19.3504 19.1757 18.957C19.3745 18.6982 19.8256 18.4646 20.129 18.502C20.4317 18.5393 20.8286 18.8819 20.9284 19.1772C21.0177 19.4412 20.8372 19.8868 20.6343 20.1382C20.3266 20.5195 19.8771 20.4835 19.426 20.1958Z" fill="#303030"/>
<path d="M25.9696 16.4627C26.5442 16.0463 27.0092 16.0601 27.3647 16.4805C27.6915 16.8669 27.6755 17.2933 27.3685 17.6558C27.0433 18.0399 26.6021 18.129 26.1535 17.848C25.7047 17.5669 25.6385 17.0856 25.9696 16.4627Z" fill="#303030"/>
</svg>
