<?xml version="1.0" encoding="UTF-8"?>
<!DOCTYPE svg PUBLIC "-//W3C//DTD SVG 1.1//EN" "http://www.w3.org/Graphics/SVG/1.1/DTD/svg11.dtd">
<svg xmlns="http://www.w3.org/2000/svg" version="1.1" width="40px" height="40px" style="shape-rendering:geometricPrecision; text-rendering:geometricPrecision; image-rendering:optimizeQuality; fill-rule:evenodd; clip-rule:evenodd" xmlns:xlink="http://www.w3.org/1999/xlink">
<g><path style="opacity:1" fill="#930000" d="M 14.5,7.5 C 14.5,7.83333 14.5,8.16667 14.5,8.5C 11.8333,9.5 11.8333,10.5 14.5,11.5C 13.791,12.404 12.791,12.7373 11.5,12.5C 10.7659,11.2921 10.4326,9.95875 10.5,8.5C 11.7079,7.76589 13.0413,7.43255 14.5,7.5 Z"/></g>
<g><path style="opacity:0.624" fill="#fb2500" d="M 18.5,7.5 C 20.1667,8.16667 21.8333,8.83333 23.5,9.5C 22.0813,10.4511 20.4147,10.7845 18.5,10.5C 17.8333,10.5 17.1667,10.5 16.5,10.5C 16.7822,9.22235 17.4489,8.22235 18.5,7.5 Z"/></g>
<g><path style="opacity:1" fill="#870000" d="M 14.5,8.5 C 14.5,9.5 14.5,10.5 14.5,11.5C 11.8333,10.5 11.8333,9.5 14.5,8.5 Z"/></g>
<g><path style="opacity:0.958" fill="#ff5900" d="M 23.5,9.5 C 24.1667,9.83333 24.8333,10.1667 25.5,10.5C 23.3926,11.4682 21.0593,11.8016 18.5,11.5C 18.5,11.1667 18.5,10.8333 18.5,10.5C 20.4147,10.7845 22.0813,10.4511 23.5,9.5 Z"/></g>
<g><path style="opacity:1" fill="#d80400" d="M 10.5,8.5 C 10.4326,9.95875 10.7659,11.2921 11.5,12.5C 11.5,12.8333 11.5,13.1667 11.5,13.5C 10.0937,13.0269 9.42702,12.0269 9.5,10.5C 9.32842,9.50838 9.66175,8.84171 10.5,8.5 Z"/></g>
<g><path style="opacity:1" fill="#ff7a00" d="M 25.5,10.5 C 26.1667,10.8333 26.8333,11.1667 27.5,11.5C 27.1583,12.3382 26.4916,12.6716 25.5,12.5C 22.8333,12.5 20.1667,12.5 17.5,12.5C 17.5,11.8333 17.8333,11.5 18.5,11.5C 21.0593,11.8016 23.3926,11.4682 25.5,10.5 Z"/></g>
<g><path style="opacity:1" fill="#ad0000" d="M 14.5,7.5 C 14.8333,7.5 15.1667,7.5 15.5,7.5C 15.5,9.83333 15.5,12.1667 15.5,14.5C 14.1667,14.5 12.8333,14.5 11.5,14.5C 11.5,14.1667 11.5,13.8333 11.5,13.5C 11.5,13.1667 11.5,12.8333 11.5,12.5C 12.791,12.7373 13.791,12.404 14.5,11.5C 14.5,10.5 14.5,9.5 14.5,8.5C 14.5,8.16667 14.5,7.83333 14.5,7.5 Z"/></g>
<g><path style="opacity:1" fill="#d60200" d="M 15.5,7.5 C 16.5,7.5 17.5,7.5 18.5,7.5C 17.4489,8.22235 16.7822,9.22235 16.5,10.5C 16.5,11.8333 16.5,13.1667 16.5,14.5C 16.1667,14.5 15.8333,14.5 15.5,14.5C 15.5,12.1667 15.5,9.83333 15.5,7.5 Z"/></g>
<g><path style="opacity:1" fill="#fd5300" d="M 16.5,10.5 C 17.1667,10.5 17.8333,10.5 18.5,10.5C 18.5,10.8333 18.5,11.1667 18.5,11.5C 17.8333,11.5 17.5,11.8333 17.5,12.5C 17.5,12.8333 17.5,13.1667 17.5,13.5C 17.5,13.8333 17.5,14.1667 17.5,14.5C 17.1667,14.5 16.8333,14.5 16.5,14.5C 16.5,13.1667 16.5,11.8333 16.5,10.5 Z"/></g>
<g><path style="opacity:1" fill="#ffac00" d="M 17.5,13.5 C 17.5,13.1667 17.5,12.8333 17.5,12.5C 20.1667,12.5 22.8333,12.5 25.5,12.5C 25.8333,13.1667 26.1667,13.8333 26.5,14.5C 26.1667,14.5 25.8333,14.5 25.5,14.5C 25.1667,14.5 24.8333,14.5 24.5,14.5C 22.3926,13.5318 20.0593,13.1984 17.5,13.5 Z"/></g>
<g><path style="opacity:1" fill="#f82400" d="M 9.5,10.5 C 9.42702,12.0269 10.0937,13.0269 11.5,13.5C 11.5,13.8333 11.5,14.1667 11.5,14.5C 11.8333,15.1667 12.1667,15.8333 12.5,16.5C 11.8333,16.5 11.1667,16.5 10.5,16.5C 9.83333,15.1667 9.16667,13.8333 8.5,12.5C 8.32842,11.5084 8.66175,10.8417 9.5,10.5 Z"/></g>
<g><path style="opacity:1" fill="#f7d009" d="M 17.5,13.5 C 20.0593,13.1984 22.3926,13.5318 24.5,14.5C 22.2646,14.2053 20.2646,14.5386 18.5,15.5C 18.5,16.1667 18.5,16.8333 18.5,17.5C 18.1667,17.5 17.8333,17.5 17.5,17.5C 17.5,16.5 17.5,15.5 17.5,14.5C 17.5,14.1667 17.5,13.8333 17.5,13.5 Z"/></g>
<g><path style="opacity:0.969" fill="#ff9d00" d="M 27.5,11.5 C 28.5,11.8333 29.1667,12.5 29.5,13.5C 28.791,14.404 27.791,14.7373 26.5,14.5C 26.1667,13.8333 25.8333,13.1667 25.5,12.5C 26.4916,12.6716 27.1583,12.3382 27.5,11.5 Z"/></g>
<g><path style="opacity:1" fill="#ff8400" d="M 8.5,12.5 C 9.16667,13.8333 9.83333,15.1667 10.5,16.5C 10.5,17.1667 10.8333,17.5 11.5,17.5C 12.5,18.1667 13.5,18.8333 14.5,19.5C 12.8333,19.5 11.1667,19.5 9.5,19.5C 9.77089,17.6203 9.10422,16.287 7.5,15.5C 7.26269,14.209 7.59603,13.209 8.5,12.5 Z"/></g>
<g><path style="opacity:1" fill="#fec500" d="M 29.5,13.5 C 30.1667,13.5 30.5,13.8333 30.5,14.5C 29.8946,16.4812 28.8946,16.8146 27.5,15.5C 26.5084,15.6716 25.8417,15.3382 25.5,14.5C 25.8333,14.5 26.1667,14.5 26.5,14.5C 27.791,14.7373 28.791,14.404 29.5,13.5 Z"/></g>
<g><path style="opacity:1" fill="#e40600" d="M 11.5,14.5 C 12.8333,14.5 14.1667,14.5 15.5,14.5C 15.8333,14.5 16.1667,14.5 16.5,14.5C 15.8166,16.1765 14.4832,16.8432 12.5,16.5C 12.1667,15.8333 11.8333,15.1667 11.5,14.5 Z"/></g>
<g><path style="opacity:1" fill="#e1fb19" d="M 18.5,15.5 C 20.2646,14.5386 22.2646,14.2053 24.5,14.5C 24.8333,14.5 25.1667,14.5 25.5,14.5C 25.8417,15.3382 26.5084,15.6716 27.5,15.5C 27.5,16.1667 27.5,16.8333 27.5,17.5C 27.1667,17.5 26.8333,17.5 26.5,17.5C 24.1617,15.9605 21.4951,15.2938 18.5,15.5 Z"/></g>
<g><path style="opacity:1" fill="#fe2d00" d="M 16.5,14.5 C 16.8333,14.5 17.1667,14.5 17.5,14.5C 17.5,15.5 17.5,16.5 17.5,17.5C 15.5,17.5 13.5,17.5 11.5,17.5C 10.8333,17.5 10.5,17.1667 10.5,16.5C 11.1667,16.5 11.8333,16.5 12.5,16.5C 14.4832,16.8432 15.8166,16.1765 16.5,14.5 Z"/></g>
<g><path style="opacity:1" fill="#9bfe62" d="M 18.5,15.5 C 21.4951,15.2938 24.1617,15.9605 26.5,17.5C 25.2921,18.2341 23.9587,18.5674 22.5,18.5C 21.1667,18.5 19.8333,18.5 18.5,18.5C 18.5,18.1667 18.5,17.8333 18.5,17.5C 18.5,16.8333 18.5,16.1667 18.5,15.5 Z"/></g>
<g><path style="opacity:1" fill="#fde000" d="M 30.5,14.5 C 31.3382,14.8417 31.6716,15.5084 31.5,16.5C 30.8333,16.8333 30.1667,17.1667 29.5,17.5C 28.8333,17.5 28.1667,17.5 27.5,17.5C 27.5,16.8333 27.5,16.1667 27.5,15.5C 28.8946,16.8146 29.8946,16.4812 30.5,14.5 Z"/></g>
<g><path style="opacity:1" fill="#ff5500" d="M 11.5,17.5 C 13.5,17.5 15.5,17.5 17.5,17.5C 17.5,18.8333 16.8333,19.5 15.5,19.5C 15.1667,19.5 14.8333,19.5 14.5,19.5C 13.5,18.8333 12.5,18.1667 11.5,17.5 Z"/></g>
<g><path style="opacity:1" fill="#f1f309" d="M 26.5,17.5 C 26.8333,17.5 27.1667,17.5 27.5,17.5C 28.1667,17.5 28.8333,17.5 29.5,17.5C 29.1667,18.1667 28.8333,18.8333 28.5,19.5C 26.5,19.5 24.5,19.5 22.5,19.5C 22.5,19.1667 22.5,18.8333 22.5,18.5C 23.9587,18.5674 25.2921,18.2341 26.5,17.5 Z"/></g>
<g><path style="opacity:1" fill="#fbb003" d="M 17.5,17.5 C 17.8333,17.5 18.1667,17.5 18.5,17.5C 18.5,17.8333 18.5,18.1667 18.5,18.5C 18.5,19.1667 18.5,19.8333 18.5,20.5C 18.1667,21.5 17.5,22.1667 16.5,22.5C 16.1667,21.8333 15.8333,21.1667 15.5,20.5C 15.5,20.1667 15.5,19.8333 15.5,19.5C 16.8333,19.5 17.5,18.8333 17.5,17.5 Z"/></g>
<g><path style="opacity:1" fill="#c5fe34" d="M 31.5,16.5 C 31.5,17.5 31.5,18.5 31.5,19.5C 30.5,19.5 29.5,19.5 28.5,19.5C 28.8333,18.8333 29.1667,18.1667 29.5,17.5C 30.1667,17.1667 30.8333,16.8333 31.5,16.5 Z"/></g>
<g><path style="opacity:1" fill="#f4dd08" d="M 7.5,15.5 C 9.10422,16.287 9.77089,17.6203 9.5,19.5C 11.1667,19.5 12.8333,19.5 14.5,19.5C 14.8333,19.5 15.1667,19.5 15.5,19.5C 15.5,19.8333 15.5,20.1667 15.5,20.5C 12.4669,20.8685 9.8002,20.2018 7.5,18.5C 7.5,17.5 7.5,16.5 7.5,15.5 Z"/></g>
<g><path style="opacity:1" fill="#e1f126" d="M 18.5,18.5 C 19.8333,18.5 21.1667,18.5 22.5,18.5C 22.5,18.8333 22.5,19.1667 22.5,19.5C 21.4324,20.4345 20.099,20.7678 18.5,20.5C 18.5,19.8333 18.5,19.1667 18.5,18.5 Z"/></g>
<g><path style="opacity:1" fill="#c2fe3c" d="M 22.5,19.5 C 24.5,19.5 26.5,19.5 28.5,19.5C 27.8333,20.1667 27.1667,20.8333 26.5,21.5C 23.5718,21.5651 20.9052,22.2318 18.5,23.5C 18.5,24.1667 18.5,24.8333 18.5,25.5C 17.8333,25.5 17.1667,25.5 16.5,25.5C 16.5,25.1667 16.5,24.8333 16.5,24.5C 16.5,23.8333 16.5,23.1667 16.5,22.5C 17.5,22.1667 18.1667,21.5 18.5,20.5C 20.099,20.7678 21.4324,20.4345 22.5,19.5 Z"/></g>
<g><path style="opacity:1" fill="#bcfd44" d="M 7.5,18.5 C 9.8002,20.2018 12.4669,20.8685 15.5,20.5C 15.8333,21.1667 16.1667,21.8333 16.5,22.5C 13.8333,22.5 11.1667,22.5 8.5,22.5C 8.5,21.8333 8.16667,21.5 7.5,21.5C 7.5,20.5 7.5,19.5 7.5,18.5 Z"/></g>
<g><path style="opacity:1" fill="#92ff65" d="M 28.5,19.5 C 29.5,19.5 30.5,19.5 31.5,19.5C 31.5,19.8333 31.5,20.1667 31.5,20.5C 29.8828,21.038 28.2161,21.3713 26.5,21.5C 27.1667,20.8333 27.8333,20.1667 28.5,19.5 Z"/></g>
<g><path style="opacity:1" fill="#87ff71" d="M 26.5,21.5 C 25.5,22.1667 24.5,22.8333 23.5,23.5C 21.8333,23.5 20.1667,23.5 18.5,23.5C 20.9052,22.2318 23.5718,21.5651 26.5,21.5 Z"/></g>
<g><path style="opacity:1" fill="#54fea7" d="M 31.5,20.5 C 31.6716,21.4916 31.3382,22.1583 30.5,22.5C 28.7839,22.6287 27.1172,22.962 25.5,23.5C 24.8333,23.5 24.1667,23.5 23.5,23.5C 24.5,22.8333 25.5,22.1667 26.5,21.5C 28.2161,21.3713 29.8828,21.038 31.5,20.5 Z"/></g>
<g><path style="opacity:1" fill="#46f8bf" d="M 7.5,21.5 C 8.16667,21.5 8.5,21.8333 8.5,22.5C 10.8383,24.0395 13.5049,24.7062 16.5,24.5C 16.5,24.8333 16.5,25.1667 16.5,25.5C 13.8333,25.5 11.1667,25.5 8.5,25.5C 7.76589,24.2921 7.43255,22.9587 7.5,21.5 Z"/></g>
<g><path style="opacity:1" fill="#59fea4" d="M 8.5,22.5 C 11.1667,22.5 13.8333,22.5 16.5,22.5C 16.5,23.1667 16.5,23.8333 16.5,24.5C 13.5049,24.7062 10.8383,24.0395 8.5,22.5 Z"/></g>
<g><path style="opacity:1" fill="#40fcc2" d="M 18.5,23.5 C 20.1667,23.5 21.8333,23.5 23.5,23.5C 24.1667,23.5 24.8333,23.5 25.5,23.5C 25.5,23.8333 25.5,24.1667 25.5,24.5C 24.4324,25.4345 23.099,25.7678 21.5,25.5C 20.5,25.5 19.5,25.5 18.5,25.5C 18.5,24.8333 18.5,24.1667 18.5,23.5 Z"/></g>
<g><path style="opacity:0.686" fill="#1df2e4" d="M 30.5,22.5 C 29.3646,24.2132 27.698,24.8799 25.5,24.5C 25.5,24.1667 25.5,23.8333 25.5,23.5C 27.1172,22.962 28.7839,22.6287 30.5,22.5 Z"/></g>
<g><path style="opacity:0.812" fill="#33f7d4" d="M 16.5,25.5 C 17.1667,25.5 17.8333,25.5 18.5,25.5C 19.5,25.5 20.5,25.5 21.5,25.5C 20.5,26.1667 19.5,26.8333 18.5,27.5C 17.1667,27.5 16.5,26.8333 16.5,25.5 Z"/></g>
<g><path style="opacity:1" fill="#0e7fff" d="M 9.5,27.5 C 12.5448,27.5079 15.5448,27.8413 18.5,28.5C 18.1667,29.5 17.5,30.1667 16.5,30.5C 14.5648,29.8505 12.5648,29.5172 10.5,29.5C 9.66175,29.1583 9.32842,28.4916 9.5,27.5 Z"/></g>
<g><path style="opacity:1" fill="#0ec8f9" d="M 8.5,25.5 C 11.1667,25.5 13.8333,25.5 16.5,25.5C 16.5,26.8333 17.1667,27.5 18.5,27.5C 18.5,27.8333 18.5,28.1667 18.5,28.5C 15.5448,27.8413 12.5448,27.5079 9.5,27.5C 8.66175,27.1583 8.32842,26.4916 8.5,25.5 Z"/></g>
<g><path style="opacity:0.625" fill="#0228fe" d="M 10.5,29.5 C 12.5648,29.5172 14.5648,29.8505 16.5,30.5C 15.9032,31.1386 15.0698,31.472 14,31.5C 12.3009,31.6134 11.1342,30.9468 10.5,29.5 Z"/></g>
</svg>
