<svg width="40" height="40" viewBox="0 0 40 40" fill="none" xmlns="http://www.w3.org/2000/svg">
<rect width="40" height="40" fill="#03111C"/>
<path fill-rule="evenodd" clip-rule="evenodd" d="M31 26H35C35 25.8327 34.9973 25.666 34.9918 25.5H31.8713L34.9592 24.8858C34.9333 24.5329 34.8952 24.1835 34.8453 23.8378L31.9179 24.4201L34.7481 23.2479C34.6798 22.8799 34.5982 22.5166 34.5036 22.1585L31.7339 23.3057L34.3345 21.5681C34.2173 21.1884 34.0853 20.8152 33.9394 20.449L31.3077 22.2074L33.6791 19.8361C33.5052 19.4508 33.3155 19.0742 33.1109 18.7072L30.6405 21.1775L32.7262 18.0562C32.4879 17.6753 32.2331 17.3059 31.9626 16.949L29.7439 20.2696L31.4057 16.2575C31.0966 15.8959 30.7706 15.5492 30.4289 15.2186L28.7336 19.3115C30.1551 21.1648 31 23.4838 31 26ZM9 26C9 25.697 9.01225 25.3969 9.03628 25.1H5.02655C5.00893 25.3978 5 25.6978 5 26H9ZM9.30001 23.4377L5.37395 22.6567C5.50497 22.0812 5.66908 21.5182 5.86418 20.97L9.84606 21.762C9.62115 22.3002 9.43779 22.8601 9.30001 23.4377ZM10.6091 20.2689L6.87968 18.7241C7.16 18.2197 7.46856 17.7331 7.80323 17.2666L11.6367 18.8544C11.2583 19.2969 10.9144 19.7697 10.6091 20.2689ZM12.7719 17.708L9.35918 15.4277C9.75928 15.025 10.1821 14.6449 10.6256 14.2895L14.1797 16.6643C13.6824 16.9749 13.2117 17.3243 12.7719 17.708ZM15.4964 15.9612L12.5266 12.9914C13.012 12.7119 13.5145 12.4589 14.0321 12.2341L17.1664 15.3684C16.5898 15.5217 16.0318 15.7207 15.4964 15.9612ZM18.4564 15.1074L16.061 11.5225C16.5941 11.3778 17.1389 11.2618 17.6938 11.1762L20.2506 15.0028C20.1673 15.0009 20.0838 15 20 15C19.4761 15 18.9608 15.0366 18.4564 15.1074ZM21.3316 15.0798L19.6434 11.0042C19.7619 11.0014 19.8808 11 20 11C20.4339 11 20.8634 11.0184 21.2879 11.0545L23.1064 15.4447C22.5328 15.2762 21.9399 15.1532 21.3316 15.0798ZM23.8794 15.7036L23.0036 11.3008C23.534 11.4086 24.0543 11.5444 24.5627 11.7066L25.5119 16.4785C24.9931 16.1776 24.4475 15.9177 23.8794 15.7036ZM25.9667 16.7573V12.2336C26.4469 12.4421 26.9141 12.6749 27.3667 12.9305V17.8309C26.9303 17.4372 26.4622 17.0778 25.9667 16.7573ZM27.5666 18.0158L28.4447 13.6012C28.8588 13.8837 29.258 14.1865 29.6408 14.508L28.6952 19.2617C28.351 18.8181 27.9735 18.4016 27.5666 18.0158Z" fill="white"/>
<path fill-rule="evenodd" clip-rule="evenodd" d="M26.9999 26H30.9999C30.9999 25.8085 30.995 25.6182 30.9853 25.4291L28.9956 25.3944L30.9585 25.0395C30.9173 24.5631 30.8457 24.0954 30.7457 23.6383L28.4919 24.0459L30.6402 23.1996C30.5235 22.7548 30.3796 22.321 30.2104 21.9001L27.7519 22.8685L30.004 21.4199C29.8196 21.0178 29.6116 20.6287 29.382 20.2545L26.8243 21.8996L29.0519 19.7484C28.8098 19.3985 28.548 19.0634 28.268 18.7446L25.76 21.1665L27.7927 18.2365C27.5041 17.9468 27.1996 17.6732 26.8804 17.417L24.6142 20.6837L26.2415 16.9411C25.9189 16.7183 25.5838 16.5124 25.2374 16.3245L23.6327 20.0153C25.6515 21.2434 26.9999 23.4642 26.9999 26ZM12.9999 26H8.99988C8.99988 25.8141 9.00449 25.6293 9.0136 25.4457L13.0164 25.5155C13.0054 25.6756 12.9999 25.8371 12.9999 26ZM24.4251 15.9263C24.082 15.7754 23.7298 15.6415 23.3694 15.5257L22.5141 19.4651C22.8741 19.6037 23.2198 19.7712 23.5483 19.9647L24.4251 15.9263ZM22.3874 15.2598C22.0388 15.1826 21.684 15.122 21.3237 15.0788L21.2534 19.1119C21.618 19.1778 21.9727 19.272 22.3153 19.392L22.3874 15.2598ZM19.9999 15C19.7195 15 19.4416 15.0105 19.1664 15.0311L19.8843 19.0009C19.9227 19.0003 19.9613 19 19.9999 19C20.3146 19 20.6246 19.0207 20.9283 19.061L20.1942 15.0017C20.1296 15.0005 20.0648 15 19.9999 15ZM17.9126 19.3165L15.6977 15.8731C15.4133 15.9941 15.1349 16.1267 14.8633 16.2704L17.0401 19.6546C17.3213 19.5233 17.6126 19.41 17.9126 19.3165ZM16.4446 19.9688L13.6167 17.0404C13.3799 17.2094 13.1501 17.3876 12.9277 17.5744L15.7169 20.4628C15.9484 20.2834 16.1914 20.1184 16.4446 19.9688ZM11.8051 18.6619C11.6228 18.8653 11.448 19.0756 11.281 19.2923L14.5741 21.5768C14.7481 21.3637 14.9344 21.1609 15.1319 20.9698L11.8051 18.6619ZM10.3741 20.6719C10.2501 20.8954 10.1337 21.1236 10.0253 21.3562L13.6963 22.9524C13.8087 22.7205 13.9335 22.4956 14.0698 22.2788L10.3741 20.6719ZM9.42115 22.9746C9.35581 23.2035 9.29771 23.4354 9.24709 23.6702L13.1568 24.519C13.2076 24.2835 13.2702 24.0524 13.3439 23.8263L9.42115 22.9746ZM19.4374 19.0222C19.1034 19.0488 18.7761 19.0988 18.4569 19.1706L16.9795 15.4199C17.2908 15.3311 17.6077 15.2558 17.9296 15.1945L19.4374 19.0222Z" fill="white"/>
<path fill-rule="evenodd" clip-rule="evenodd" d="M26.4418 26L27.0002 25.9805C26.9999 25.8688 26.997 25.7577 26.9915 25.6473L23.5983 25.7658L23.5389 25.7561L26.9234 24.9591C26.9044 24.832 26.8821 24.706 26.8563 24.5811L23.6422 25.3379L26.6943 23.947C26.6517 23.8077 26.6048 23.6703 26.5538 23.5349L23.6954 24.8375L26.3064 22.9578C26.2354 22.811 26.1595 22.6671 26.0788 22.5261L23.621 24.2955L25.7524 22.0098C25.6492 21.8614 25.5405 21.7172 25.4264 21.5774L23.4058 23.7442L25.0254 21.1269C24.8872 20.9844 24.7429 20.8476 24.593 20.7172L23.0446 23.2194L24.1209 20.3408C23.9461 20.2133 23.7652 20.0937 23.5787 19.9825L22.5411 22.7575L23.0402 19.6928C22.8299 19.5913 22.6138 19.4999 22.3924 19.4194L21.9078 22.3949L21.7974 19.2329C21.5559 19.1689 21.3093 19.1175 21.0583 19.0795L21.166 22.1641L20.4239 19.0126C20.2838 19.0043 20.1425 19 20.0002 19C19.8722 19 19.745 19.0034 19.6186 19.0102L20.3448 22.0943L18.9691 19.0754C18.6846 19.1174 18.4058 19.1765 18.1336 19.2516L19.4802 22.2065L17.5022 19.4589C17.2202 19.5666 16.9469 19.6921 16.6838 19.834L18.6137 22.5149L16.1098 20.1798C15.8471 20.3558 15.597 20.549 15.3611 20.7579L17.7896 23.0225L14.8828 21.2238C14.6574 21.4652 14.4488 21.7226 14.259 21.9941L17.0542 23.7238L13.9092 22.5479C13.7392 22.8473 13.5906 23.1604 13.4655 23.4852L16.4524 24.602L13.2659 24.0831C13.1682 24.4272 13.096 24.7822 13.0518 25.1458L16.0251 25.63L13.0051 25.7355C13.0018 25.8232 13.0002 25.9114 13.0002 26H17.0002C17.0002 24.3432 18.3433 23 20.0002 23C21.6571 23 23.0002 24.3432 23.0002 26H26.4418Z" fill="white"/>
</svg>
