<svg width="40" height="40" viewBox="0 0 40 40" fill="none" xmlns="http://www.w3.org/2000/svg">
<rect width="40" height="40" fill="white"/>
<g clip-path="url(#clip0_6549_28)">
<path d="M28.9986 20.6016L15.7815 28.2565C14.8687 28.7852 14.5559 29.9558 15.0827 30.8711C15.6095 31.7864 16.7765 32.0999 17.6892 31.5712L30.9063 23.9163C31.8191 23.3876 32.132 22.2171 31.6052 21.3017C31.0783 20.3864 29.9114 20.073 28.9986 20.6016Z" fill="#FF7829"/>
<path d="M19.8571 18.1543L9.9443 23.8956C9.03154 24.4242 8.71865 25.5948 9.24545 26.5101C9.77225 27.4255 10.9393 27.739 11.852 27.2103L21.7648 21.469C22.6776 20.9404 22.9905 19.7698 22.4636 18.8545C21.9369 17.9392 20.7699 17.6257 19.8571 18.1543Z" fill="#FCBF22"/>
<path d="M22.3086 8.9766L9.09152 16.6316C8.17875 17.1602 7.86587 18.3308 8.39267 19.2461C8.91947 20.1614 10.0865 20.4749 10.9992 19.9463L24.2163 12.2913C25.129 11.7627 25.4419 10.5921 24.9151 9.67675C24.3883 8.76142 23.2213 8.44796 22.3086 8.9766Z" fill="#2AE5B9"/>
</g>
<defs>
<clipPath id="clip0_6549_28">
<rect width="24" height="24" fill="white" transform="translate(8 8)"/>
</clipPath>
</defs>
</svg>
