<svg width="40" height="40" viewBox="0 0 40 40" fill="none" xmlns="http://www.w3.org/2000/svg">
<rect width="40" height="40" fill="#3E80FB"/>
<path fill-rule="evenodd" clip-rule="evenodd" d="M18.834 8.94916L22.1045 7.09059C22.4766 6.87909 22.7784 7.05055 22.7784 7.47356C22.7784 7.89657 22.4766 8.41094 22.1045 8.62244L18.834 10.481C18.4618 10.6925 18.1601 10.5211 18.1601 10.098C18.1601 9.67503 18.4618 9.16066 18.834 8.94916ZM18.834 12.2218L22.1045 10.3632C22.4766 10.1517 22.7784 10.3232 22.7784 10.7462C22.7784 11.1692 22.4766 11.6836 22.1045 11.8951L18.834 13.7536C18.4618 13.9651 18.1601 13.7937 18.1601 13.3707C18.1601 12.9477 18.4618 12.4333 18.834 12.2218ZM29.1225 27.9276V24.2105C29.1225 23.7874 28.8208 23.2731 28.4486 23.0616C28.0764 22.8501 27.7747 23.0215 27.7747 23.4445V27.1617C27.7747 27.5847 28.0764 28.0991 28.4486 28.3106C28.8208 28.5221 29.1225 28.3506 29.1225 27.9276ZM26.2429 22.574V26.2911C26.2429 26.7141 25.9412 26.8856 25.569 26.6741C25.1969 26.4626 24.8951 25.9482 24.8951 25.5252V21.808C24.8951 21.385 25.1969 21.2136 25.569 21.4251C25.9412 21.6366 26.2429 22.151 26.2429 22.574ZM25.9383 13.0053L20.182 16.2765C20.135 16.3032 20.0844 16.3265 20.031 16.3465L18.834 17.0267C18.4618 17.2382 18.1601 17.0668 18.1601 16.6437C18.1601 16.2207 18.4618 15.7063 18.834 15.4949L22.1045 13.6363C22.1515 13.6096 22.1973 13.589 22.2416 13.5742L24.5906 12.2393C24.9627 12.0278 25.5662 12.0278 25.9383 12.2393C26.3106 12.4509 26.3106 12.7938 25.9383 13.0053ZM28.4503 13.6636L31.7208 15.5222C32.0931 15.7337 32.0931 16.0766 31.7208 16.2881C31.3487 16.4996 30.7452 16.4996 30.3731 16.2881L27.1025 14.4295C26.7304 14.218 26.7304 13.8751 27.1025 13.6636C27.4748 13.4521 28.0782 13.4521 28.4503 13.6636ZM28.8413 17.1586L25.5708 15.3001C25.1986 15.0886 24.5952 15.0886 24.223 15.3001C23.8508 15.5116 23.8508 15.8545 24.223 16.066L27.4935 17.9246C27.8657 18.1361 28.4691 18.1361 28.8413 17.9246C29.2134 17.7131 29.2134 17.3702 28.8413 17.1586ZM25.9619 18.7949L22.6914 16.9364C22.3193 16.7248 21.7158 16.7248 21.3436 16.9364C20.9714 17.1479 20.9714 17.4908 21.3436 17.7023L22.6519 18.4457C22.6643 18.4536 22.6768 18.4611 22.6894 18.4682L28.4457 21.7394C28.8179 21.951 29.1196 21.7795 29.1196 21.3565C29.1196 20.9335 28.8179 20.4191 28.4457 20.2076L25.9984 18.8168C25.9867 18.8094 25.9745 18.8021 25.9619 18.7949ZM23.3631 20.9376V24.6548C23.3631 24.7084 23.3582 24.7581 23.3491 24.8033V27.4724C23.3491 27.8955 23.0473 28.4098 22.6752 28.6213C22.3029 28.8329 22.0012 28.6614 22.0012 28.2384V21.6959C22.0012 21.6423 22.0061 21.5871 22.0154 21.5314V20.1717C22.0154 19.7487 22.317 19.5773 22.6892 19.7887C23.0614 20.0003 23.3631 20.5146 23.3631 20.9376ZM20.1656 30.0509L16.8952 31.9094C16.523 32.1209 16.2213 31.9494 16.2213 31.5264C16.2213 31.1035 16.523 30.5891 16.8952 30.3775L20.1656 28.519C20.5379 28.3075 20.8395 28.479 20.8395 28.902C20.8395 29.325 20.5379 29.8394 20.1656 30.0509ZM16.8952 28.6364L20.1656 26.7779C20.5379 26.5664 20.8395 26.052 20.8395 25.629C20.8395 25.206 20.5379 25.0346 20.1656 25.246L16.8952 27.1046C16.523 27.3161 16.2213 27.8305 16.2213 28.2535C16.2213 28.6765 16.523 28.848 16.8952 28.6364ZM20.8395 22.356C20.8395 22.7146 20.6227 23.1389 20.3299 23.3886C20.2871 23.4334 20.2325 23.4754 20.1658 23.5133L14.4095 26.7845C14.0373 26.996 13.4339 26.996 13.0617 26.7845C12.6895 26.573 12.6895 26.2301 13.0617 26.0186L16.7942 23.8974C16.8272 23.8731 16.8608 23.851 16.8952 23.8316L20.1656 21.9731C20.5379 21.7615 20.8395 21.933 20.8395 22.356ZM7.27914 23.5016L10.5496 25.3602C10.9218 25.5717 11.5252 25.5717 11.8974 25.3602C12.2696 25.1486 12.2696 24.8057 11.8974 24.5943L8.62693 22.7357C8.25475 22.5242 7.65132 22.5242 7.27914 22.7357C6.90695 22.9472 6.90695 23.2901 7.27914 23.5016ZM13.4292 23.7237L10.1587 21.8651C9.78651 21.6536 9.78651 21.3107 10.1587 21.0992C10.5309 20.8877 11.1343 20.8877 11.5065 21.0992L14.777 22.9578C15.1492 23.1693 15.1492 23.5122 14.777 23.7237C14.4048 23.9352 13.8014 23.9352 13.4292 23.7237ZM10.5682 17.2843L16.3245 20.5555C16.3599 20.5756 16.3946 20.5985 16.4286 20.6237L17.6564 21.3214C18.0286 21.5329 18.0286 21.8759 17.6564 22.0874C17.2842 22.2989 16.6807 22.2989 16.3086 22.0874L13.0381 20.2288C13.0027 20.2087 12.9707 20.1874 12.942 20.1651L10.5682 18.8161C10.196 18.6046 9.89429 18.0903 9.89429 17.6673C9.89429 17.2442 10.196 17.0728 10.5682 17.2843ZM9.89149 14.8133V11.0962C9.89149 10.6732 10.1932 10.5017 10.5654 10.7132C10.9376 10.9247 11.2393 11.4391 11.2393 11.8621V15.5792C11.2393 16.0022 10.9376 16.1737 10.5654 15.9622C10.1932 15.7507 9.89149 15.2363 9.89149 14.8133ZM12.771 12.7327V16.4498C12.771 16.8728 13.0728 17.3872 13.4449 17.5986C13.8171 17.8102 14.1188 17.6387 14.1188 17.2157V13.4986C14.1188 13.0756 13.8171 12.5612 13.4449 12.3497C13.0728 12.1382 12.771 12.3096 12.771 12.7327ZM16.9984 10.7615V15.1147L15.6506 18.0698V11.5274C15.6506 11.1044 15.9523 10.59 16.3245 10.3785C16.6967 10.167 16.9984 10.3385 16.9984 10.7615ZM16.9984 15.1147L15.6509 18.0905C15.6528 18.5127 15.9538 19.0244 16.3248 19.2352C16.6969 19.4467 16.9986 19.2753 16.9986 18.8522V15.1352C16.9986 15.1283 16.9985 15.1215 16.9984 15.1147Z" fill="white"/>
</svg>
