<svg width="40" height="40" viewBox="0 0 40 40" fill="none" xmlns="http://www.w3.org/2000/svg">
<rect width="40" height="40" fill="white"/>
<path d="M26.2007 27.6597L30.9977 8L8 32.4342L22.2485 24.0857L26.2007 20.0766V27.6597Z" fill="url(#paint0_linear_6557_58)"/>
<path d="M30.9983 32.4342V8L26.2013 27.6597H19.0762L30.9983 32.4342Z" fill="url(#paint1_linear_6557_58)"/>
<path d="M30.9977 32.4342H8L26.2007 20.0767L19.0756 27.6597L30.9977 32.4342Z" fill="url(#paint2_linear_6557_58)"/>
<path d="M19.0827 27.6548L31 30.2995V32.4345H23.5027L19.0827 27.6548Z" fill="url(#paint3_linear_6557_58)"/>
<path d="M30.9972 30.3586V23.7163L26.1735 27.6598H19.0827L30.9972 30.3586Z" fill="url(#paint4_linear_6557_58)"/>
<defs>
<linearGradient id="paint0_linear_6557_58" x1="19.4988" y1="8" x2="19.4988" y2="32.4342" gradientUnits="userSpaceOnUse">
<stop stop-color="#3A413E"/>
<stop offset="0.405" stop-color="#80AE92"/>
<stop offset="1" stop-color="#A3D5BE"/>
</linearGradient>
<linearGradient id="paint1_linear_6557_58" x1="28.21" y1="11.7697" x2="35.0701" y2="18.1164" gradientUnits="userSpaceOnUse">
<stop offset="0.10621" stop-color="#9FB77E"/>
<stop offset="0.791569" stop-color="#FACB37"/>
</linearGradient>
<linearGradient id="paint2_linear_6557_58" x1="28.6133" y1="20.0823" x2="11.5806" y2="34.7615" gradientUnits="userSpaceOnUse">
<stop offset="0.202741" stop-color="#081B2F"/>
<stop offset="1" stop-color="#669CA9"/>
</linearGradient>
<linearGradient id="paint3_linear_6557_58" x1="16.0742" y1="29.1383" x2="32.2024" y2="32.4454" gradientUnits="userSpaceOnUse">
<stop offset="0.318804" stop-color="#06172B"/>
<stop offset="1" stop-color="#416D7B"/>
</linearGradient>
<linearGradient id="paint4_linear_6557_58" x1="29.6491" y1="21.8464" x2="22.8229" y2="28.9792" gradientUnits="userSpaceOnUse">
<stop offset="0.156879" stop-color="#F5AF23"/>
<stop offset="0.723794" stop-color="#F8781E"/>
<stop offset="1" stop-color="#FC2818"/>
</linearGradient>
</defs>
</svg>
