<svg width="40" height="40" viewBox="0 0 40 40" fill="none" xmlns="http://www.w3.org/2000/svg">
<g clip-path="url(#clip0_10724_31654)">
<path d="M27.5392 16.0267C26.5677 14.9005 24.9987 14.3039 23.0753 14.3039C21.356 14.2805 19.686 14.8686 18.3734 15.9599H18.3151L19.4129 8.47721L19.0243 8H14.8081L14.3224 8.41994L11 31.1256L11.3983 31.579H15.6242L16.1099 31.1638L17.3145 22.7935C17.7177 20.0305 19.1166 18.6322 21.4772 18.6322C21.7866 18.6045 22.0984 18.644 22.3906 18.7479C22.6827 18.8518 22.948 19.0176 23.1676 19.2335C23.5756 19.7107 23.7067 20.4266 23.561 21.4144L22.1427 31.116L22.541 31.5694H26.7474L27.2332 31.1495L28.6904 21.128C29.0109 19.014 28.6077 17.2436 27.5392 16.0267Z" fill="black"/>
</g>
<defs>
<clipPath id="clip0_10724_31654">
<rect width="18" height="24" fill="white" transform="translate(11 8)"/>
</clipPath>
</defs>
</svg>
