<svg width="40" height="40" viewBox="0 0 40 40" fill="none" xmlns="http://www.w3.org/2000/svg">
<path d="M19.9997 9.34644C19.1489 9.35068 18.3072 9.52338 17.5228 9.8547C16.7384 10.186 16.0265 10.6695 15.428 11.2774C14.8294 11.8854 14.3558 12.6059 14.0342 13.3979C13.7127 14.1899 13.5494 15.0379 13.5538 15.8933V18.0558H18.7911V14.9228C18.791 14.7756 18.8198 14.6299 18.8758 14.494C18.9318 14.358 19.0138 14.2345 19.1173 14.1305C19.2207 14.0264 19.3436 13.9439 19.4788 13.8876C19.614 13.8313 19.7589 13.8024 19.9053 13.8024H20.0941C20.2404 13.8024 20.3854 13.8313 20.5205 13.8876C20.6558 13.9439 20.7786 14.0264 20.8821 14.1305C20.9856 14.2345 21.0677 14.358 21.1237 14.494C21.1797 14.6299 21.2085 14.7756 21.2085 14.9228V23.3216C21.8962 23.3216 22.5773 23.1854 23.2127 22.9208C23.8481 22.6561 24.4255 22.2682 24.9119 21.7793C25.3982 21.2903 25.7839 20.7098 26.0472 20.0709C26.3103 19.4321 26.4458 18.7473 26.4458 18.0558V15.8933C26.4495 14.1601 25.7707 12.4958 24.5576 11.2643C23.9625 10.6566 23.253 10.174 22.4704 9.84474C21.6879 9.51548 20.848 9.34608 19.9997 9.34644Z" fill="black"/>
<path d="M20.0943 27.5731H19.9055C19.7592 27.5731 19.6143 27.5441 19.4791 27.4879C19.3439 27.4316 19.2211 27.3491 19.1176 27.245C19.0142 27.141 18.9321 27.0176 18.8761 26.8816C18.8201 26.7457 18.7913 26.6 18.7914 26.4529V18.0542C18.1036 18.0541 17.4225 18.1903 16.787 18.4548C16.1516 18.7195 15.5742 19.1073 15.0879 19.5963C14.6016 20.0853 14.2158 20.6658 13.9526 21.3047C13.6894 21.9436 13.554 22.6284 13.554 23.3199V25.4523C13.5453 26.309 13.7056 27.1589 14.0256 27.9529C14.3457 28.7469 14.8191 29.4693 15.4185 30.0782C16.0179 30.687 16.7315 31.1704 17.5179 31.5003C18.3043 31.8302 19.1479 32 20 32C20.8521 32 21.6957 31.8302 22.4822 31.5003C23.2685 31.1704 23.9821 30.687 24.5816 30.0782C25.181 29.4693 25.6544 28.7469 25.9744 27.9529C26.2945 27.1589 26.4547 26.309 26.446 25.4523V23.3199H21.2087V26.4529C21.2087 26.6001 21.1799 26.7457 21.1239 26.8816C21.0679 27.0176 20.9857 27.1411 20.8823 27.2451C20.7788 27.3492 20.656 27.4316 20.5207 27.4879C20.3856 27.5441 20.2407 27.5731 20.0943 27.5731Z" fill="black"/>
</svg>
