<svg width="40" height="40" viewBox="0 0 40 40" fill="none" xmlns="http://www.w3.org/2000/svg">
<rect width="40" height="40" fill="black"/>
<path d="M17.8794 17.7624C17.2569 17.8619 16.8344 18.4381 16.9358 19.0492C17.0374 19.6603 17.6243 20.075 18.247 19.9754L17.8794 17.7624ZM30.5381 22.4724C30.5381 23.0915 31.0494 23.5935 31.6803 23.5935C32.311 23.5935 32.8225 23.0915 32.8225 22.4724H30.5381ZM9.05996 20.3114C8.67636 19.8199 7.95941 19.7266 7.4586 20.1031C6.95779 20.4796 6.86278 21.1833 7.24636 21.6747L9.05996 20.3114ZM19.4744 23.9847L19.9601 24.9994C20.3038 24.841 20.5448 24.5251 20.6031 24.1567C20.6614 23.7884 20.5292 23.4158 20.2507 23.1624L19.4744 23.9847ZM19.0005 19.1691C19.1377 18.5647 18.7498 17.9656 18.134 17.8312C17.5183 17.6965 16.908 18.0772 16.7708 18.6815L19.0005 19.1691ZM30.7155 20.5C30.7155 26.1416 25.9424 30.7579 20 30.7579V33C27.1553 33 33 27.4273 33 20.5H30.7155ZM20 30.7579C14.0575 30.7579 9.28445 26.1416 9.28445 20.5H7C7 27.4273 12.8446 33 20 33V30.7579ZM9.28445 20.5C9.28445 14.8584 14.0575 10.2422 20 10.2422V8C12.8446 8 7 13.5727 7 20.5H9.28445ZM20 10.2422C25.9424 10.2422 30.7155 14.8584 30.7155 20.5H33C33 13.5727 27.1553 8 20 8V10.2422ZM18.247 19.9754C19.8012 19.7267 23.0005 18.9585 25.8996 19.0566C27.3418 19.1053 28.5234 19.3701 29.3167 19.8923C30.0288 20.3608 30.5381 21.1052 30.5381 22.4724H32.8225C32.8225 20.4211 31.9854 18.949 30.589 18.03C29.2736 17.1642 27.5847 16.8701 25.9782 16.8157C22.7803 16.7075 19.1712 17.5558 17.8794 17.7624L18.247 19.9754ZM7.24636 21.6747C9.72564 24.8517 12.6249 25.8629 15.0806 25.958C17.4785 26.0509 19.3717 25.2707 19.9601 24.9994L18.9887 22.9702C18.5548 23.1701 17.0475 23.7904 15.1707 23.7176C13.3512 23.6472 11.1009 22.9267 9.05996 20.3114L7.24636 21.6747ZM20.2507 23.1624C19.6203 22.5891 19.1345 22.0138 18.9955 21.4839L16.7832 22.0426C17.1016 23.2573 18.0481 24.2161 18.6981 24.8071L20.2507 23.1624ZM18.9955 21.4839C18.8175 20.8045 18.8082 20.0164 19.0005 19.1691L16.7708 18.6815C16.5106 19.8275 16.5039 20.9773 16.7832 22.0426L18.9955 21.4839Z" fill="white"/>
</svg>
