<svg width="40" height="40" viewBox="0 0 40 40" fill="none" xmlns="http://www.w3.org/2000/svg">
<rect width="40" height="40" fill="white"/>
<path d="M23.7611 15.6689H16.2494C15.9303 15.6689 15.6716 15.9276 15.6716 16.2467V23.7584C15.6716 24.0775 15.9303 24.3362 16.2494 24.3362H23.7611C24.0802 24.3362 24.3389 24.0775 24.3389 23.7584V16.2467C24.3389 15.9276 24.0802 15.6689 23.7611 15.6689Z" fill="black"/>
<path d="M15.0895 7H7.57782C7.2587 7 7 7.2587 7 7.57782V15.0895C7 15.4086 7.2587 15.6673 7.57782 15.6673H15.0895C15.4086 15.6673 15.6673 15.4086 15.6673 15.0895V7.57782C15.6673 7.2587 15.4086 7 15.0895 7Z" fill="black"/>
<path d="M32.425 7.00049H24.9134C24.5942 7.00049 24.3355 7.25919 24.3355 7.57831V15.09C24.3355 15.4091 24.5942 15.6678 24.9134 15.6678H32.425C32.7441 15.6678 33.0028 15.4091 33.0028 15.09V7.57831C33.0028 7.25919 32.7441 7.00049 32.425 7.00049Z" fill="black"/>
<path d="M15.0896 24.3335H7.57791C7.25879 24.3335 7.00009 24.5922 7.00009 24.9113V32.423C7.00009 32.7421 7.25879 33.0008 7.57791 33.0008H15.0896C15.4087 33.0008 15.6674 32.7421 15.6674 32.423V24.9113C15.6674 24.5922 15.4087 24.3335 15.0896 24.3335Z" fill="black"/>
<path d="M32.425 24.3335H24.9134C24.5942 24.3335 24.3355 24.5922 24.3355 24.9113V32.423C24.3355 32.7421 24.5942 33.0008 24.9134 33.0008H32.425C32.7441 33.0008 33.0028 32.7421 33.0028 32.423V24.9113C33.0028 24.5922 32.7441 24.3335 32.425 24.3335Z" fill="black"/>
</svg>
