<svg width="40" height="40" viewBox="0 0 40 40" fill="none" xmlns="http://www.w3.org/2000/svg">
<rect width="40" height="40" fill="white"/>
<g clip-path="url(#clip0_5923_10)">
<path d="M30.9998 20.0003H26.4164C26.4244 17.7386 25.1831 15.5748 23.2251 14.4549C18.8873 11.9741 13.6131 15.0732 13.5832 20.0003H8.99978C8.95606 14.9116 12.6306 10.3313 17.593 9.25799C24.5147 7.76134 30.9877 12.9507 30.9998 19.9997V20.0003Z" fill="black"/>
<path d="M14.93 23.9546C17.4782 27.2223 22.5229 27.2188 25.0706 23.9546L28.6404 26.7886C25.6286 30.7263 20.1685 32.0803 15.6076 30.0936C13.9596 29.3758 12.4398 28.2156 11.3527 26.7886L14.93 23.9546Z" fill="black"/>
</g>
<defs>
<clipPath id="clip0_5923_10">
<rect width="22" height="22" fill="white" transform="translate(9 9)"/>
</clipPath>
</defs>
</svg>
