<svg width="40" height="40" viewBox="0 0 40 40" fill="none" xmlns="http://www.w3.org/2000/svg">
<rect width="40" height="40" fill="white"/>
<path fill-rule="evenodd" clip-rule="evenodd" d="M20.0001 12C28.2842 12 34.9999 15.8058 35 20.5001C35 25.1945 28.2842 29 20.0001 29C11.7159 29 5 25.1945 5 20.5001C5.00012 15.8058 11.716 12 20.0001 12ZM21.38 14.0425C21.2212 14.0422 21.083 14.1539 21.047 14.3117L20.5072 16.6766C20.0642 18.6173 18.3689 19.9907 16.4161 19.9907H8.29091C8.10547 19.9907 7.95514 20.144 7.95514 20.3333C7.95519 20.5224 8.10551 20.6759 8.29091 20.6759H16.2901C17.9813 20.6759 19.2313 22.2838 18.8465 23.9643L18.2549 26.5478C18.2069 26.7575 18.3629 26.9582 18.574 26.9582C18.7258 26.9582 18.8578 26.8517 18.8928 26.7008L19.5237 23.9764C19.9716 22.0421 21.6638 20.6759 23.6116 20.6759H31.7091C31.8945 20.6759 32.0448 20.5224 32.0449 20.3333C32.0449 20.144 31.8945 19.9907 31.7091 19.9907H23.6886C22.029 19.9907 20.8032 18.4115 21.183 16.763L21.7114 14.4705C21.7616 14.2523 21.5996 14.0431 21.38 14.0425Z" fill="#161616"/>
</svg>
