<svg width="40" height="40" viewBox="0 0 40 40" fill="none" xmlns="http://www.w3.org/2000/svg">
<path d="M21.672 8H29.8413L29.8388 20.885C29.8388 21.1208 29.8108 21.5054 29.772 21.7382C29.2011 25.1433 26.7166 27.5834 23.267 27.5878C20.6793 27.591 15.1457 27.5878 15.1457 27.5878C15.1457 27.5878 15.1432 21.9333 15.147 19.4926C15.1489 18.4138 15.8959 17.6159 16.9322 17.5847C17.9558 17.5536 19.3653 17.527 19.3653 17.527V19.2212L23.7698 15.9788C23.7698 15.9788 19.1606 16.013 16.8991 16.0767C14.8914 16.1333 13.5925 17.8276 13.6218 19.5874C13.6714 22.6193 13.6358 26.0461 13.6358 29.0787H21.1089L18.3024 32H10.1592C10.1592 32 10.1651 23.648 10.1645 19.4952C10.1645 19.2002 10.1836 18.9039 10.216 18.6109C10.6 15.1402 13.5569 12.4694 17.0492 12.4503C19.5312 12.437 24.7953 12.4428 24.7953 12.4428C24.7953 15.0526 24.7965 17.9725 24.7953 20.5823C24.7947 21.6568 24.0158 22.4471 22.9453 22.4521C21.7519 22.4578 20.2647 22.454 20.2647 22.454V20.8106L16.1958 23.9633C16.1958 23.9633 20.5617 23.9952 22.9687 23.9633C24.9244 23.9373 26.3185 22.4623 26.3185 20.4984C26.3185 17.434 26.3185 10.8978 26.3185 10.8978H18.9075L21.672 8Z" fill="#493FEE"/>
</svg>
