<svg width="40" height="40" viewBox="0 0 40 40" fill="none" xmlns="http://www.w3.org/2000/svg">
<path d="M12.6656 31.7182C11.7334 31.2736 11.1177 30.3668 11.0559 29.3473C10.9941 28.3278 11.4958 27.355 12.3676 26.8041C13.2394 26.2531 14.3451 26.21 15.2583 26.6914C16.6312 27.4152 17.1649 29.0892 16.4591 30.4578C15.7532 31.8264 14.0671 32.3866 12.6656 31.7182Z" fill="#F54703"/>
<path d="M12.0126 12.5676C10.1636 15.9468 10.8987 20.1298 13.7938 22.7039C14.1153 22.9946 14.6168 22.9883 14.9255 22.6976C16.1816 21.5311 16.5777 19.7253 15.9222 18.1539C15.2027 16.5242 15.6308 14.6247 16.9832 13.4459C18.3609 12.2419 20.342 11.9748 21.9988 12.7698C23.641 13.5346 24.6054 15.2422 24.3973 17.0164C24.1545 18.794 22.8048 20.2316 21.0214 20.6122C19.3249 21.0069 18.0334 22.3607 17.7419 24.0499C17.6776 24.4607 17.967 24.8462 18.4043 24.922C22.809 25.6803 27.1301 23.241 28.5383 19.2093C29.953 15.1648 28.0239 10.7602 24.0179 8.86438C19.6967 6.82953 14.2375 8.51682 12.0126 12.5676Z" fill="url(#paint0_linear_10720_16090)"/>
<defs>
<linearGradient id="paint0_linear_10720_16090" x1="23.9861" y1="27.7718" x2="31.3248" y2="12.3842" gradientUnits="userSpaceOnUse">
<stop stop-color="#F54703"/>
<stop offset="1" stop-color="#FAC902"/>
</linearGradient>
</defs>
</svg>
