<svg width="40" height="40" viewBox="0 0 40 40" fill="none" xmlns="http://www.w3.org/2000/svg">
<path d="M18.8724 8.02652C16.5654 8.24728 14.2631 9.18668 12.4589 10.6427C11.8528 11.1312 10.8614 12.1505 10.4244 12.7329C9.13704 14.4473 8.34299 16.406 8.05638 18.5478C7.98121 19.1255 7.98121 20.9386 8.05638 21.4834C8.36179 23.6393 9.15114 25.5839 10.4103 27.2607C10.8426 27.8338 11.8387 28.8624 12.4119 29.3274C14.141 30.7318 16.2741 31.643 18.5435 31.9436C19.1214 32.0188 20.935 32.0188 21.48 31.9436C22.2882 31.8309 23.0775 31.6477 23.7823 31.4129C24.4777 31.178 25.5724 30.6848 26.1034 30.3607C26.2537 30.2715 26.4182 30.1964 26.4652 30.1964C26.5121 30.1964 27.7103 30.5815 29.1245 31.0512C30.8536 31.6289 31.7134 31.892 31.7416 31.8638C31.7745 31.8309 30.7314 30.7553 28.556 28.5806L25.3187 25.3444L24.9475 25.6591C22.2882 27.9512 18.4777 28.1391 15.6304 26.1194C15.0666 25.7201 14.2913 24.9451 13.8778 24.3721C12.0266 21.7746 12.0313 18.2472 13.8825 15.6357C14.2819 15.072 15.0572 14.297 15.6304 13.8837C18.2287 12.0331 21.7572 12.0378 24.3696 13.8884C24.9334 14.2876 25.7087 15.0626 26.1222 15.6357C26.5027 16.1711 26.9491 17.0495 27.1417 17.6413C27.4049 18.4586 27.4894 19.041 27.4941 19.9804C27.4941 20.4595 27.4706 20.9667 27.433 21.1546C27.3391 21.6854 27.1699 22.3148 27.1182 22.3336C27.0948 22.343 26.1551 22.0471 25.0321 21.6713C23.4346 21.1405 22.9789 21.0043 22.9272 21.0466C22.8708 21.0889 23.4628 21.7042 26.0705 24.311C27.8371 26.0771 29.3078 27.5191 29.3359 27.5191C29.3688 27.5191 29.5192 27.3547 29.6648 27.1574C30.8771 25.5181 31.6664 23.5407 31.9436 21.4599C32.0188 20.8822 32.0188 19.0692 31.9436 18.5243C31.6382 16.3684 30.8489 14.4238 29.5897 12.747C29.1574 12.174 28.1613 11.1453 27.5881 10.6803C25.8731 9.28531 23.7071 8.36001 21.5035 8.07349C20.9632 8.00303 19.4221 7.97485 18.8724 8.02652Z" fill="#69C3EC"/>
</svg>
