<svg width="40" height="40" viewBox="0 0 40 40" fill="none" xmlns="http://www.w3.org/2000/svg">
<g clip-path="url(#clip0_5896_168)">
<rect width="40" height="40" fill="#4C65FF"/>
<path d="M40 0H0V40H40V0Z" fill="#4C65FF"/>
<path d="M31.7663 21.3629C32.6652 19.3483 28.2219 13.7199 23.977 11.3749C21.3014 9.55832 18.5134 9.80789 17.9487 10.6055C16.7095 12.356 22.052 13.8392 25.6251 15.57C24.857 15.9048 24.1332 16.5054 23.7076 17.2735C22.3755 15.8144 19.4519 14.5579 16.0213 15.57C13.7095 16.2521 11.7882 17.8601 11.0456 20.2888C10.8652 20.2084 10.6654 20.1637 10.4552 20.1637C9.65156 20.1637 9 20.8174 9 21.6238C9 22.4303 9.65156 23.084 10.4552 23.084C10.6042 23.084 11.07 22.9837 11.07 22.9837L18.5134 23.0378C15.5366 27.7761 13.1841 28.4688 13.1841 29.2896C13.1841 30.1105 15.435 29.8881 16.2802 29.5821C20.3261 28.1173 24.6716 23.5522 25.4173 22.2381C28.5487 22.6301 31.1803 22.6765 31.7663 21.3629Z" fill="url(#paint0_linear_5896_168)"/>
<path fill-rule="evenodd" clip-rule="evenodd" d="M25.6247 15.5706C25.6249 15.5707 25.6251 15.5708 25.6253 15.5708C25.7909 15.5054 25.7641 15.26 25.7187 15.0672C25.6141 14.6242 23.8107 12.8374 22.1172 12.0371C19.8097 10.9466 18.1105 11.0027 17.8592 11.5053C18.3292 12.4719 20.5084 13.3795 22.7845 14.3275C23.7555 14.7319 24.7441 15.1436 25.6252 15.5704C25.625 15.5705 25.6248 15.5705 25.6247 15.5706Z" fill="url(#paint1_linear_5896_168)"/>
<path fill-rule="evenodd" clip-rule="evenodd" d="M22.6963 25.2993C22.2296 25.1203 21.7025 24.9561 21.1031 24.8072C21.7422 23.6598 21.8762 21.9613 21.2727 20.8874C20.4258 19.3803 19.3625 18.5781 16.8918 18.5781C15.5329 18.5781 11.8741 19.0374 11.8092 22.1019C11.8024 22.4234 11.8091 22.7181 11.8323 22.9891L18.5134 23.0377C17.6127 24.4714 16.7691 25.5348 16.0305 26.3433C16.9173 26.5712 17.649 26.7627 18.3208 26.9384C18.9582 27.1052 19.5417 27.2577 20.1523 27.4141C21.0735 26.7407 21.9396 26.0063 22.6963 25.2993Z" fill="url(#paint2_linear_5896_168)"/>
<path d="M10.9565 22.6746C11.2294 25.0026 12.548 25.9149 15.2424 26.1849C17.9368 26.4548 19.4824 26.2737 21.5401 26.4615C23.2586 26.6185 24.7931 27.4972 25.3623 27.1935C25.8746 26.9202 25.588 25.9329 24.9025 25.2994C24.0139 24.4783 22.7841 23.9075 20.6201 23.7048C21.0513 22.5201 20.9305 20.8589 20.2607 19.9551C19.2923 18.6483 17.5048 18.0576 15.2424 18.3157C12.8788 18.5854 10.6139 19.753 10.9565 22.6746Z" fill="url(#paint3_linear_5896_168)"/>
</g>
<defs>
<linearGradient id="paint0_linear_5896_168" x1="15.7521" y1="19.5788" x2="31.5807" y2="24.0524" gradientUnits="userSpaceOnUse">
<stop stop-color="white"/>
<stop offset="1" stop-color="white"/>
</linearGradient>
<linearGradient id="paint1_linear_5896_168" x1="28.9088" y1="19.2774" x2="17.4549" y2="7.83413" gradientUnits="userSpaceOnUse">
<stop stop-color="#8697FF"/>
<stop offset="1" stop-color="#8697FF" stop-opacity="0"/>
</linearGradient>
<linearGradient id="paint2_linear_5896_168" x1="23.0139" y1="25.6992" x2="12.0299" y2="19.4054" gradientUnits="userSpaceOnUse">
<stop stop-color="#8697FF"/>
<stop offset="1" stop-color="#8697FF" stop-opacity="0"/>
</linearGradient>
<linearGradient id="paint3_linear_5896_168" x1="16.6966" y1="19.4606" x2="24.1395" y2="28.8858" gradientUnits="userSpaceOnUse">
<stop stop-color="white"/>
<stop offset="0.983895" stop-color="#D1D8FF"/>
</linearGradient>
<clipPath id="clip0_5896_168">
<rect width="40" height="40" fill="white"/>
</clipPath>
</defs>
</svg>
