<svg width="40" height="40" viewBox="0 0 40 40" fill="none" xmlns="http://www.w3.org/2000/svg">
<rect width="40" height="40" fill="#290004"/>
<path d="M26.8217 8.04079L26.7973 8H12.9563L6 19.9792L12.9319 31.9176L12.9563 31.9583H26.7973L33.7536 19.9792L26.8217 8.04079ZM15.0281 13.291L11.6908 19.041H8.52128L13.4368 10.5767L15.0281 13.291ZM16.4955 27.4441H23.2483L24.8282 30.1941H14.9157L16.4955 27.4441ZM23.2662 12.4021H16.489L14.9417 9.76424H24.8119L23.2662 12.4021ZM16.4972 25.6798L13.155 19.9231L16.4972 14.1664H23.2548L26.597 19.9231L23.2548 25.6798H16.4972ZM28.0628 19.041L24.7256 13.2927L26.3168 10.5784L31.2306 19.041H28.0628ZM15.033 26.5619L13.4254 29.3613L8.45775 20.8069H11.6908L15.033 26.5619ZM31.2975 20.8052L26.325 29.3681L24.7174 26.5687L28.0645 20.8052H31.2975Z" fill="#AE0822"/>
</svg>
