<svg width="40" height="40" viewBox="0 0 40 40" fill="none" xmlns="http://www.w3.org/2000/svg">
<rect width="40" height="40" fill="#FECB3D"/>
<path d="M19.1313 30.9998H14.4681V16.1787H19.1372C20.0709 16.092 21.0046 16.0105 21.9389 15.9342C22.5962 15.8808 23.1836 15.8371 23.8441 15.9362C24.7674 16.0744 25.5968 16.4793 26.222 17.175L23.462 20.6809C23.4484 20.6842 23.2834 20.5199 23.2527 20.4951C22.4592 19.8509 21.062 19.8261 20.213 20.3738C19.4371 20.8739 19.1718 21.73 19.13 22.6174V30.9998H19.1313Z" fill="white"/>
<path d="M16.6289 9.00483C18.8712 8.87638 20.3597 11.3364 19.1711 13.2579C18.079 15.0243 15.5094 15.0243 14.4172 13.2579C13.3075 11.4636 14.5366 9.1248 16.6289 9.00483Z" fill="white"/>
</svg>
