<svg width="40" height="40" viewBox="0 0 40 40" fill="none" xmlns="http://www.w3.org/2000/svg">
<rect width="40" height="40" fill="#141414"/>
<path d="M22.585 8.03517L23.2783 9.65774C24.6361 12.8403 27.1686 15.3728 30.3511 16.7306L31.9738 17.4239C32.3974 17.6069 32.7441 17.862 33.0089 18.1751C32.1952 12.3829 27.6212 7.80406 21.8338 7C22.142 7.26481 22.402 7.61147 22.585 8.03517Z" fill="#999999"/>
<path d="M8.04112 17.4239L9.66369 16.7306C12.8462 15.3728 15.3788 12.8403 16.7413 9.65774L17.4347 8.03517C17.6176 7.61147 17.8776 7.26481 18.1858 7C12.3888 7.80406 7.81483 12.3829 7.00595 18.1702C7.27076 17.862 7.61742 17.602 8.04112 17.4191V17.4239Z" fill="#999999"/>
<path d="M31.9704 22.5759L30.3478 23.2692C27.1654 24.627 24.6328 27.1644 23.275 30.3469L22.5817 31.9646C22.3987 32.3884 22.1387 32.735 21.8306 32.9999C27.6179 32.1909 32.1919 27.6169 33.0008 21.8296C32.736 22.1377 32.3893 22.3977 31.9656 22.5807L31.9704 22.5759Z" fill="#999999"/>
<path d="M17.4288 31.9641L16.7354 30.3463C15.3777 27.1638 12.8403 24.6312 9.65774 23.2686L8.03517 22.5753C7.61147 22.3924 7.26481 22.1371 7 21.8242C7.80888 27.6116 12.3829 32.1903 18.1702 32.9944C17.862 32.7296 17.602 32.383 17.4191 31.9593L17.4288 31.9641Z" fill="#999999"/>
<path d="M14.1092 18.7289L14.9085 18.3871C16.4781 17.7178 17.7251 16.4708 18.3944 14.9012L18.7362 14.1019C19.2129 12.9849 20.8017 12.9849 21.2784 14.1019L21.6202 14.9012C22.2895 16.4708 23.5365 17.7178 25.1062 18.3871L25.9054 18.7289C27.0224 19.2056 27.0224 20.7896 25.9054 21.2711L25.1062 21.6129C23.5365 22.2822 22.2895 23.5292 21.6202 25.0988L21.2784 25.8981C20.8017 27.0151 19.2129 27.0151 18.7362 25.8981L18.3944 25.0988C17.7251 23.5292 16.4781 22.2822 14.9085 21.6129L14.1092 21.2711C12.9922 20.7944 12.9922 19.2104 14.1092 18.7289Z" fill="#FAFAFA"/>
</svg>
