<svg width="40" height="40" viewBox="0 0 40 40" fill="none" xmlns="http://www.w3.org/2000/svg">
<rect width="40" height="40" fill="black"/>
<path d="M33.7077 19.9997C33.7077 12.4293 27.5707 6.29228 20.0003 6.29228H19.9997C12.4293 6.29231 6.29231 12.4293 6.29228 19.9997V20.0003C6.29228 27.5707 12.4293 33.7077 19.9997 33.7077H20.0003C27.5707 33.7077 33.7077 27.5707 33.7077 20.0003V19.9997ZM34 20.0003C34 27.7322 27.7322 34 20.0003 34H19.9997C12.2679 34 6 27.7321 6 20.0003V19.9997C6.00003 12.2679 12.2679 6.00003 19.9997 6H20.0003C27.7321 6 34 12.2679 34 19.9997V20.0003Z" fill="url(#paint0_linear_6639_294)"/>
<path d="M21.2819 19.419L24.6667 17.7896V25.2463L15.3333 29.579V25.5319L21.2819 22.8759V19.419Z" fill="white"/>
<path d="M18.718 20.2096L15.3333 21.7192V14.2372L24.6667 9.92969V13.9768L18.718 16.8427V20.2096Z" fill="white"/>
<defs>
<linearGradient id="paint0_linear_6639_294" x1="37.2739" y1="11.3484" x2="9.06893" y2="36.4844" gradientUnits="userSpaceOnUse">
<stop stop-color="white"/>
<stop offset="1" stop-color="#FBFBFB"/>
</linearGradient>
</defs>
</svg>
