<svg width="40" height="40" viewBox="0 0 40 40" fill="none" xmlns="http://www.w3.org/2000/svg">
<rect width="40" height="40" fill="#0A5ED9"/>
<path d="M10.9781 9.1352C10.0739 9.45556 9.42289 10.1329 9.13356 11.0482C8.99793 11.451 8.98889 12.4487 9.00695 20.6957L9.03408 29.8947L9.26013 30.3524C9.54042 30.9383 10.0829 31.4875 10.6616 31.771L11.1137 32H20.5171H29.9203L30.3725 31.771C30.9511 31.4875 31.4937 30.9383 31.7739 30.3524L32 29.8947V20.5127V11.1306L31.7739 10.6729C31.4937 10.0871 30.9511 9.53794 30.3725 9.25418L29.9203 9.02535L20.6526 9.00706C12.3976 8.98873 11.3397 8.99791 10.9781 9.1352ZM23.0036 13.4647V14.8377H17.6689H12.3343V13.4647V12.0917H17.6689H23.0036V13.4647ZM28.6998 13.4647V14.8377H26.3488H23.9981V13.4647V12.0917H26.3488H28.6998V13.4647ZM23.0036 18.1328V19.5058H20.5171H18.0306V18.1328V16.7599H20.5171H23.0036V18.1328ZM23.0036 22.801V24.174H20.5171H18.0306V22.801V21.428H20.5171H23.0036V22.801ZM23.0036 27.469V28.8422H20.5171H18.0306V27.469V26.0961H20.5171H23.0036V27.469Z" fill="white"/>
</svg>
