<svg width="40" height="40" viewBox="0 0 40 40" fill="none" xmlns="http://www.w3.org/2000/svg">
<path fill-rule="evenodd" clip-rule="evenodd" d="M20.0239 19.9447C22.9798 19.9447 25.436 19.4449 26.0501 18.7737C25.536 18.2025 23.6939 17.7599 21.3377 17.6456V19.0593C20.9236 19.0879 20.4809 19.0879 20.0239 19.0879C19.5669 19.0879 19.1385 19.0736 18.7101 19.0451V17.6456C16.3539 17.7741 14.5118 18.2168 13.9977 18.7737C14.5975 19.4449 17.068 19.9447 20.0239 19.9447ZM25.2647 13.3045V15.2465H21.3234V16.5889C24.0937 16.7317 26.1643 17.3171 26.1786 18.0311V19.502C26.1643 20.216 24.0937 20.8014 21.3234 20.9443V24.243H18.7101V20.9586C15.9398 20.8157 13.8692 20.2303 13.8549 19.5163V18.0311C13.8692 17.3171 15.9398 16.7317 18.7101 16.5889V15.2465H14.7689V13.3045H25.2647ZM13.2266 10.22H27.0497C27.3782 10.22 27.678 10.3913 27.8494 10.6769L31.8763 17.5885C32.0905 17.9454 32.0191 18.4025 31.7193 18.688L20.6379 29.5123C20.281 29.8693 19.6954 29.8693 19.3385 29.5123L8.27144 18.7023C7.97156 18.4025 7.91444 17.9454 8.12864 17.5742L12.4412 10.6484C12.6126 10.3913 12.9125 10.22 13.2266 10.22Z" fill="#D3B25B"/>
</svg>
