<svg width="40" height="40" viewBox="0 0 40 40" fill="none" xmlns="http://www.w3.org/2000/svg">
<rect width="40" height="40" fill="white"/>
<path d="M20.9523 13C21.1028 13.0314 21.2456 13.0949 21.3693 13.1859C21.5087 13.2959 21.6154 13.4419 21.6776 13.6082L22.8625 16.5717C23.2998 17.6696 23.7397 18.7674 24.181 19.8659C24.4114 20.442 24.6399 21.0181 24.8736 21.5928C24.9233 21.7104 24.949 21.8367 24.949 21.9643C24.949 22.092 24.9233 22.2183 24.8736 22.3359L22.8658 27.3452C22.7329 27.6764 22.4927 27.882 22.1378 27.9363C21.6973 28.0024 21.3032 27.7851 21.1441 27.3989C20.7677 26.4719 20.3991 25.543 20.0279 24.614L18.1386 19.8888C17.5794 18.4867 17.0194 17.0849 16.4588 15.6834C16.2729 15.2186 16.0929 14.7505 15.8984 14.289C15.845 14.1635 15.8198 14.0277 15.8245 13.8914C15.8292 13.7551 15.8638 13.6214 15.9258 13.4999C15.9878 13.3783 16.0757 13.2719 16.1832 13.188C16.2908 13.1041 16.4155 13.0449 16.5485 13.0144C16.5642 13.0105 16.5799 13.0046 16.5956 13H20.9523Z" fill="url(#paint0_linear_5896_22)"/>
<path d="M13.1273 13C13.1771 13.0137 13.2268 13.0262 13.2746 13.0426C13.4005 13.0818 13.516 13.1488 13.6126 13.2387C13.7091 13.3285 13.7842 13.4389 13.8324 13.5617C14.2636 14.6321 14.6928 15.7033 15.1201 16.7753C15.765 18.3861 16.4098 19.997 17.0545 21.6079C17.1023 21.7213 17.127 21.8432 17.127 21.9663C17.127 22.0894 17.1023 22.2113 17.0545 22.3247C16.3796 24.0081 15.704 25.6912 15.0278 27.374C14.9591 27.5432 14.8418 27.6883 14.6906 27.7909C14.5395 27.8934 14.3613 27.9488 14.1787 27.9501C13.9851 27.9535 13.7953 27.897 13.6352 27.7882C13.4751 27.6794 13.3525 27.5238 13.2844 27.3426C12.8799 26.3167 12.4675 25.2935 12.059 24.2703C11.5104 22.8838 10.9592 21.4986 10.406 20.1147L8.71569 15.887C8.50228 15.3534 8.29083 14.8193 8.07414 14.2864C7.97975 14.0642 7.97532 13.8141 8.06179 13.5888C8.14826 13.3635 8.31887 13.1805 8.53763 13.0786C8.61701 13.0465 8.69862 13.0202 8.78181 13H13.1273Z" fill="url(#paint1_linear_5896_22)"/>
<path d="M32.6226 22.1098C32.5028 22.5131 32.3241 22.8934 32.1722 23.2816C31.7323 24.388 31.2897 25.4943 30.8452 26.5994C30.7431 26.8527 30.6397 27.1054 30.5402 27.3601C30.4881 27.4898 30.4075 27.6061 30.3045 27.7006C30.2015 27.7951 30.0786 27.8653 29.9449 27.906C29.8112 27.9467 29.67 27.9569 29.5318 27.9358C29.3937 27.9147 29.262 27.863 29.1464 27.7843C28.9918 27.6784 28.8726 27.5286 28.8041 27.3542L26.8748 22.5268L25.2055 18.3568L23.5722 14.2718C23.5207 14.1475 23.497 14.0134 23.5028 13.8789C23.5087 13.7445 23.5438 13.613 23.6058 13.4935C23.6678 13.3741 23.7551 13.2697 23.8617 13.1876C23.9683 13.1054 24.0916 13.0476 24.2229 13.0182L24.2759 13.0024H28.6325C28.6463 13.0064 28.6594 13.0123 28.6731 13.0155C28.8261 13.0474 28.9686 13.1173 29.0872 13.219C29.2059 13.3206 29.297 13.4506 29.352 13.5969C30.2721 15.8956 31.1912 18.1947 32.1093 20.4942C32.2835 20.9328 32.4779 21.3635 32.6213 21.8139L32.6226 22.1098Z" fill="url(#paint2_linear_5896_22)"/>
<defs>
<linearGradient id="paint0_linear_5896_22" x1="15.1489" y1="14.2137" x2="25.6434" y2="24.688" gradientUnits="userSpaceOnUse">
<stop stop-color="#FF00A8"/>
<stop offset="1" stop-color="#6200C6"/>
</linearGradient>
<linearGradient id="paint1_linear_5896_22" x1="7.32785" y1="14.2104" x2="17.8205" y2="24.6814" gradientUnits="userSpaceOnUse">
<stop stop-color="#FF00A8"/>
<stop offset="1" stop-color="#6200C6"/>
</linearGradient>
<linearGradient id="paint2_linear_5896_22" x1="22.8265" y1="14.2096" x2="33.3198" y2="24.6819" gradientUnits="userSpaceOnUse">
<stop stop-color="#FF00A8"/>
<stop offset="1" stop-color="#6200C6"/>
</linearGradient>
</defs>
</svg>
