<svg width="40" height="40" viewBox="0 0 40 40" fill="none" xmlns="http://www.w3.org/2000/svg">
<mask id="mask0_10720_15915" style="mask-type:luminance" maskUnits="userSpaceOnUse" x="13" y="8" width="14" height="24">
<path d="M26.7943 8H13.2061V32H26.7943V8Z" fill="white"/>
</mask>
<g mask="url(#mask0_10720_15915)">
<path d="M20.7041 18.6418L26.7955 31.9999H13.2061L19.2975 18.6418C19.3593 18.5071 19.4585 18.393 19.5831 18.313C19.7078 18.2329 19.8527 18.1904 20.0008 18.1904C20.1489 18.1904 20.2938 18.2329 20.4185 18.313C20.5431 18.393 20.6422 18.5071 20.7041 18.6418Z" fill="black"/>
<path d="M20.0001 16.5714C22.3636 16.5714 24.2795 14.6527 24.2795 12.2857C24.2795 9.91879 22.3636 8 20.0001 8C17.6367 8 15.7207 9.91879 15.7207 12.2857C15.7207 14.6527 17.6367 16.5714 20.0001 16.5714Z" fill="black"/>
</g>
</svg>
