<svg width="40" height="40" viewBox="0 0 40 40" fill="none" xmlns="http://www.w3.org/2000/svg">
<path d="M19.7575 20C19.7575 16.4782 22.0823 13.5009 25.2784 12.5235C25.5436 12.4424 25.6157 12.098 25.4042 11.9181C23.5353 10.3302 21.1083 9.38087 18.4592 9.40855C12.676 9.46864 7.99093 14.2221 8.00001 20.017C8.0091 25.859 12.7387 30.5918 18.5713 30.5918C21.1746 30.5918 23.5582 29.6488 25.4003 28.085C25.6138 27.9039 25.5459 27.5583 25.2784 27.4765C22.0827 26.4991 19.7575 23.5218 19.7575 20Z" fill="#061510"/>
<path d="M28.8236 20.0175C28.8236 22.4875 28.0143 24.7646 26.6516 26.5881C26.4847 26.8115 26.706 27.116 26.9701 27.027C29.8935 26.0445 32 23.2775 32 20.0175C32 16.7574 29.8935 13.9904 26.9701 13.0079C26.706 12.9194 26.4851 13.2234 26.6516 13.4468C28.0143 15.2704 28.8236 17.5474 28.8236 20.0175Z" fill="#061510"/>
</svg>
