<svg width="40" height="40" viewBox="0 0 40 40" fill="none" xmlns="http://www.w3.org/2000/svg">
<g clip-path="url(#clip0_10724_31500)">
<path d="M11.9558 27.7993C7.65104 23.3545 7.76384 16.2609 12.2094 11.9561C16.6542 7.65129 23.7478 7.76409 28.0526 12.2097C32.3574 16.6545 32.2446 23.7481 27.799 28.0529C23.3542 32.3577 16.2606 32.2449 11.9558 27.7993Z" fill="#141414" stroke="#46ECD5"/>
<path fill-rule="evenodd" clip-rule="evenodd" d="M20.0073 26.56L20.3273 26.744L21.8841 24.7136L20.0073 23.564V26.56ZM20.0073 17.9984L24.7873 20.9256L26.6633 18.4776L24.2737 17.0136L20.0073 14.4016V17.9984ZM24.2737 21.5952L22.3969 24.0432L20.0073 22.5792V18.984L24.2737 21.5952Z" fill="#1A977A"/>
<path fill-rule="evenodd" clip-rule="evenodd" d="M20.0081 26.5616V23.564L18.1313 24.7136L19.6873 26.7432L20.0041 26.5592L20.0081 26.5616ZM20.0081 17.9984L15.2281 20.9256L13.3521 18.4776L15.7417 17.0136L20.0081 14.4016V17.9984ZM15.7417 21.5952L17.6185 24.0432L20.0081 22.5792V18.984L15.7417 21.5952Z" fill="#C1FFF1"/>
</g>
<defs>
<clipPath id="clip0_10724_31500">
<rect width="24" height="24" fill="white" transform="translate(8 8)"/>
</clipPath>
</defs>
</svg>
