<svg width="40" height="40" viewBox="0 0 40 40" fill="none" xmlns="http://www.w3.org/2000/svg">
<path fill-rule="evenodd" clip-rule="evenodd" d="M14.5691 32.4723H25.4309C29.3352 32.4723 32.5 29.3427 32.5 25.4819V14.7409C32.5 10.8801 29.3352 7.75049 25.4309 7.75049L14.5691 7.75049C10.6648 7.75049 7.5 10.8801 7.5 14.7409L7.5 25.4819C7.5 29.3427 10.6648 32.4723 14.5691 32.4723ZM25.8253 24.7909C23.6009 23.4191 20.6455 21.7354 18.216 20.4377C17.6263 20.1232 16.8373 20.2406 16.3536 20.923C15.4514 22.1941 14.371 23.798 13.6329 25.0622C13.326 25.574 13.7361 26.2508 14.3498 26.2508H25.3558C26.1491 26.2508 26.4814 25.2579 25.8253 24.7909ZM21.7587 20.0157C19.4114 18.7782 16.1193 16.8945 13.7804 15.471C13.0578 15.0305 13.3462 13.9719 14.1891 13.9733C15.5699 13.9733 17.8138 13.973 20.0463 13.9726C22.2563 13.9723 24.4553 13.9719 25.7946 13.9719C26.4692 13.9719 26.8157 14.6627 26.5286 15.1466C25.5599 16.7785 24.471 18.4257 23.5674 19.6549C23.1644 20.2031 22.347 20.3261 21.7587 20.0157Z" fill="#3560E5"/>
</svg>
